<?xml version="1.0" standalone="no"?>
<!DOCTYPE svg PUBLIC "-//W3C//DTD SVG 1.1//EN" "http://www.w3.org/Graphics/SVG/1.1/DTD/svg11.dtd" >
<svg xmlns="http://www.w3.org/2000/svg" xmlns:xlink="http://www.w3.org/1999/xlink" version="1.1">
<metadata>
Created by FontForge 20201107 at Fri May  9 05:59:02 2025
 By 
(c) 1999-2024 Typodermic Fonts Inc.
</metadata>
<defs>
<font id="Coolvetica-Regular" horiz-adv-x="1030" >
  <font-face 
    font-family="Coolvetica"
    font-weight="400"
    font-stretch="normal"
    units-per-em="2048"
    panose-1="2 11 6 3 3 6 2 2 0 4"
    ascent="1638"
    descent="-410"
    x-height="1008"
    cap-height="1360"
    bbox="-909 -477 2259 1886"
    underline-thickness="40"
    underline-position="-292"
    unicode-range="U+0017-FB02"
  />
<missing-glyph horiz-adv-x="925" 
d="M659 0h-395q-198 0 -198 172v999q0 86 50.5 130.5t147.5 44.5h395q98 0 149.5 -44.5t51.5 -130.5v-999q0 -172 -201 -172zM754 172v999q0 80 -95 80h-395q-94 0 -94 -80v-999q0 -38 24 -59t70 -21h395q95 0 95 80z" />
    <glyph glyph-name=".notdef" horiz-adv-x="925" 
d="M659 0h-395q-198 0 -198 172v999q0 86 50.5 130.5t147.5 44.5h395q98 0 149.5 -44.5t51.5 -130.5v-999q0 -172 -201 -172zM754 172v999q0 80 -95 80h-395q-94 0 -94 -80v-999q0 -38 24 -59t70 -21h395q95 0 95 80z" />
    <glyph glyph-name="uni0000" horiz-adv-x="0" 
 />
    <glyph glyph-name="uni0000" horiz-adv-x="0" 
 />
    <glyph glyph-name="nonmarkingreturn" horiz-adv-x="682" 
 />
    <glyph glyph-name="uni0017" horiz-adv-x="493" 
 />
    <glyph glyph-name="space" unicode=" " horiz-adv-x="493" 
 />
    <glyph glyph-name="exclam" unicode="!" horiz-adv-x="501" 
d="M383 0h-277v268h277v-268zM317 377h-141q-80 492 -80 837q0 105 10 146h283q8 -90 8 -152q0 -339 -80 -831z" />
    <glyph glyph-name="quotedbl" unicode="&#x22;" horiz-adv-x="591" 
d="M526 848h-182v512h182v-512zM229 848h-182v512h182v-512z" />
    <glyph glyph-name="numbersign" unicode="#" horiz-adv-x="1026" 
d="M573 561l31 238h-180l-33 -238h182zM674 0h-178l55 387h-180l-49 -387h-175l50 387h-179l19 174h182l31 238h-178l20 174h180l54 387h170l-52 -387h183l49 387h176l-51 -387h180l-25 -174h-178l-30 -238h180l-21 -174h-182z" />
    <glyph glyph-name="dollar" unicode="$" horiz-adv-x="991" 
d="M543 532v-362q76 4 123 54t47 118q0 70 -45.5 119.5t-124.5 70.5zM459 819v326q-73 -4 -117.5 -48t-44.5 -106q0 -64 43.5 -113t118.5 -59zM543 -113h-84v80q-229 20 -329.5 122t-100.5 319h245q17 -130 55.5 -178t129.5 -60v395q-105 28 -178 60.5t-125.5 78.5
t-77.5 108t-25 144q0 161 116.5 275t289.5 117v90h84v-90q187 -6 287.5 -106.5t109.5 -291.5h-242q-9 106 -45.5 148t-109.5 47v-352q137 -45 220 -87t127.5 -93t58.5 -103.5t14 -134.5q0 -178 -114.5 -288.5t-305.5 -119.5v-80z" />
    <glyph glyph-name="percent" unicode="%" horiz-adv-x="1370" 
d="M281 -41h-138l944 1442h140zM1104 63q50 0 73 59t23 195q0 139 -23 198.5t-73 59.5q-49 0 -72.5 -59.5t-23.5 -196.5t23.5 -196.5t72.5 -59.5zM1100 -45q-232 0 -232 367q0 360 232 360q235 0 235 -358q0 -185 -61 -277t-174 -92zM274 786q50 0 73.5 59t23.5 195
q0 139 -23.5 198.5t-73.5 59.5q-49 0 -72.5 -59.5t-23.5 -196.5t23.5 -196.5t72.5 -59.5zM270 678q-231 0 -231 366q0 361 231 361q236 0 236 -358q0 -185 -61.5 -277t-174.5 -92z" />
    <glyph glyph-name="ampersand" unicode="&#x26;" horiz-adv-x="1034" 
d="M727 414v366h256v-366q0 -206 -127.5 -333.5t-331.5 -127.5q-226 0 -356.5 119.5t-130.5 306.5q0 97 47.5 191t116.5 124q-158 82 -158 285q0 170 142 275.5t370 105.5v-223q-136 0 -193 -44t-57 -145q0 -87 59 -127.5t191 -40.5v-192q-123 0 -190.5 -52t-67.5 -153
q0 -91 57 -151t168 -60q205 0 205 242z" />
    <glyph glyph-name="quotesingle" unicode="'" horiz-adv-x="296" 
d="M229 848h-182v512h182v-512z" />
    <glyph glyph-name="parenleft" unicode="(" horiz-adv-x="667" 
d="M659 -293h-194q-159 191 -243.5 427t-84.5 482q0 239 82 464.5t246 410.5h194q-249 -414 -249 -879q0 -468 249 -905z" />
    <glyph glyph-name="parenright" unicode=")" horiz-adv-x="667" 
d="M211 -293h-195q250 438 250 905q0 463 -250 879h195q164 -185 246 -410.5t82 -464.5q0 -246 -84.5 -482t-243.5 -427z" />
    <glyph glyph-name="asterisk" unicode="*" horiz-adv-x="1103" 
d="M928 532l-180 -129l-201 265l-195 -265l-184 129l197 279l-299 94l67 207l293 -94v342h242v-342l293 94l73 -207l-303 -94z" />
    <glyph glyph-name="plus" unicode="+" horiz-adv-x="1071" 
d="M625 219h-193v387h-385v193h385v385h193v-385h387v-193h-387v-387z" />
    <glyph glyph-name="comma" unicode="," horiz-adv-x="382" 
d="M47 -319v102q80 21 118.5 71.5t39.5 145.5h-158v276h283v-208q0 -176 -63 -265t-220 -122z" />
    <glyph glyph-name="hyphen" unicode="-" horiz-adv-x="573" 
d="M535 526h-508v207h508v-207z" />
    <glyph glyph-name="hyphen" unicode="&#xad;" horiz-adv-x="573" 
d="M535 526h-508v207h508v-207z" />
    <glyph glyph-name="period" unicode="." horiz-adv-x="382" 
d="M332 0h-285v276h285v-276z" />
    <glyph glyph-name="slash" unicode="/" horiz-adv-x="614" 
d="M209 0h-219l389 1360h223z" />
    <glyph glyph-name="zero" unicode="0" horiz-adv-x="1003" 
d="M506 168q99 0 145.5 118.5t46.5 391.5q0 277 -46.5 395.5t-145.5 118.5q-100 0 -147.5 -118t-47.5 -392q0 -277 47.5 -395.5t147.5 -118.5zM498 -47q-463 0 -463 733q0 372 118 545.5t345 173.5q471 0 471 -715q0 -371 -122.5 -554t-348.5 -183z" />
    <glyph glyph-name="one" unicode="1" horiz-adv-x="606" 
d="M553 0h-266v940h-279v184q169 0 242.5 56.5t85.5 179.5h217v-1360z" />
    <glyph glyph-name="two" unicode="2" horiz-adv-x="952" 
d="M934 0h-926q1 102 16.5 178t58.5 159t125 165t210 174q148 105 200 171.5t52 151.5q0 179 -189 179q-96 0 -147 -56t-51 -186h-256q0 220 116.5 344.5t325.5 124.5q213 0 337 -101t124 -296q0 -104 -39.5 -186.5t-120.5 -160.5t-233 -186q-79 -58 -132 -125t-57 -119h586
v-231z" />
    <glyph glyph-name="three" unicode="3" horiz-adv-x="980" 
d="M377 610v187q83 0 139.5 14.5t85 41.5t40 58t11.5 72q0 209 -176 209q-79 0 -129.5 -60t-50.5 -163h-248q0 194 122 315t316 121q179 0 300.5 -104.5t121.5 -266.5q0 -96 -41 -178.5t-118 -126.5q202 -83 202 -336q0 -202 -131.5 -321t-347.5 -119q-211 0 -328.5 119
t-117.5 327h256q0 -117 50.5 -172t151.5 -55q86 0 140.5 60t54.5 165q0 119 -68 166t-235 47z" />
    <glyph glyph-name="four" unicode="4" horiz-adv-x="974" 
d="M543 504v479l-279 -479h279zM803 0h-266v297h-529v231l496 832h299v-856h153v-207h-153v-297z" />
    <glyph glyph-name="five" unicode="5" horiz-adv-x="1003" 
d="M332 535h-275l29 825h838v-225h-600l-13 -365q91 96 271 96q171 0 282 -114.5t111 -313.5q0 -218 -130.5 -351.5t-338.5 -133.5q-187 0 -316.5 112t-136.5 285h266q7 -84 57 -132t130 -48q203 0 203 256q0 108 -47.5 166.5t-139.5 58.5q-134 0 -190 -116z" />
    <glyph glyph-name="six" unicode="6" horiz-adv-x="997" 
d="M504 168q89 0 139.5 72.5t50.5 185.5q0 116 -53 185t-141 69q-90 0 -146.5 -69t-56.5 -181q0 -119 55 -190.5t152 -71.5zM932 1065h-264q-9 127 -144 127q-108 0 -163.5 -105t-67.5 -325q52 61 117.5 94t160.5 33q166 0 275.5 -122t109.5 -329q0 -211 -124.5 -348
t-323.5 -137q-477 0 -477 682q0 403 124.5 586.5t381.5 183.5q165 0 269 -88.5t126 -251.5z" />
    <glyph glyph-name="seven" unicode="7" horiz-adv-x="978" 
d="M469 0h-274q24 300 145 590.5t332 533.5h-664v236h953v-205q-226 -251 -351.5 -548t-140.5 -607z" />
    <glyph glyph-name="eight" unicode="8" horiz-adv-x="1013" 
d="M502 172q196 0 196 225q0 98 -49 155.5t-147 57.5t-145.5 -56t-47.5 -157q0 -225 193 -225zM502 821q81 0 123.5 50t42.5 133q0 86 -42.5 135t-123.5 49t-123.5 -49t-42.5 -135q0 -83 42.5 -133t123.5 -50zM770 743q92 -41 147.5 -136.5t55.5 -209.5q0 -201 -120 -322.5
t-349 -121.5q-114 0 -205.5 33.5t-149 92.5t-88 137t-30.5 169q0 243 213 346q-79 40 -116.5 121.5t-37.5 177.5q0 161 118 268t296 107q194 0 300.5 -102.5t106.5 -264.5q0 -98 -34 -178t-107 -117z" />
    <glyph glyph-name="nine" unicode="9" horiz-adv-x="997" 
d="M487 678q90 0 146.5 69t56.5 181q0 119 -55 190.5t-152 71.5q-89 0 -139.5 -72.5t-50.5 -185.5q0 -116 53 -185t141 -69zM55 293h264q9 -127 144 -127q108 0 163.5 105t67.5 325q-52 -61 -117.5 -94t-160.5 -33q-166 0 -275.5 122t-109.5 329q0 211 124.5 348t323.5 137
q477 0 477 -682q0 -403 -124 -586.5t-381 -183.5q-166 0 -270 88.5t-126 251.5z" />
    <glyph glyph-name="colon" unicode=":" horiz-adv-x="350" 
d="M311 0h-282v276h282v-276zM311 694h-282v275h282v-275z" />
    <glyph glyph-name="semicolon" unicode=";" horiz-adv-x="358" 
d="M20 -319v102q80 21 118.5 71.5t39.5 145.5h-158v276h283v-208q0 -176 -63 -265t-220 -122zM303 694h-283v275h283v-275z" />
    <glyph glyph-name="less" unicode="&#x3c;" horiz-adv-x="1071" 
d="M1012 197l-965 409v193l965 409v-213l-748 -293l748 -292v-213z" />
    <glyph glyph-name="equal" unicode="=" horiz-adv-x="1071" 
d="M1012 811h-965v193h965v-193zM1012 401h-965v193h965v-193z" />
    <glyph glyph-name="greater" unicode="&#x3e;" horiz-adv-x="1071" 
d="M1012 606l-965 -409v213l748 292l-748 293v213l965 -409v-193z" />
    <glyph glyph-name="question" unicode="?" horiz-adv-x="1005" 
d="M643 0h-276v268h276v-268zM625 395h-250q0 124 19 197t71 133q25 29 68.5 63t73.5 57.5t53.5 66t23.5 96.5q0 94 -52 137t-134 43q-102 0 -146 -55.5t-55 -167.5h-264q0 201 126 320.5t333 119.5q477 0 477 -383q0 -65 -12.5 -114t-42 -90.5t-63 -72.5t-89.5 -73
q-86 -64 -111.5 -121.5t-25.5 -155.5z" />
    <glyph glyph-name="at" unicode="@" horiz-adv-x="1449" 
d="M688 315q91 0 147 88t56 226q0 84 -36 129t-105 45q-97 0 -156 -77t-59 -234q0 -90 35 -133.5t118 -43.5zM1260 88l63 -119q-69 -59 -214.5 -99t-363.5 -40q-228 0 -391 91t-243 248.5t-80 365.5q0 162 50 299t141.5 236.5t228 155.5t303.5 56q111 0 208 -20.5
t181.5 -66.5t145 -114t95.5 -168t35 -223q0 -128 -32 -234t-84 -172t-115 -101.5t-127 -35.5q-82 0 -129.5 30.5t-57.5 78.5q-59 -102 -217 -102q-61 0 -111.5 18.5t-84.5 50.5t-57 75.5t-33.5 92t-10.5 101.5q0 200 105.5 331t277.5 131q74 0 127 -33t74 -96l27 109h159
l-106 -506q-12 -56 -12 -74q0 -19 14 -29t33 -10q79 0 144 95t65 260q0 473 -516 473q-107 0 -199.5 -34t-158 -92t-113 -134.5t-70.5 -162.5t-23 -175q0 -270 150 -415.5t420 -145.5q175 0 306.5 28t195.5 76z" />
    <glyph glyph-name="A" unicode="A" horiz-adv-x="1316" 
d="M823 514l-170 541h-2l-174 -541h346zM1300 0h-309l-86 281h-502l-96 -281h-301l486 1360h329z" />
    <glyph glyph-name="A" unicode="&#x410;" horiz-adv-x="1316" 
d="M823 514l-170 541h-2l-174 -541h346zM1300 0h-309l-86 281h-502l-96 -281h-301l486 1360h329z" />
    <glyph glyph-name="A" unicode="&#x391;" horiz-adv-x="1316" 
d="M823 514l-170 541h-2l-174 -541h346zM1300 0h-309l-86 281h-502l-96 -281h-301l486 1360h329z" />
    <glyph glyph-name="B" unicode="B" horiz-adv-x="1175" 
d="M322 231h360q96 0 152.5 55t56.5 140q0 87 -53.5 129.5t-151.5 42.5h-364v-367zM664 1124h-342v-295h358q84 0 128 38t44 110q0 78 -44 112.5t-144 34.5zM659 0h-612v1360h670q197 0 303 -99t106 -272q0 -86 -46.5 -155t-118.5 -99q206 -77 206 -329
q0 -191 -128.5 -298.5t-379.5 -107.5z" />
    <glyph glyph-name="B" unicode="&#x412;" horiz-adv-x="1175" 
d="M322 231h360q96 0 152.5 55t56.5 140q0 87 -53.5 129.5t-151.5 42.5h-364v-367zM664 1124h-342v-295h358q84 0 128 38t44 110q0 78 -44 112.5t-144 34.5zM659 0h-612v1360h670q197 0 303 -99t106 -272q0 -86 -46.5 -155t-118.5 -99q206 -77 206 -329
q0 -191 -128.5 -298.5t-379.5 -107.5z" />
    <glyph glyph-name="B" unicode="&#x392;" horiz-adv-x="1175" 
d="M322 231h360q96 0 152.5 55t56.5 140q0 87 -53.5 129.5t-151.5 42.5h-364v-367zM664 1124h-342v-295h358q84 0 128 38t44 110q0 78 -44 112.5t-144 34.5zM659 0h-612v1360h670q197 0 303 -99t106 -272q0 -86 -46.5 -155t-118.5 -99q206 -77 206 -329
q0 -191 -128.5 -298.5t-379.5 -107.5z" />
    <glyph glyph-name="C" unicode="C" horiz-adv-x="1255" 
d="M961 467h284q-43 -236 -198 -375t-388 -139q-135 0 -248.5 46t-198.5 133.5t-133 224t-48 307.5q0 345 170 543t463 198q247 0 403.5 -139.5t177.5 -352.5h-284q-29 114 -110.5 180t-184.5 66q-173 0 -260 -125.5t-87 -353.5q0 -229 84.5 -354t247.5 -125q124 0 202 68.5
t108 197.5z" />
    <glyph glyph-name="C" unicode="&#x421;" horiz-adv-x="1255" 
d="M961 467h284q-43 -236 -198 -375t-388 -139q-135 0 -248.5 46t-198.5 133.5t-133 224t-48 307.5q0 345 170 543t463 198q247 0 403.5 -139.5t177.5 -352.5h-284q-29 114 -110.5 180t-184.5 66q-173 0 -260 -125.5t-87 -353.5q0 -229 84.5 -354t247.5 -125q124 0 202 68.5
t108 197.5z" />
    <glyph glyph-name="D" unicode="D" horiz-adv-x="1243" 
d="M324 231h235q184 0 269 114.5t85 348.5q0 231 -87 330.5t-291 99.5h-211v-893zM616 0h-569v1360h526q281 0 456 -180t175 -486q0 -154 -42.5 -283t-119 -219.5t-186.5 -141t-240 -50.5z" />
    <glyph glyph-name="E" unicode="E" horiz-adv-x="1089" 
d="M1079 0h-1032v1360h1000v-238h-723v-291h665v-239h-665v-350h755v-242z" />
    <glyph glyph-name="E" unicode="&#x415;" horiz-adv-x="1089" 
d="M1079 0h-1032v1360h1000v-238h-723v-291h665v-239h-665v-350h755v-242z" />
    <glyph glyph-name="E" unicode="&#x395;" horiz-adv-x="1089" 
d="M1079 0h-1032v1360h1000v-238h-723v-291h665v-239h-665v-350h755v-242z" />
    <glyph glyph-name="F" unicode="F" horiz-adv-x="1034" 
d="M930 573h-598v-573h-285v1360h969v-238h-684v-309h598v-240z" />
    <glyph glyph-name="G" unicode="G" horiz-adv-x="1347" 
d="M1296 0h-235l-6 135q-49 -86 -158 -134t-250 -48q-182 0 -325 104t-217 269t-74 356q0 152 43.5 282.5t125.5 229t210.5 155t289.5 56.5q244 0 411.5 -131t182.5 -334h-286q-10 95 -100.5 162t-207.5 67q-174 0 -276 -130t-102 -369q0 -69 13.5 -135.5t43 -128.5
t72.5 -109t107 -75.5t140 -28.5q139 0 235.5 91.5t96.5 219.5h-301v227h567v-731z" />
    <glyph glyph-name="H" unicode="H" horiz-adv-x="1202" 
d="M1149 0h-287v610h-530v-610h-285v1360h285v-512h530v512h287v-1360z" />
    <glyph glyph-name="H" unicode="&#x41d;" horiz-adv-x="1202" 
d="M1149 0h-287v610h-530v-610h-285v1360h285v-512h530v512h287v-1360z" />
    <glyph glyph-name="H" unicode="&#x397;" horiz-adv-x="1202" 
d="M1149 0h-287v610h-530v-610h-285v1360h285v-512h530v512h287v-1360z" />
    <glyph glyph-name="I" unicode="I" horiz-adv-x="382" 
d="M332 0h-285v1360h285v-1360z" />
    <glyph glyph-name="I" unicode="&#x4cf;" horiz-adv-x="382" 
d="M332 0h-285v1360h285v-1360z" />
    <glyph glyph-name="I" unicode="&#x4c0;" horiz-adv-x="382" 
d="M332 0h-285v1360h285v-1360z" />
    <glyph glyph-name="I" unicode="&#x406;" horiz-adv-x="382" 
d="M332 0h-285v1360h285v-1360z" />
    <glyph glyph-name="I" unicode="&#x399;" horiz-adv-x="382" 
d="M332 0h-285v1360h285v-1360z" />
    <glyph glyph-name="J" unicode="J" horiz-adv-x="929" 
d="M590 393v967h284v-993q0 -190 -115.5 -302t-330.5 -112q-199 0 -309.5 108t-110.5 314v139h258v-125q0 -105 38 -155t124 -50q95 0 128.5 46.5t33.5 162.5z" />
    <glyph glyph-name="J" unicode="&#x408;" horiz-adv-x="929" 
d="M590 393v967h284v-993q0 -190 -115.5 -302t-330.5 -112q-199 0 -309.5 108t-110.5 314v139h258v-125q0 -105 38 -155t124 -50q95 0 128.5 46.5t33.5 162.5z" />
    <glyph glyph-name="K" unicode="K" horiz-adv-x="1236" 
d="M1229 0h-346l-404 612l-151 -149v-463h-281v1360h281v-553l520 553h369l-537 -537z" />
    <glyph glyph-name="K" unicode="&#x41a;" horiz-adv-x="1236" 
d="M1229 0h-346l-404 612l-151 -149v-463h-281v1360h281v-553l520 553h369l-537 -537z" />
    <glyph glyph-name="K" unicode="&#x39a;" horiz-adv-x="1236" 
d="M1229 0h-346l-404 612l-151 -149v-463h-281v1360h281v-553l520 553h369l-537 -537z" />
    <glyph glyph-name="L" unicode="L" horiz-adv-x="1026" 
d="M1006 0h-959v1360h285v-1112h674v-248z" />
    <glyph glyph-name="M" unicode="M" horiz-adv-x="1423" 
d="M1366 0h-266v932l-254 -932h-283l-252 928v-928h-264v1360h418l246 -998l245 998h410v-1360z" />
    <glyph glyph-name="M" unicode="&#x41c;" horiz-adv-x="1423" 
d="M1366 0h-266v932l-254 -932h-283l-252 928v-928h-264v1360h418l246 -998l245 998h410v-1360z" />
    <glyph glyph-name="M" unicode="&#x39c;" horiz-adv-x="1423" 
d="M1366 0h-266v932l-254 -932h-283l-252 928v-928h-264v1360h418l246 -998l245 998h410v-1360z" />
    <glyph glyph-name="N" unicode="N" horiz-adv-x="1210" 
d="M1155 0h-262l-582 913v-913h-264v1360h301l541 -875v875h266v-1360z" />
    <glyph glyph-name="N" unicode="&#x39d;" horiz-adv-x="1210" 
d="M1155 0h-262l-582 913v-913h-264v1360h301l541 -875v875h266v-1360z" />
    <glyph glyph-name="O" unicode="O" horiz-adv-x="1372" 
d="M684 197q163 0 266 117.5t103 347.5q0 241 -95 366t-274 125q-181 0 -277 -125.5t-96 -365.5q0 -465 373 -465zM684 -47q-314 0 -483.5 185.5t-169.5 529.5q0 348 170.5 542.5t482.5 194.5t480.5 -195.5t168.5 -547.5q0 -348 -167 -528.5t-482 -180.5z" />
    <glyph glyph-name="O" unicode="&#x41e;" horiz-adv-x="1372" 
d="M684 197q163 0 266 117.5t103 347.5q0 241 -95 366t-274 125q-181 0 -277 -125.5t-96 -365.5q0 -465 373 -465zM684 -47q-314 0 -483.5 185.5t-169.5 529.5q0 348 170.5 542.5t482.5 194.5t480.5 -195.5t168.5 -547.5q0 -348 -167 -528.5t-482 -180.5z" />
    <glyph glyph-name="O" unicode="&#x39f;" horiz-adv-x="1372" 
d="M684 197q163 0 266 117.5t103 347.5q0 241 -95 366t-274 125q-181 0 -277 -125.5t-96 -365.5q0 -465 373 -465zM684 -47q-314 0 -483.5 185.5t-169.5 529.5q0 348 170.5 542.5t482.5 194.5t480.5 -195.5t168.5 -547.5q0 -348 -167 -528.5t-482 -180.5z" />
    <glyph glyph-name="P" unicode="P" horiz-adv-x="1093" 
d="M332 725h270q118 0 175 54.5t57 148.5q0 90 -57 143t-175 53h-270v-399zM332 0h-285v1360h600q130 0 230 -59t153 -158.5t53 -222.5q0 -188 -119.5 -307t-316.5 -119h-315v-494z" />
    <glyph glyph-name="P" unicode="&#x420;" horiz-adv-x="1093" 
d="M332 725h270q118 0 175 54.5t57 148.5q0 90 -57 143t-175 53h-270v-399zM332 0h-285v1360h600q130 0 230 -59t153 -158.5t53 -222.5q0 -188 -119.5 -307t-316.5 -119h-315v-494z" />
    <glyph glyph-name="P" unicode="&#x3a1;" horiz-adv-x="1093" 
d="M332 725h270q118 0 175 54.5t57 148.5q0 90 -57 143t-175 53h-270v-399zM332 0h-285v1360h600q130 0 230 -59t153 -158.5t53 -222.5q0 -188 -119.5 -307t-316.5 -119h-315v-494z" />
    <glyph glyph-name="Q" unicode="Q" horiz-adv-x="1374" 
d="M1110 -29h250q0 -195 -117 -321.5t-297 -126.5q-169 0 -278 114t-109 295v43q-257 36 -392.5 210.5t-135.5 482.5q0 348 170.5 542.5t482.5 194.5t480.5 -195.5t168.5 -547.5q0 -166 -57.5 -307.5t-175 -239.5t-277.5 -123q0 -111 40 -166t108 -55q61 0 100 52t39 148z
M684 197q163 0 266 117.5t103 347.5q0 241 -95 366t-274 125q-181 0 -277 -125.5t-96 -365.5q0 -465 373 -465z" />
    <glyph glyph-name="R" unicode="R" horiz-adv-x="1183" 
d="M690 1124h-366v-362h356q109 0 159 48.5t50 131.5q0 84 -49 133t-150 49zM1118 0h-278v350q0 100 -46 141t-167 41h-303v-532h-277v1360h690q187 0 302.5 -111t115.5 -282q0 -111 -53.5 -196t-149.5 -120q92 -30 129 -88.5t37 -177.5v-385z" />
    <glyph glyph-name="S" unicode="S" horiz-adv-x="1153" 
d="M1087 958h-270q-11 105 -76.5 156t-193.5 51q-119 0 -181.5 -41t-62.5 -118q0 -65 48.5 -104.5t162.5 -67.5q299 -72 404 -119q101 -45 156.5 -120.5t55.5 -209.5q0 -110 -40 -193.5t-112.5 -135t-170.5 -77.5t-219 -26q-260 0 -416 116.5t-160 338.5h275
q3 -104 84.5 -165t218.5 -61q126 0 195 51t69 142q0 65 -45 105.5t-166 66.5q-105 23 -155 35t-111 30.5t-107 38.5q-113 52 -170 131.5t-57 204.5q0 189 128 303.5t370 114.5q252 0 395 -123t151 -324z" />
    <glyph glyph-name="S" unicode="&#x405;" horiz-adv-x="1153" 
d="M1087 958h-270q-11 105 -76.5 156t-193.5 51q-119 0 -181.5 -41t-62.5 -118q0 -65 48.5 -104.5t162.5 -67.5q299 -72 404 -119q101 -45 156.5 -120.5t55.5 -209.5q0 -110 -40 -193.5t-112.5 -135t-170.5 -77.5t-219 -26q-260 0 -416 116.5t-160 338.5h275
q3 -104 84.5 -165t218.5 -61q126 0 195 51t69 142q0 65 -45 105.5t-166 66.5q-105 23 -155 35t-111 30.5t-107 38.5q-113 52 -170 131.5t-57 204.5q0 189 128 303.5t370 114.5q252 0 395 -123t151 -324z" />
    <glyph glyph-name="T" unicode="T" horiz-adv-x="1134" 
d="M702 0h-284v1122h-410v238h1106v-238h-412v-1122z" />
    <glyph glyph-name="T" unicode="&#x422;" horiz-adv-x="1134" 
d="M702 0h-284v1122h-410v238h1106v-238h-412v-1122z" />
    <glyph glyph-name="T" unicode="&#x3a4;" horiz-adv-x="1134" 
d="M702 0h-284v1122h-410v238h1106v-238h-412v-1122z" />
    <glyph glyph-name="U" unicode="U" horiz-adv-x="1200" 
d="M852 453v907h291v-907q0 -245 -145 -372.5t-414 -127.5q-254 0 -395.5 121.5t-141.5 361.5v924h289v-897q0 -127 64.5 -201t179.5 -74q272 0 272 265z" />
    <glyph glyph-name="V" unicode="V" horiz-adv-x="1214" 
d="M735 0h-268l-461 1360h303l297 -954l295 954h295z" />
    <glyph glyph-name="W" unicode="W" horiz-adv-x="1753" 
d="M1358 0h-275l-211 885l-215 -885h-266l-385 1360h303l223 -881l189 881h299l207 -881l221 881h291z" />
    <glyph glyph-name="X" unicode="X" horiz-adv-x="1239" 
d="M1221 0h-347l-260 467l-274 -467h-332l441 694l-416 666h336l245 -440l248 440h330l-414 -653z" />
    <glyph glyph-name="X" unicode="&#x425;" horiz-adv-x="1239" 
d="M1221 0h-347l-260 467l-274 -467h-332l441 694l-416 666h336l245 -440l248 440h330l-414 -653z" />
    <glyph glyph-name="X" unicode="&#x3a7;" horiz-adv-x="1239" 
d="M1221 0h-347l-260 467l-274 -467h-332l441 694l-416 666h336l245 -440l248 440h330l-414 -653z" />
    <glyph glyph-name="Y" unicode="Y" horiz-adv-x="1232" 
d="M762 0h-285v514l-471 846h332l287 -553l264 553h328l-455 -850v-510z" />
    <glyph glyph-name="Y" unicode="&#x4ae;" horiz-adv-x="1232" 
d="M762 0h-285v514l-471 846h332l287 -553l264 553h328l-455 -850v-510z" />
    <glyph glyph-name="Y" unicode="&#x3a5;" horiz-adv-x="1232" 
d="M762 0h-285v514l-471 846h332l287 -553l264 553h328l-455 -850v-510z" />
    <glyph glyph-name="Z" unicode="Z" horiz-adv-x="1089" 
d="M1071 0h-1063v242l707 880h-686v238h1042v-223l-711 -895h711v-242z" />
    <glyph glyph-name="Z" unicode="&#x396;" horiz-adv-x="1089" 
d="M1071 0h-1063v242l707 880h-686v238h1042v-223l-711 -895h711v-242z" />
    <glyph glyph-name="bracketleft" unicode="[" horiz-adv-x="653" 
d="M614 -266h-467v1739h467v-183h-231v-1378h231v-178z" />
    <glyph glyph-name="backslash" unicode="\" horiz-adv-x="602" 
d="M602 0h-219l-393 1360h223z" />
    <glyph glyph-name="bracketright" unicode="]" horiz-adv-x="647" 
d="M492 -266h-472v178h236v1378h-236v183h472v-1739z" />
    <glyph glyph-name="asciicircum" unicode="^" horiz-adv-x="940" 
d="M901 969h-285l-149 178l-154 -178h-282l338 391h190z" />
    <glyph glyph-name="underscore" unicode="_" horiz-adv-x="978" 
d="M993 -258h-993v119h993v-119z" />
    <glyph glyph-name="grave" unicode="`" horiz-adv-x="720" 
d="M559 1135l-457 192l97 168l424 -248z" />
    <glyph glyph-name="a" unicode="a" horiz-adv-x="995" 
d="M664 383l2 111q-35 -35 -172 -60q-113 -21 -157 -57t-44 -101q0 -112 129 -112q101 0 170.5 64.5t71.5 154.5zM932 0h-248q-13 40 -16 90q-49 -54 -128 -85.5t-178 -31.5q-166 0 -250.5 74.5t-84.5 202.5q0 61 12.5 109.5t31 82.5t55 60.5t68 42t88 29t96.5 20t111 16.5
q99 13 134.5 37.5t35.5 77.5q0 49 -45.5 76.5t-124.5 27.5q-162 0 -182 -149h-248q7 354 443 354q231 0 330.5 -99t99.5 -298v-637z" />
    <glyph glyph-name="a" unicode="&#x430;" horiz-adv-x="995" 
d="M664 383l2 111q-35 -35 -172 -60q-113 -21 -157 -57t-44 -101q0 -112 129 -112q101 0 170.5 64.5t71.5 154.5zM932 0h-248q-13 40 -16 90q-49 -54 -128 -85.5t-178 -31.5q-166 0 -250.5 74.5t-84.5 202.5q0 61 12.5 109.5t31 82.5t55 60.5t68 42t88 29t96.5 20t111 16.5
q99 13 134.5 37.5t35.5 77.5q0 49 -45.5 76.5t-124.5 27.5q-162 0 -182 -149h-248q7 354 443 354q231 0 330.5 -99t99.5 -298v-637z" />
    <glyph glyph-name="b" unicode="b" horiz-adv-x="1073" 
d="M530 190q100 0 164 85.5t64 220.5q0 311 -230 311q-223 0 -223 -328q0 -126 64.5 -207.5t160.5 -81.5zM309 0h-256v1376h262v-499q113 157 299 157q192 0 303 -143.5t111 -376.5q0 -251 -121 -396t-315 -145q-188 0 -281 150z" />
    <glyph glyph-name="c" unicode="c" horiz-adv-x="985" 
d="M692 365h269q-22 -174 -151 -283t-312 -109q-212 0 -337.5 140t-125.5 403q0 261 125 389.5t346 128.5q197 0 321 -104.5t136 -282.5h-269q-10 77 -62 121.5t-128 44.5q-93 0 -149 -68.5t-56 -222.5q0 -156 57 -240.5t140 -84.5q80 0 134.5 44t61.5 124z" />
    <glyph glyph-name="c" unicode="&#x441;" horiz-adv-x="985" 
d="M692 365h269q-22 -174 -151 -283t-312 -109q-212 0 -337.5 140t-125.5 403q0 261 125 389.5t346 128.5q197 0 321 -104.5t136 -282.5h-269q-10 77 -62 121.5t-128 44.5q-93 0 -149 -68.5t-56 -222.5q0 -156 57 -240.5t140 -84.5q80 0 134.5 44t61.5 124z" />
    <glyph glyph-name="d" unicode="d" horiz-adv-x="1071" 
d="M530 190q96 0 161 81.5t65 207.5q0 328 -224 328q-229 0 -229 -311q0 -135 63.5 -220.5t163.5 -85.5zM1008 0h-256l-2 123q-93 -150 -281 -150q-194 0 -315 145t-121 396q0 233 110.5 376.5t302.5 143.5q186 0 299 -157v499h263v-1376z" />
    <glyph glyph-name="e" unicode="e" 
d="M305 602h412q-3 106 -63 163.5t-144 57.5q-82 0 -140 -59.5t-65 -161.5zM991 434h-694q6 -114 66.5 -182t158.5 -68q66 0 116.5 30.5t63.5 82.5h275q-45 -154 -162.5 -239t-279.5 -85q-504 0 -504 549q0 236 129 374t358 138q233 0 353 -151t120 -449z" />
    <glyph glyph-name="e" unicode="&#x435;" 
d="M305 602h412q-3 106 -63 163.5t-144 57.5q-82 0 -140 -59.5t-65 -161.5zM991 434h-694q6 -114 66.5 -182t158.5 -68q66 0 116.5 30.5t63.5 82.5h275q-45 -154 -162.5 -239t-279.5 -85q-504 0 -504 549q0 236 129 374t358 138q233 0 353 -151t120 -449z" />
    <glyph glyph-name="f" unicode="f" horiz-adv-x="604" 
d="M420 0h-262v819h-150v189h150q0 368 428 368v-215q-100 0 -133 -32t-33 -121h172v-189h-172v-819z" />
    <glyph glyph-name="g" unicode="g" horiz-adv-x="1085" 
d="M537 201q99 0 163 76.5t64 201.5q0 324 -227 324q-228 0 -228 -307q0 -133 64 -214t164 -81zM756 -31v166q-27 -67 -102.5 -105t-174.5 -38q-97 0 -174 29t-127 77.5t-83.5 115.5t-47.5 140.5t-14 155.5q0 231 127 377.5t313 146.5q190 0 283 -151v125h266v-1018
q0 -147 -67.5 -254.5t-179.5 -160t-255 -52.5q-214 0 -350.5 115t-136.5 307h248q0 -90 60 -141.5t161 -51.5q108 0 181 59.5t73 157.5z" />
    <glyph glyph-name="h" unicode="h" 
d="M967 0h-269v625q0 112 -39.5 155t-132.5 43q-96 0 -151.5 -70t-55.5 -175v-578h-266v1376h266v-499q29 68 112.5 112.5t184.5 44.5q158 0 254.5 -86t96.5 -235v-713z" />
    <glyph glyph-name="h" unicode="&#x4bb;" 
d="M967 0h-269v625q0 112 -39.5 155t-132.5 43q-96 0 -151.5 -70t-55.5 -175v-578h-266v1376h266v-499q29 68 112.5 112.5t184.5 44.5q158 0 254.5 -86t96.5 -235v-713z" />
    <glyph glyph-name="i" unicode="i" horiz-adv-x="393" 
d="M326 0h-267v1008h267v-1008zM326 1128h-267v248h267v-248z" />
    <glyph glyph-name="i" unicode="&#x456;" horiz-adv-x="393" 
d="M326 0h-267v1008h267v-1008zM326 1128h-267v248h267v-248z" />
    <glyph glyph-name="j" unicode="j" horiz-adv-x="399" 
d="M53 -57v1065h269v-1076q0 -181 -113.5 -295t-284.5 -114q-202 0 -303.5 111t-101.5 311h250q0 -187 141 -187q76 0 109.5 47t33.5 138zM322 1128h-269v248h269v-248z" />
    <glyph glyph-name="j" unicode="&#x458;" horiz-adv-x="399" 
d="M53 -57v1065h269v-1076q0 -181 -113.5 -295t-284.5 -114q-202 0 -303.5 111t-101.5 311h250q0 -187 141 -187q76 0 109.5 47t33.5 138zM322 1128h-269v248h269v-248z" />
    <glyph glyph-name="k" unicode="k" horiz-adv-x="989" 
d="M971 0h-299l-221 453l-129 -134v-319h-269v1376h269v-751l331 383h326l-338 -371z" />
    <glyph glyph-name="l" unicode="l" horiz-adv-x="378" 
d="M319 0h-266v1376h266v-1376z" />
    <glyph glyph-name="m" unicode="m" horiz-adv-x="1544" 
d="M1495 0h-260v610q0 91 -44 149t-114 58q-73 0 -121.5 -61.5t-48.5 -153.5v-602h-266v606q0 119 -35 161t-125 42q-162 0 -162 -197v-612h-266v1008h250v-148q49 96 119.5 135t175.5 39q101 0 161 -35t120 -125q79 160 272 160q150 0 247 -96.5t97 -239.5v-698z" />
    <glyph glyph-name="n" unicode="n" 
d="M967 0h-269v610q0 115 -37.5 157t-134.5 42q-207 0 -207 -231v-578h-266v1008h254v-148q94 174 326 174q149 0 241.5 -88t92.5 -248v-698z" />
    <glyph glyph-name="o" unicode="o" horiz-adv-x="1103" 
d="M549 197q244 0 244 307q0 305 -244 305t-244 -305q0 -307 244 -307zM549 -27q-241 0 -379.5 146t-138.5 385q0 241 140 385.5t378 144.5q236 0 374 -144t138 -386q0 -240 -139 -385.5t-373 -145.5z" />
    <glyph glyph-name="o" unicode="&#x43e;" horiz-adv-x="1103" 
d="M549 197q244 0 244 307q0 305 -244 305t-244 -305q0 -307 244 -307zM549 -27q-241 0 -379.5 146t-138.5 385q0 241 140 385.5t378 144.5q236 0 374 -144t138 -386q0 -240 -139 -385.5t-373 -145.5z" />
    <glyph glyph-name="o" unicode="&#x3bf;" horiz-adv-x="1103" 
d="M549 197q244 0 244 307q0 305 -244 305t-244 -305q0 -307 244 -307zM549 -27q-241 0 -379.5 146t-138.5 385q0 241 140 385.5t378 144.5q236 0 374 -144t138 -386q0 -240 -139 -385.5t-373 -145.5z" />
    <glyph glyph-name="p" unicode="p" horiz-adv-x="1071" 
d="M528 201q230 0 230 311q0 135 -64 220t-164 85q-96 0 -160.5 -81.5t-64.5 -207.5q0 -327 223 -327zM315 -477h-262v1485h256l2 -123q92 149 281 149q194 0 315 -144.5t121 -395.5q0 -233 -111 -377t-303 -144q-186 0 -299 158v-608z" />
    <glyph glyph-name="p" unicode="&#x440;" horiz-adv-x="1071" 
d="M528 201q230 0 230 311q0 135 -64 220t-164 85q-96 0 -160.5 -81.5t-64.5 -207.5q0 -327 223 -327zM315 -477h-262v1485h256l2 -123q92 149 281 149q194 0 315 -144.5t121 -395.5q0 -233 -111 -377t-303 -144q-186 0 -299 158v-608z" />
    <glyph glyph-name="q" unicode="q" horiz-adv-x="1050" 
d="M1255 -55h250q0 -191 -108.5 -306.5t-274.5 -115.5q-165 0 -273 117.5t-108 302.5v182q-113 -152 -295 -152q-192 0 -302.5 144t-110.5 377q0 251 121 395.5t315 144.5q189 0 281 -149l2 123h256v-1067q0 -99 32.5 -141t98.5 -42q59 0 87.5 44.5t28.5 142.5zM532 201
q224 0 224 327q0 126 -65 207.5t-161 81.5q-100 0 -163.5 -85t-63.5 -220q0 -311 229 -311z" />
    <glyph glyph-name="r" unicode="r" horiz-adv-x="657" 
d="M319 0h-266v1008h250v-121q32 49 67.5 80t76 44.5t74 18t81.5 4.5h35v-272q-38 6 -74 6q-244 0 -244 -244v-524z" />
    <glyph glyph-name="s" unicode="s" horiz-adv-x="966" 
d="M915 702h-256q-10 73 -53.5 103.5t-134.5 30.5q-158 0 -158 -84q0 -42 37.5 -66t126.5 -49q40 -12 106 -28.5t113 -30t82 -27.5q83 -34 124.5 -91.5t41.5 -152.5q0 -158 -113.5 -246t-326.5 -88q-227 0 -355 96.5t-131 254.5h275q0 -70 56 -110t153 -40q77 0 127.5 25.5
t50.5 79.5q0 26 -12 45t-38 32t-49.5 20.5t-62.5 16.5q-134 32 -209 57.5t-127 57.5q-127 80 -127 227q0 137 102.5 218t321.5 81q215 0 320 -83t116 -249z" />
    <glyph glyph-name="s" unicode="&#x455;" horiz-adv-x="966" 
d="M915 702h-256q-10 73 -53.5 103.5t-134.5 30.5q-158 0 -158 -84q0 -42 37.5 -66t126.5 -49q40 -12 106 -28.5t113 -30t82 -27.5q83 -34 124.5 -91.5t41.5 -152.5q0 -158 -113.5 -246t-326.5 -88q-227 0 -355 96.5t-131 254.5h275q0 -70 56 -110t153 -40q77 0 127.5 25.5
t50.5 79.5q0 26 -12 45t-38 32t-49.5 20.5t-62.5 16.5q-134 32 -209 57.5t-127 57.5q-127 80 -127 227q0 137 102.5 218t321.5 81q215 0 320 -83t116 -249z" />
    <glyph glyph-name="t" unicode="t" horiz-adv-x="927" 
d="M625 401v263h247v-287q0 -82 -24 -153.5t-72 -128t-128 -89.5t-183 -33q-107 0 -188 32.5t-129 89.5t-71.5 128.5t-23.5 155.5v901h262v-272h557v-189h-557v-413q0 -201 154 -201q156 0 156 196z" />
    <glyph glyph-name="u" unicode="u" horiz-adv-x="1024" 
d="M961 0h-252v141q-102 -168 -314 -168q-151 0 -246.5 103t-95.5 268v664h266v-623q0 -188 170 -188q99 0 153 63t54 166v582h265v-1008z" />
    <glyph glyph-name="v" unicode="v" horiz-adv-x="1026" 
d="M645 0h-278l-361 1008h297l211 -666l213 666h281z" />
    <glyph glyph-name="v" unicode="&#x3bd;" horiz-adv-x="1026" 
d="M645 0h-278l-361 1008h297l211 -666l213 666h281z" />
    <glyph glyph-name="w" unicode="w" horiz-adv-x="1462" 
d="M1157 0h-272l-160 586l-160 -586h-272l-287 1008h281l164 -648l139 648h270l158 -648l153 648h275z" />
    <glyph glyph-name="x" unicode="x" horiz-adv-x="1015" 
d="M999 0h-325l-176 303l-172 -303h-320l338 514l-328 494h322l170 -293l172 293h309l-334 -494z" />
    <glyph glyph-name="x" unicode="&#x445;" horiz-adv-x="1015" 
d="M999 0h-325l-176 303l-172 -303h-320l338 514l-328 494h322l170 -293l172 293h309l-334 -494z" />
    <glyph glyph-name="y" unicode="y" horiz-adv-x="1028" 
d="M694 -31v164q-27 -66 -102 -104.5t-170 -38.5q-161 0 -265 100.5t-104 263.5v654h266v-615q0 -188 170 -188q90 0 147.5 53t57.5 135v615h267v-1035q0 -139 -62.5 -242.5t-166.5 -155.5t-234 -52q-217 0 -331 111.5t-114 310.5h248q0 -91 53.5 -142t155.5 -51
q75 0 129.5 60.5t54.5 156.5z" />
    <glyph glyph-name="y" unicode="&#x443;" horiz-adv-x="1028" 
d="M694 -31v164q-27 -66 -102 -104.5t-170 -38.5q-161 0 -265 100.5t-104 263.5v654h266v-615q0 -188 170 -188q90 0 147.5 53t57.5 135v615h267v-1035q0 -139 -62.5 -242.5t-166.5 -155.5t-234 -52q-217 0 -331 111.5t-114 310.5h248q0 -91 53.5 -142t155.5 -51
q75 0 129.5 60.5t54.5 156.5z" />
    <glyph glyph-name="z" unicode="z" horiz-adv-x="911" 
d="M887 0h-869v205l514 592h-479v211h819v-215l-514 -576h529v-217z" />
    <glyph glyph-name="braceleft" unicode="{" horiz-adv-x="684" 
d="M643 -268h-76q-89 0 -150.5 13t-100.5 37t-60.5 65.5t-29 89.5t-7.5 118q0 25 5 127t5 121q0 119 -36.5 166t-131.5 47v176q95 0 131.5 48t36.5 167q0 19 -5 119t-5 125q0 58 5 100t19 81t38.5 63.5t63 43.5t93.5 27.5t129 8.5h76v-168h-45q-88 0 -121 -28t-33 -101
q0 -62 6.5 -183t6.5 -182q0 -83 -64.5 -140.5t-154.5 -68.5q90 -11 154.5 -68.5t64.5 -140.5q0 -61 -6.5 -183t-6.5 -183q0 -73 33 -101t121 -28h45v-168z" />
    <glyph glyph-name="bar" unicode="|" horiz-adv-x="692" 
d="M446 -256h-208v1763h208v-1763z" />
    <glyph glyph-name="braceright" unicode="}" horiz-adv-x="675" 
d="M96 -268h-76v168h46q88 0 120.5 28t32.5 101q0 62 -6 183.5t-6 182.5q0 83 64.5 140.5t154.5 68.5q-90 11 -154.5 68.5t-64.5 140.5q0 61 6 182t6 183q0 73 -32.5 101t-120.5 28h-46v168h76q74 0 129 -8.5t93.5 -27.5t63 -43.5t38.5 -63.5t19 -81t5 -100q0 -25 -5 -125
t-5 -119q0 -119 36.5 -167t131.5 -48v-176q-95 0 -131.5 -47t-36.5 -166q0 -19 5 -121t5 -127q0 -70 -7.5 -118t-29 -89.5t-60.5 -65.5t-100.5 -37t-150.5 -13z" />
    <glyph glyph-name="asciitilde" unicode="~" horiz-adv-x="1136" 
d="M1075 831v-206q-65 -71 -137.5 -104.5t-165.5 -33.5q-55 0 -118 18.5t-111 41t-107 41t-106 18.5q-83 0 -149.5 -37.5t-129.5 -117.5v206q116 138 271 138q84 0 171 -29.5t161.5 -58.5t129.5 -29q89 0 159.5 35.5t131.5 117.5z" />
    <glyph glyph-name="uni00A0" unicode="&#xa0;" horiz-adv-x="493" 
 />
    <glyph glyph-name="exclamdown" unicode="&#xa1;" horiz-adv-x="501" 
d="M119 1360h276v-268h-276v268zM184 983h142q80 -492 80 -838q0 -100 -11 -145h-282q-9 101 -9 152q0 339 80 831z" />
    <glyph glyph-name="cent" unicode="&#xa2;" horiz-adv-x="985" 
d="M551 0h-96v143q-195 14 -307.5 152.5t-112.5 390.5q0 246 111 375t309 143v156h96v-156q178 -12 289 -115t123 -270h-269q-9 64 -47 105.5t-96 52.5v-606q59 14 97 57t44 107h269q-20 -161 -133.5 -268t-276.5 -122v-145zM455 371v608q-72 -14 -114 -84t-42 -203
q0 -138 43 -219.5t113 -101.5z" />
    <glyph glyph-name="sterling" unicode="&#xa3;" horiz-adv-x="987" 
d="M932 0h-879v991q0 191 115.5 302.5t331.5 111.5q103 0 178.5 -20t134 -66.5t88 -129t29.5 -202.5v-158h-268v156q0 100 -33 143t-129 43q-97 0 -129.5 -42t-32.5 -142v-272h594v-168h-594v-299h594v-248z" />
    <glyph glyph-name="currency" unicode="&#xa4;" horiz-adv-x="1093" 
d="M907 197l-129 139q-109 -66 -229 -66q-124 0 -230 66l-129 -139l-147 147l139 129q-65 105 -65 229q0 122 65 230l-137 127l145 145l125 -135q108 68 234 68q123 0 231 -68l125 135l146 -145l-136 -125q68 -108 68 -232q0 -127 -68 -231l138 -127zM852 702
q0 126 -88.5 215t-214.5 89t-213.5 -89t-87.5 -215t87.5 -213.5t213.5 -87.5t214.5 87.5t88.5 213.5z" />
    <glyph glyph-name="yen" unicode="&#xa5;" horiz-adv-x="1093" 
d="M950 164h-297v-164h-221v164h-297v155h297v125h-297v154h297v135l-397 627h239l267 -449l268 449h238l-394 -627v-135h297v-154h-297v-125h297v-155z" />
    <glyph glyph-name="brokenbar" unicode="&#xa6;" horiz-adv-x="692" 
d="M446 -256h-208v842h208v-842zM446 1507v-813h-208v813h208z" />
    <glyph glyph-name="section" unicode="&#xa7;" horiz-adv-x="1095" 
d="M973 1008h-228q-9 89 -64.5 131.5t-164.5 42.5q-205 0 -205 -140q0 -50 42.5 -83.5t135.5 -55.5q230 -55 340 -100q88 -38 134.5 -104t46.5 -193q0 -133 -92 -225q75 -72 75 -230q0 -106 -59 -185.5t-156 -119t-217 -39.5q-498 0 -510 383h232q1 -86 70 -138t175 -52
q112 0 172 41t60 112q0 61 -36.5 96.5t-139.5 57.5q-83 18 -141 32.5t-114.5 33.5t-93.5 40t-69.5 48t-50 60t-27.5 75t-10 94q0 143 94 231q-80 80 -80 223q0 150 109.5 245t314.5 95q206 0 328.5 -102.5t128.5 -273.5zM705 389q71 39 71 119q0 61 -36.5 96.5t-141.5 57.5
q-82 16 -205 53q-96 -30 -96 -127q0 -50 42 -83t134 -56q194 -49 232 -60z" />
    <glyph glyph-name="dieresis" unicode="&#xa8;" horiz-adv-x="862" 
d="M369 1186h-267v254h267v-254zM778 1186h-266v254h266v-254z" />
    <glyph glyph-name="copyright" unicode="&#xa9;" horiz-adv-x="1378" 
d="M682 -18q-176 0 -326 94t-237.5 255.5t-87.5 350.5t87.5 350t237.5 254.5t326 93.5q177 0 327 -93.5t237 -254.5t87 -350t-87 -350.5t-237 -255.5t-327 -94zM686 90q148 0 275 78.5t201.5 214.5t74.5 297q0 159 -74.5 295.5t-201.5 216.5t-275 80q-150 0 -276.5 -80
t-199.5 -216t-73 -296q0 -161 73 -297t199.5 -214.5t276.5 -78.5zM944 756h-145q-7 37 -35 59.5t-64 22.5q-50 0 -81 -42.5t-31 -107.5q0 -168 108 -168q39 0 67.5 24.5t31.5 65.5h147q-10 -91 -81 -149t-171 -58q-120 0 -186 72t-66 197q0 136 66.5 210t191.5 74
q106 0 174 -54.5t74 -145.5z" />
    <glyph glyph-name="ordfeminine" unicode="&#xaa;" horiz-adv-x="671" 
d="M426 825l2 62q-15 -17 -51.5 -27.5t-69 -16t-58.5 -24.5t-26 -53q0 -61 70 -61q57 0 94 34.5t39 85.5zM573 614h-135q-7 23 -10 50q-57 -64 -168 -64q-91 0 -137.5 41t-46.5 111q0 34 7 60.5t17 45t30 33t37.5 23.5t48.5 16t53 11t61 9q55 7 74.5 20.5t19.5 43.5
q0 26 -25.5 41.5t-68.5 15.5q-88 0 -101 -82h-135q3 195 244 195q127 0 181 -55t54 -164v-351z" />
    <glyph glyph-name="guillemotleft" unicode="&#xab;" horiz-adv-x="952" 
d="M795 297l-293 352l293 357l129 -140l-193 -217l193 -215zM319 297l-292 352l292 357l130 -140l-193 -217l193 -215z" />
    <glyph glyph-name="logicalnot" unicode="&#xac;" horiz-adv-x="1206" 
d="M1143 0h-242v766h-850v242h1092v-1008z" />
    <glyph glyph-name="registered" unicode="&#xae;" horiz-adv-x="929" 
d="M870 1012q0 -163 -115 -277t-278 -114t-277 114t-114 277t114 278t277 115t278 -115t115 -278zM807 1012q0 136 -96.5 232.5t-233.5 96.5t-233.5 -96.5t-96.5 -232.5t96.5 -233t233.5 -97t233.5 97t96.5 233zM514 1147h-96v-96h94q55 0 55 47q0 49 -53 49zM627 850h-74
v92q0 27 -11.5 38t-43.5 11h-80v-141h-74v358h182q50 0 80.5 -29.5t30.5 -74.5q0 -29 -14 -51t-39 -31q24 -7 33.5 -23t9.5 -47v-102z" />
    <glyph glyph-name="macron" unicode="&#xaf;" horiz-adv-x="978" 
d="M883 1233h-781v186h781v-186z" />
    <glyph glyph-name="degree" unicode="&#xb0;" horiz-adv-x="768" 
d="M375 727q-157 0 -233 90.5t-76 235.5q0 146 75.5 234.5t233.5 88.5t234.5 -88.5t76.5 -234.5q0 -145 -77 -235.5t-234 -90.5zM375 856q87 0 128.5 55t41.5 144q0 88 -41.5 142t-128.5 54t-128.5 -54t-41.5 -142q0 -89 41.5 -144t128.5 -55z" />
    <glyph glyph-name="plusminus" unicode="&#xb1;" horiz-adv-x="1071" 
d="M625 219h-193v387h-385v193h385v385h193v-385h387v-193h-387v-387zM1012 -53h-965v192h965v-192z" />
    <glyph glyph-name="twosuperior" unicode="&#xb2;" horiz-adv-x="536" 
d="M498 702h-463q0 102 41 176t164 162q73 53 99 86.5t26 75.5q0 88 -95 88q-47 0 -72.5 -27.5t-25.5 -93.5h-129q0 111 58.5 173.5t162.5 62.5q106 0 169 -51t63 -148q0 -76 -42.5 -131.5t-154.5 -134.5q-40 -30 -66.5 -63.5t-27.5 -59.5h293v-115z" />
    <glyph glyph-name="threesuperior" unicode="&#xb3;" horiz-adv-x="550" 
d="M219 1008v92q79 0 108 25t29 69q0 104 -88 104q-40 0 -65 -29.5t-25 -82.5h-123q0 98 61 158.5t158 60.5q89 0 150 -52t61 -134q0 -48 -20.5 -89t-58.5 -63q100 -43 100 -168q0 -102 -66 -161.5t-174 -59.5q-105 0 -164 60t-59 163h129q0 -113 100 -113q43 0 71 30.5
t28 82.5q0 60 -34 83.5t-118 23.5z" />
    <glyph glyph-name="acute" unicode="&#xb4;" horiz-adv-x="720" 
d="M623 1327l-457 -192l-64 112l424 248z" />
    <glyph glyph-name="paragraph" unicode="&#xb6;" horiz-adv-x="1185" 
d="M1057 -205h-221v1426h-332v-1426h-223v1155q-119 18 -172.5 78t-53.5 143q0 103 85 168.5t253 65.5h762l-98 -186v-1424z" />
    <glyph glyph-name="periodcentered" unicode="&#xb7;" horiz-adv-x="382" 
d="M332 543h-285v276h285v-276z" />
    <glyph glyph-name="cedilla" unicode="&#xb8;" horiz-adv-x="423" 
d="M102 -477v88q63 4 96 38.5t35 94.5h-131v168h236v-111q0 -121 -54 -194t-182 -84z" />
    <glyph glyph-name="onesuperior" unicode="&#xb9;" horiz-adv-x="364" 
d="M307 702h-133v469h-139v93q85 0 121.5 28t42.5 90h108v-680z" />
    <glyph glyph-name="ordmasculine" unicode="&#xba;" horiz-adv-x="729" 
d="M362 723q136 0 136 168t-136 168q-133 0 -133 -168t133 -168zM362 600q-132 0 -208 80t-76 211q0 133 77 213t207 80t206.5 -79.5t76.5 -213.5q0 -131 -76.5 -211t-206.5 -80z" />
    <glyph glyph-name="guillemotright" unicode="&#xbb;" horiz-adv-x="952" 
d="M631 297l-129 137l192 215l-192 217l129 140l293 -357zM156 297l-129 137l192 215l-192 217l129 140l293 -357z" />
    <glyph glyph-name="onequarter" unicode="&#xbc;" horiz-adv-x="1259" 
d="M311 702h-133v469h-139v93q85 0 121.5 28t42.5 90h108v-680zM199 -41h-138l945 1442h139zM1151 -20h-133v147h-264v117l247 415h150v-428h76v-104h-76v-147zM1020 231v240l-139 -240h139z" />
    <glyph glyph-name="onehalf" unicode="&#xbd;" horiz-adv-x="1275" 
d="M190 -41h-137l944 1442h140zM311 702h-133v469h-139v93q85 0 121.5 28t42.5 90h108v-680zM1243 -20h-463q0 102 41 175t164 162q73 53 99 86.5t26 75.5q0 88 -94 88q-47 0 -72.5 -27.5t-25.5 -93.5h-130q0 110 59 173t163 63q106 0 168.5 -51t62.5 -148
q0 -76 -42.5 -131.5t-154.5 -134.5q-40 -30 -66.5 -63.5t-27.5 -59.5h293v-114z" />
    <glyph glyph-name="threequarters" unicode="&#xbe;" horiz-adv-x="1296" 
d="M215 1008v92q79 0 108 25t29 69q0 104 -88 104q-40 0 -65 -29.5t-25 -82.5h-123q0 98 61 158.5t158 60.5q89 0 150 -52t61 -134q0 -47 -20.5 -88t-59.5 -64q101 -43 101 -168q0 -102 -66 -161.5t-174 -59.5q-105 0 -164 60t-59 163h129q0 -113 100 -113q43 0 71 30.5
t28 82.5q0 60 -34 83.5t-118 23.5zM264 -41h-137l944 1442h139zM1186 -20h-133v147h-265v117l248 415h150v-428h76v-104h-76v-147zM1055 231v240l-140 -240h140z" />
    <glyph glyph-name="questiondown" unicode="&#xbf;" horiz-adv-x="1005" 
d="M362 1360h277v-268h-277v268zM381 965h250q0 -124 -19 -197t-71 -133q-25 -29 -68.5 -63t-73.5 -57.5t-53.5 -66t-23.5 -96.5q0 -94 52 -137t134 -43q102 0 146 55.5t55 167.5h264q0 -201 -126 -320.5t-333 -119.5q-477 0 -477 383q0 65 12.5 114t42 90.5t63 72.5
t89.5 73q86 64 111.5 121.5t25.5 155.5z" />
    <glyph glyph-name="Agrave" unicode="&#xc0;" horiz-adv-x="1316" 
d="M823 514l-170 541h-2l-174 -541h346zM1300 0h-309l-86 281h-502l-96 -281h-301l486 1360h329zM797 1487l-457 192l96 168l424 -248z" />
    <glyph glyph-name="Aacute" unicode="&#xc1;" horiz-adv-x="1316" 
d="M823 514l-170 541h-2l-174 -541h346zM1300 0h-309l-86 281h-502l-96 -281h-301l486 1360h329zM983 1679l-457 -192l-63 112l424 248z" />
    <glyph glyph-name="Acircumflex" unicode="&#xc2;" horiz-adv-x="1316" 
d="M823 514l-170 541h-2l-174 -541h346zM1300 0h-309l-86 281h-502l-96 -281h-301l486 1360h329zM936 1501l-277 242l-276 -242l-94 105l262 274h217l262 -274z" />
    <glyph glyph-name="Atilde" unicode="&#xc3;" horiz-adv-x="1316" 
d="M823 514l-170 541h-2l-174 -541h346zM1300 0h-309l-86 281h-502l-96 -281h-301l486 1360h329zM860 1788l154 -55q-32 -104 -91.5 -152.5t-131.5 -48.5q-44 0 -91 23t-91.5 46t-80.5 23q-18 0 -40.5 -20t-38.5 -70l-142 76q58 180 199 180q53 0 104.5 -24.5t94 -49
t73.5 -24.5q24 0 49 23.5t33 72.5z" />
    <glyph glyph-name="Adieresis" unicode="&#xc4;" horiz-adv-x="1316" 
d="M823 514l-170 541h-2l-174 -541h346zM1300 0h-309l-86 281h-502l-96 -281h-301l486 1360h329zM596 1538h-266v254h266v-254zM1006 1538h-267v254h267v-254z" />
    <glyph glyph-name="Aring" unicode="&#xc5;" horiz-adv-x="1316" 
d="M823 514l-170 541h-2l-174 -541h346zM1300 0h-309l-86 281h-502l-96 -281h-301l486 1360h329zM872 1683q0 -98 -51 -147t-162 -49q-213 0 -213 196q0 95 53.5 146t159.5 51q213 0 213 -197zM766 1683q0 105 -107 105q-102 0 -102 -105q0 -100 102 -100q107 0 107 100z
" />
    <glyph glyph-name="AE" unicode="&#xc6;" horiz-adv-x="1812" 
d="M1804 0h-1038v281h-363l-96 -281h-301l486 1360h1280v-238h-723v-291h665v-239h-665v-350h755v-242zM766 514v608h-90l-199 -608h289z" />
    <glyph glyph-name="Ccedilla" unicode="&#xc7;" horiz-adv-x="1255" 
d="M961 467h284q-43 -236 -198 -375t-388 -139q-135 0 -248.5 46t-198.5 133.5t-133 224t-48 307.5q0 345 170 543t463 198q247 0 403.5 -139.5t177.5 -352.5h-284q-29 114 -110.5 180t-184.5 66q-173 0 -260 -125.5t-87 -353.5q0 -229 84.5 -354t247.5 -125q124 0 202 68.5
t108 197.5zM549 -477v88q63 4 96 38.5t35 94.5h-131v168h235v-111q0 -121 -53.5 -194t-181.5 -84z" />
    <glyph glyph-name="Egrave" unicode="&#xc8;" horiz-adv-x="1089" 
d="M1079 0h-1032v1360h1000v-238h-723v-291h665v-239h-665v-350h755v-242zM682 1487l-457 192l97 168l423 -248z" />
    <glyph glyph-name="Egrave" unicode="&#x400;" horiz-adv-x="1089" 
d="M1079 0h-1032v1360h1000v-238h-723v-291h665v-239h-665v-350h755v-242zM682 1487l-457 192l97 168l423 -248z" />
    <glyph glyph-name="Eacute" unicode="&#xc9;" horiz-adv-x="1089" 
d="M1079 0h-1032v1360h1000v-238h-723v-291h665v-239h-665v-350h755v-242zM868 1679l-456 -192l-64 112l424 248z" />
    <glyph glyph-name="Ecircumflex" unicode="&#xca;" horiz-adv-x="1089" 
d="M1079 0h-1032v1360h1000v-238h-723v-291h665v-239h-665v-350h755v-242zM844 1501l-277 242l-276 -242l-94 105l262 274h217l262 -274z" />
    <glyph glyph-name="Edieresis" unicode="&#xcb;" horiz-adv-x="1089" 
d="M1079 0h-1032v1360h1000v-238h-723v-291h665v-239h-665v-350h755v-242zM500 1538h-267v254h267v-254zM909 1538h-266v254h266v-254z" />
    <glyph glyph-name="Edieresis" unicode="&#x401;" horiz-adv-x="1089" 
d="M1079 0h-1032v1360h1000v-238h-723v-291h665v-239h-665v-350h755v-242zM500 1538h-267v254h267v-254zM909 1538h-266v254h266v-254z" />
    <glyph glyph-name="Igrave" unicode="&#xcc;" horiz-adv-x="382" 
d="M332 0h-285v1360h285v-1360zM330 1487l-457 192l96 168l424 -248z" />
    <glyph glyph-name="Iacute" unicode="&#xcd;" horiz-adv-x="382" 
d="M332 0h-285v1360h285v-1360zM516 1679l-457 -192l-63 112l424 248z" />
    <glyph glyph-name="Icircumflex" unicode="&#xce;" horiz-adv-x="382" 
d="M332 0h-285v1360h285v-1360zM471 1501l-276 242l-277 -242l-94 105l262 274h217l262 -274z" />
    <glyph glyph-name="Idieresis" unicode="&#xcf;" horiz-adv-x="382" 
d="M332 0h-285v1360h285v-1360zM131 1538h-266v254h266v-254zM541 1538h-267v254h267v-254z" />
    <glyph glyph-name="Idieresis" unicode="&#x407;" horiz-adv-x="382" 
d="M332 0h-285v1360h285v-1360zM131 1538h-266v254h266v-254zM541 1538h-267v254h267v-254z" />
    <glyph glyph-name="Idieresis" unicode="&#x3aa;" horiz-adv-x="382" 
d="M332 0h-285v1360h285v-1360zM131 1538h-266v254h266v-254zM541 1538h-267v254h267v-254z" />
    <glyph glyph-name="Eth" unicode="&#xd0;" horiz-adv-x="1243" 
d="M616 0h-569v578h-47v202h47v580h526q281 0 456 -180t175 -486q0 -154 -42.5 -283t-119 -219.5t-186.5 -141t-240 -50.5zM324 231h235q184 0 269 114.5t85 348.5q0 231 -87 330.5t-291 99.5h-211v-344h219v-202h-219v-347z" />
    <glyph glyph-name="Eth" unicode="&#x110;" horiz-adv-x="1243" 
d="M616 0h-569v578h-47v202h47v580h526q281 0 456 -180t175 -486q0 -154 -42.5 -283t-119 -219.5t-186.5 -141t-240 -50.5zM324 231h235q184 0 269 114.5t85 348.5q0 231 -87 330.5t-291 99.5h-211v-344h219v-202h-219v-347z" />
    <glyph glyph-name="Ntilde" unicode="&#xd1;" horiz-adv-x="1210" 
d="M1155 0h-262l-582 913v-913h-264v1360h301l541 -875v875h266v-1360zM807 1788l154 -55q-32 -104 -92 -152.5t-132 -48.5q-44 0 -91 23t-91 46t-80 23q-18 0 -41 -20t-39 -70l-141 76q58 180 199 180q53 0 104.5 -24.5t94 -49t73.5 -24.5q24 0 49 23.5t33 72.5z" />
    <glyph glyph-name="Ograve" unicode="&#xd2;" horiz-adv-x="1372" 
d="M684 197q163 0 266 117.5t103 347.5q0 241 -95 366t-274 125q-181 0 -277 -125.5t-96 -365.5q0 -465 373 -465zM684 -47q-314 0 -483.5 185.5t-169.5 529.5q0 348 170.5 542.5t482.5 194.5t480.5 -195.5t168.5 -547.5q0 -348 -167 -528.5t-482 -180.5zM823 1487l-456 192
l96 168l424 -248z" />
    <glyph glyph-name="Oacute" unicode="&#xd3;" horiz-adv-x="1372" 
d="M684 197q163 0 266 117.5t103 347.5q0 241 -95 366t-274 125q-181 0 -277 -125.5t-96 -365.5q0 -465 373 -465zM684 -47q-314 0 -483.5 185.5t-169.5 529.5q0 348 170.5 542.5t482.5 194.5t480.5 -195.5t168.5 -547.5q0 -348 -167 -528.5t-482 -180.5zM1010 1679
l-457 -192l-64 112l424 248z" />
    <glyph glyph-name="Ocircumflex" unicode="&#xd4;" horiz-adv-x="1372" 
d="M684 197q163 0 266 117.5t103 347.5q0 241 -95 366t-274 125q-181 0 -277 -125.5t-96 -365.5q0 -465 373 -465zM684 -47q-314 0 -483.5 185.5t-169.5 529.5q0 348 170.5 542.5t482.5 194.5t480.5 -195.5t168.5 -547.5q0 -348 -167 -528.5t-482 -180.5zM965 1501l-277 242
l-276 -242l-95 105l263 274h217l262 -274z" />
    <glyph glyph-name="Otilde" unicode="&#xd5;" horiz-adv-x="1372" 
d="M684 197q163 0 266 117.5t103 347.5q0 241 -95 366t-274 125q-181 0 -277 -125.5t-96 -365.5q0 -465 373 -465zM684 -47q-314 0 -483.5 185.5t-169.5 529.5q0 348 170.5 542.5t482.5 194.5t480.5 -195.5t168.5 -547.5q0 -348 -167 -528.5t-482 -180.5zM883 1784l153 -55
q-32 -104 -91.5 -152.5t-131.5 -48.5q-44 0 -91 23t-91 46t-80 23q-18 0 -41 -20t-39 -70l-141 76q58 180 198 180q42 0 84 -15.5t70 -33.5t60.5 -33.5t58.5 -15.5q24 0 49 23.5t33 72.5z" />
    <glyph glyph-name="Odieresis" unicode="&#xd6;" horiz-adv-x="1372" 
d="M684 197q163 0 266 117.5t103 347.5q0 241 -95 366t-274 125q-181 0 -277 -125.5t-96 -365.5q0 -465 373 -465zM684 -47q-314 0 -483.5 185.5t-169.5 529.5q0 348 170.5 542.5t482.5 194.5t480.5 -195.5t168.5 -547.5q0 -348 -167 -528.5t-482 -180.5zM625 1538h-267v254
h267v-254zM1034 1538h-266v254h266v-254z" />
    <glyph glyph-name="multiply" unicode="&#xd7;" horiz-adv-x="1071" 
d="M936 428l-135 -135l-275 272l-272 -272l-135 137l272 272l-272 273l135 135l272 -272l275 274l135 -137l-272 -273z" />
    <glyph glyph-name="Oslash" unicode="&#xd8;" horiz-adv-x="1372" 
d="M371 -84l-144 55l49 99q-245 182 -245 598q0 348 170.5 542.5t482.5 194.5q129 0 244 -39l49 98l151 -55l-57 -115q128 -91 195 -252t67 -380q0 -348 -167 -528.5t-482 -180.5q-148 0 -272 45zM944 1044l-418 -821q65 -26 158 -26q163 0 266 117.5t103 347.5
q0 258 -109 382zM401 319l410 814q-65 20 -127 20q-181 0 -277 -125.5t-96 -365.5q0 -227 90 -343z" />
    <glyph glyph-name="Ugrave" unicode="&#xd9;" horiz-adv-x="1200" 
d="M852 453v907h291v-907q0 -245 -145 -372.5t-414 -127.5q-254 0 -395.5 121.5t-141.5 361.5v924h289v-897q0 -127 64.5 -201t179.5 -74q272 0 272 265zM737 1487l-456 192l96 168l424 -248z" />
    <glyph glyph-name="Uacute" unicode="&#xda;" horiz-adv-x="1200" 
d="M852 453v907h291v-907q0 -245 -145 -372.5t-414 -127.5q-254 0 -395.5 121.5t-141.5 361.5v924h289v-897q0 -127 64.5 -201t179.5 -74q272 0 272 265zM924 1679l-457 -192l-64 112l424 248z" />
    <glyph glyph-name="Ucircumflex" unicode="&#xdb;" horiz-adv-x="1200" 
d="M852 453v907h291v-907q0 -245 -145 -372.5t-414 -127.5q-254 0 -395.5 121.5t-141.5 361.5v924h289v-897q0 -127 64.5 -201t179.5 -74q272 0 272 265zM879 1501l-277 242l-276 -242l-95 105l263 274h217l262 -274z" />
    <glyph glyph-name="Udieresis" unicode="&#xdc;" horiz-adv-x="1200" 
d="M852 453v907h291v-907q0 -245 -145 -372.5t-414 -127.5q-254 0 -395.5 121.5t-141.5 361.5v924h289v-897q0 -127 64.5 -201t179.5 -74q272 0 272 265zM537 1538h-267v254h267v-254zM946 1538h-266v254h266v-254z" />
    <glyph glyph-name="Yacute" unicode="&#xdd;" horiz-adv-x="1232" 
d="M762 0h-285v514l-471 846h332l287 -553l264 553h328l-455 -850v-510zM954 1679l-456 -192l-64 112l424 248z" />
    <glyph glyph-name="Thorn" unicode="&#xde;" horiz-adv-x="1093" 
d="M332 514h270q100 0 166 57t66 144q0 86 -64 141t-168 55h-270v-397zM664 281h-332v-281h-285v1360h285v-211h342q117 0 211.5 -59t146 -159.5t51.5 -221.5q0 -187 -116.5 -307.5t-302.5 -120.5z" />
    <glyph glyph-name="germandbls" unicode="&#xdf;" horiz-adv-x="1044" 
d="M446 -18v215q36 -4 58 -4q114 0 183 64t69 165q0 128 -75.5 183.5t-217.5 60.5v168q118 4 163.5 47.5t45.5 124.5q0 89 -49.5 130.5t-128.5 41.5q-78 0 -128.5 -43.5t-50.5 -128.5v-1006h-262v1020q0 170 115 270.5t336 100.5q218 0 327 -96.5t109 -260.5
q0 -104 -35.5 -158t-101.5 -96q122 -55 168.5 -140t46.5 -204q0 -214 -123.5 -338.5t-331.5 -124.5q-74 0 -117 9z" />
    <glyph glyph-name="agrave" unicode="&#xe0;" horiz-adv-x="995" 
d="M664 383l2 111q-35 -35 -172 -60q-113 -21 -157 -57t-44 -101q0 -112 129 -112q101 0 170.5 64.5t71.5 154.5zM932 0h-248q-13 40 -16 90q-49 -54 -128 -85.5t-178 -31.5q-166 0 -250.5 74.5t-84.5 202.5q0 61 12.5 109.5t31 82.5t55 60.5t68 42t88 29t96.5 20t111 16.5
q99 13 134.5 37.5t35.5 77.5q0 49 -45.5 76.5t-124.5 27.5q-162 0 -182 -149h-248q7 354 443 354q231 0 330.5 -99t99.5 -298v-637zM635 1135l-457 192l96 168l424 -248z" />
    <glyph glyph-name="aacute" unicode="&#xe1;" horiz-adv-x="995" 
d="M664 383l2 111q-35 -35 -172 -60q-113 -21 -157 -57t-44 -101q0 -112 129 -112q101 0 170.5 64.5t71.5 154.5zM932 0h-248q-13 40 -16 90q-49 -54 -128 -85.5t-178 -31.5q-166 0 -250.5 74.5t-84.5 202.5q0 61 12.5 109.5t31 82.5t55 60.5t68 42t88 29t96.5 20t111 16.5
q99 13 134.5 37.5t35.5 77.5q0 49 -45.5 76.5t-124.5 27.5q-162 0 -182 -149h-248q7 354 443 354q231 0 330.5 -99t99.5 -298v-637zM821 1327l-456 -192l-64 112l424 248z" />
    <glyph glyph-name="acircumflex" unicode="&#xe2;" horiz-adv-x="995" 
d="M664 383l2 111q-35 -35 -172 -60q-113 -21 -157 -57t-44 -101q0 -112 129 -112q101 0 170.5 64.5t71.5 154.5zM932 0h-248q-13 40 -16 90q-49 -54 -128 -85.5t-178 -31.5q-166 0 -250.5 74.5t-84.5 202.5q0 61 12.5 109.5t31 82.5t55 60.5t68 42t88 29t96.5 20t111 16.5
q99 13 134.5 37.5t35.5 77.5q0 49 -45.5 76.5t-124.5 27.5q-162 0 -182 -149h-248q7 354 443 354q231 0 330.5 -99t99.5 -298v-637zM776 1149l-276 242l-277 -242l-94 104l262 275h217l262 -275z" />
    <glyph glyph-name="atilde" unicode="&#xe3;" horiz-adv-x="995" 
d="M664 383l2 111q-35 -35 -172 -60q-113 -21 -157 -57t-44 -101q0 -112 129 -112q101 0 170.5 64.5t71.5 154.5zM932 0h-248q-13 40 -16 90q-49 -54 -128 -85.5t-178 -31.5q-166 0 -250.5 74.5t-84.5 202.5q0 61 12.5 109.5t31 82.5t55 60.5t68 42t88 29t96.5 20t111 16.5
q99 13 134.5 37.5t35.5 77.5q0 49 -45.5 76.5t-124.5 27.5q-162 0 -182 -149h-248q7 354 443 354q231 0 330.5 -99t99.5 -298v-637zM700 1436l154 -56q-32 -104 -91.5 -152t-131.5 -48q-44 0 -91 23t-91 46t-80 23q-18 0 -41 -20t-39 -70l-142 75q59 181 199 181
q42 0 84 -15.5t70 -34t60 -34t58 -15.5q23 0 48.5 24t33.5 73z" />
    <glyph glyph-name="adieresis" unicode="&#xe4;" horiz-adv-x="995" 
d="M664 383l2 111q-35 -35 -172 -60q-113 -21 -157 -57t-44 -101q0 -112 129 -112q101 0 170.5 64.5t71.5 154.5zM932 0h-248q-13 40 -16 90q-49 -54 -128 -85.5t-178 -31.5q-166 0 -250.5 74.5t-84.5 202.5q0 61 12.5 109.5t31 82.5t55 60.5t68 42t88 29t96.5 20t111 16.5
q99 13 134.5 37.5t35.5 77.5q0 49 -45.5 76.5t-124.5 27.5q-162 0 -182 -149h-248q7 354 443 354q231 0 330.5 -99t99.5 -298v-637zM451 1186h-267v254h267v-254zM860 1186h-266v254h266v-254z" />
    <glyph glyph-name="aring" unicode="&#xe5;" horiz-adv-x="995" 
d="M664 383l2 111q-35 -35 -172 -60q-113 -21 -157 -57t-44 -101q0 -112 129 -112q101 0 170.5 64.5t71.5 154.5zM932 0h-248q-13 40 -16 90q-49 -54 -128 -85.5t-178 -31.5q-166 0 -250.5 74.5t-84.5 202.5q0 61 12.5 109.5t31 82.5t55 60.5t68 42t88 29t96.5 20t111 16.5
q99 13 134.5 37.5t35.5 77.5q0 49 -45.5 76.5t-124.5 27.5q-162 0 -182 -149h-248q7 354 443 354q231 0 330.5 -99t99.5 -298v-637zM713 1331q0 -98 -51 -147t-162 -49q-213 0 -213 196q0 95 53.5 146t159.5 51q213 0 213 -197zM606 1331q0 105 -106 105q-103 0 -103 -105
q0 -100 103 -100q106 0 106 100z" />
    <glyph glyph-name="ae" unicode="&#xe6;" horiz-adv-x="1665" 
d="M1626 434h-694q6 -114 66.5 -182t158.5 -68q66 0 116.5 30.5t63.5 82.5h275q-45 -154 -162.5 -239t-280.5 -85q-273 0 -405 170q-75 -86 -171.5 -128t-230.5 -42q-166 0 -250.5 74.5t-84.5 202.5q0 61 12.5 109.5t31 82.5t55 60.5t68 42t88 29t96.5 20t111 16.5
q99 13 134.5 37.5t35.5 77.5q0 49 -45.5 76.5t-124.5 27.5q-162 0 -182 -149h-248q7 354 443 354q230 0 332 -102q127 102 319 102q233 0 353 -151t120 -449zM664 383l2 111q-35 -35 -172 -60q-113 -21 -157 -57t-44 -101q0 -112 129 -112q101 0 170.5 64.5t71.5 154.5z
M940 602h412q-3 106 -63 163.5t-144 57.5q-82 0 -140 -59.5t-65 -161.5z" />
    <glyph glyph-name="ccedilla" unicode="&#xe7;" horiz-adv-x="985" 
d="M692 365h269q-22 -174 -151 -283t-312 -109q-212 0 -337.5 140t-125.5 403q0 261 125 389.5t346 128.5q197 0 321 -104.5t136 -282.5h-269q-10 77 -62 121.5t-128 44.5q-93 0 -149 -68.5t-56 -222.5q0 -156 57 -240.5t140 -84.5q80 0 134.5 44t61.5 124zM403 -477v88
q63 4 96.5 38.5t35.5 94.5h-132v168h236v-111q0 -121 -54 -194t-182 -84z" />
    <glyph glyph-name="egrave" unicode="&#xe8;" 
d="M305 602h412q-3 106 -63 163.5t-144 57.5q-82 0 -140 -59.5t-65 -161.5zM991 434h-694q6 -114 66.5 -182t158.5 -68q66 0 116.5 30.5t63.5 82.5h275q-45 -154 -162.5 -239t-279.5 -85q-504 0 -504 549q0 236 129 374t358 138q233 0 353 -151t120 -449zM651 1135l-456 192
l96 168l424 -248z" />
    <glyph glyph-name="egrave" unicode="&#x450;" 
d="M305 602h412q-3 106 -63 163.5t-144 57.5q-82 0 -140 -59.5t-65 -161.5zM991 434h-694q6 -114 66.5 -182t158.5 -68q66 0 116.5 30.5t63.5 82.5h275q-45 -154 -162.5 -239t-279.5 -85q-504 0 -504 549q0 236 129 374t358 138q233 0 353 -151t120 -449zM651 1135l-456 192
l96 168l424 -248z" />
    <glyph glyph-name="eacute" unicode="&#xe9;" 
d="M305 602h412q-3 106 -63 163.5t-144 57.5q-82 0 -140 -59.5t-65 -161.5zM991 434h-694q6 -114 66.5 -182t158.5 -68q66 0 116.5 30.5t63.5 82.5h275q-45 -154 -162.5 -239t-279.5 -85q-504 0 -504 549q0 236 129 374t358 138q233 0 353 -151t120 -449zM838 1327
l-457 -192l-64 112l424 248z" />
    <glyph glyph-name="ecircumflex" unicode="&#xea;" 
d="M305 602h412q-3 106 -63 163.5t-144 57.5q-82 0 -140 -59.5t-65 -161.5zM991 434h-694q6 -114 66.5 -182t158.5 -68q66 0 116.5 30.5t63.5 82.5h275q-45 -154 -162.5 -239t-279.5 -85q-504 0 -504 549q0 236 129 374t358 138q233 0 353 -151t120 -449zM795 1149l-277 242
l-276 -242l-95 104l263 275h217l262 -275z" />
    <glyph glyph-name="edieresis" unicode="&#xeb;" 
d="M305 602h412q-3 106 -63 163.5t-144 57.5q-82 0 -140 -59.5t-65 -161.5zM991 434h-694q6 -114 66.5 -182t158.5 -68q66 0 116.5 30.5t63.5 82.5h275q-45 -154 -162.5 -239t-279.5 -85q-504 0 -504 549q0 236 129 374t358 138q233 0 353 -151t120 -449zM453 1186h-267v254
h267v-254zM862 1186h-266v254h266v-254z" />
    <glyph glyph-name="edieresis" unicode="&#x451;" 
d="M305 602h412q-3 106 -63 163.5t-144 57.5q-82 0 -140 -59.5t-65 -161.5zM991 434h-694q6 -114 66.5 -182t158.5 -68q66 0 116.5 30.5t63.5 82.5h275q-45 -154 -162.5 -239t-279.5 -85q-504 0 -504 549q0 236 129 374t358 138q233 0 353 -151t120 -449zM453 1186h-267v254
h267v-254zM862 1186h-266v254h266v-254z" />
    <glyph glyph-name="igrave" unicode="&#xec;" horiz-adv-x="557" 
d="M416 1135l-457 192l96 168l424 -248zM408 0h-267v1008h267v-1008z" />
    <glyph glyph-name="iacute" unicode="&#xed;" horiz-adv-x="557" 
d="M602 1327l-457 -192l-63 112l424 248zM408 0h-267v1008h267v-1008z" />
    <glyph glyph-name="icircumflex" unicode="&#xee;" horiz-adv-x="557" 
d="M408 0h-267v1008h267v-1008zM557 1149l-276 242l-277 -242l-94 104l262 275h217l262 -275z" />
    <glyph glyph-name="idieresis" unicode="&#xef;" horiz-adv-x="557" 
d="M217 1186h-266v254h266v-254zM627 1186h-267v254h267v-254zM408 0h-267v1008h267v-1008z" />
    <glyph glyph-name="idieresis" unicode="&#x457;" horiz-adv-x="557" 
d="M217 1186h-266v254h266v-254zM627 1186h-267v254h267v-254zM408 0h-267v1008h267v-1008z" />
    <glyph glyph-name="eth" unicode="&#xf0;" horiz-adv-x="1062" 
d="M950 1333l-127 -73q185 -229 185 -678q0 -135 -27.5 -242t-73 -174.5t-107 -112t-125.5 -62.5t-134 -18q-133 0 -233 39.5t-159.5 111.5t-88.5 164.5t-29 205.5q0 223 117 359t325 136q94 0 157 -20.5t113 -91.5q-15 143 -104 276l-170 -98l-37 57l166 96
q-84 102 -195 168h285q42 -25 86 -65l139 80zM528 195q102 0 165 71t63 193q0 146 -57.5 224.5t-168.5 78.5q-112 0 -169.5 -76t-57.5 -211q0 -133 61 -206.5t164 -73.5z" />
    <glyph glyph-name="ntilde" unicode="&#xf1;" 
d="M967 0h-269v610q0 115 -37.5 157t-134.5 42q-207 0 -207 -231v-578h-266v1008h254v-148q94 174 326 174q149 0 241.5 -88t92.5 -248v-698zM737 1436l154 -56q-32 -104 -91.5 -152t-131.5 -48q-44 0 -91 23t-91 46t-80 23q-18 0 -41 -20t-39 -70l-142 75q59 181 199 181
q42 0 84 -15.5t70 -34t60 -34t58 -15.5q23 0 48.5 24t33.5 73z" />
    <glyph glyph-name="ograve" unicode="&#xf2;" horiz-adv-x="1103" 
d="M549 197q244 0 244 307q0 305 -244 305t-244 -305q0 -307 244 -307zM549 -27q-241 0 -379.5 146t-138.5 385q0 241 140 385.5t378 144.5q236 0 374 -144t138 -386q0 -240 -139 -385.5t-373 -145.5zM690 1135l-457 192l97 168l424 -248z" />
    <glyph glyph-name="oacute" unicode="&#xf3;" horiz-adv-x="1103" 
d="M549 197q244 0 244 307q0 305 -244 305t-244 -305q0 -307 244 -307zM549 -27q-241 0 -379.5 146t-138.5 385q0 241 140 385.5t378 144.5q236 0 374 -144t138 -386q0 -240 -139 -385.5t-373 -145.5zM877 1327l-457 -192l-64 112l424 248z" />
    <glyph glyph-name="ocircumflex" unicode="&#xf4;" horiz-adv-x="1103" 
d="M549 197q244 0 244 307q0 305 -244 305t-244 -305q0 -307 244 -307zM549 -27q-241 0 -379.5 146t-138.5 385q0 241 140 385.5t378 144.5q236 0 374 -144t138 -386q0 -240 -139 -385.5t-373 -145.5zM829 1149l-276 242l-277 -242l-94 104l262 275h218l262 -275z" />
    <glyph glyph-name="otilde" unicode="&#xf5;" horiz-adv-x="1103" 
d="M549 197q244 0 244 307q0 305 -244 305t-244 -305q0 -307 244 -307zM549 -27q-241 0 -379.5 146t-138.5 385q0 241 140 385.5t378 144.5q236 0 374 -144t138 -386q0 -240 -139 -385.5t-373 -145.5zM754 1436l153 -56q-32 -104 -91.5 -152t-131.5 -48q-44 0 -91 23t-91 46
t-80 23q-18 0 -41 -20t-39 -70l-141 75q59 181 198 181q53 0 105 -25t94.5 -49.5t73.5 -24.5q23 0 48.5 24t33.5 73z" />
    <glyph glyph-name="odieresis" unicode="&#xf6;" horiz-adv-x="1103" 
d="M549 197q244 0 244 307q0 305 -244 305t-244 -305q0 -307 244 -307zM549 -27q-241 0 -379.5 146t-138.5 385q0 241 140 385.5t378 144.5q236 0 374 -144t138 -386q0 -240 -139 -385.5t-373 -145.5zM489 1186h-266v254h266v-254zM899 1186h-266v254h266v-254z" />
    <glyph glyph-name="divide" unicode="&#xf7;" horiz-adv-x="1071" 
d="M1012 606h-965v193h965v-193zM672 1004h-285v276h285v-276zM672 129h-285v277h285v-277z" />
    <glyph glyph-name="oslash" unicode="&#xf8;" horiz-adv-x="1103" 
d="M338 -117l-121 54l47 106q-112 66 -172.5 185.5t-60.5 275.5q0 241 140 385.5t378 144.5q78 0 156 -20l47 102l129 -53l-47 -102q108 -65 167.5 -183.5t59.5 -273.5q0 -240 -139 -385.5t-373 -145.5q-89 0 -162 21zM729 735l-246 -532q30 -6 66 -6q244 0 244 307
q0 151 -64 231zM369 270l239 533q-54 6 -59 6q-244 0 -244 -305q0 -158 64 -234z" />
    <glyph glyph-name="ugrave" unicode="&#xf9;" horiz-adv-x="1024" 
d="M961 0h-252v141q-102 -168 -314 -168q-151 0 -246.5 103t-95.5 268v664h266v-623q0 -188 170 -188q99 0 153 63t54 166v582h265v-1008zM649 1135l-456 192l96 168l424 -248z" />
    <glyph glyph-name="uacute" unicode="&#xfa;" horiz-adv-x="1024" 
d="M961 0h-252v141q-102 -168 -314 -168q-151 0 -246.5 103t-95.5 268v664h266v-623q0 -188 170 -188q99 0 153 63t54 166v582h265v-1008zM836 1327l-457 -192l-64 112l424 248z" />
    <glyph glyph-name="ucircumflex" unicode="&#xfb;" horiz-adv-x="1024" 
d="M961 0h-252v141q-102 -168 -314 -168q-151 0 -246.5 103t-95.5 268v664h266v-623q0 -188 170 -188q99 0 153 63t54 166v582h265v-1008zM791 1149l-277 242l-276 -242l-95 104l263 275h217l262 -275z" />
    <glyph glyph-name="udieresis" unicode="&#xfc;" horiz-adv-x="1024" 
d="M961 0h-252v141q-102 -168 -314 -168q-151 0 -246.5 103t-95.5 268v664h266v-623q0 -188 170 -188q99 0 153 63t54 166v582h265v-1008zM465 1186h-266v254h266v-254zM874 1186h-266v254h266v-254z" />
    <glyph glyph-name="yacute" unicode="&#xfd;" horiz-adv-x="1028" 
d="M694 -31v164q-27 -66 -102 -104.5t-170 -38.5q-161 0 -265 100.5t-104 263.5v654h266v-615q0 -188 170 -188q90 0 147.5 53t57.5 135v615h267v-1035q0 -139 -62.5 -242.5t-166.5 -155.5t-234 -52q-217 0 -331 111.5t-114 310.5h248q0 -91 53.5 -142t155.5 -51
q75 0 129.5 60.5t54.5 156.5zM838 1327l-457 -192l-64 112l424 248z" />
    <glyph glyph-name="thorn" unicode="&#xfe;" horiz-adv-x="1071" 
d="M528 190q100 0 164 85.5t64 220.5q0 311 -230 311q-223 0 -223 -328q0 -127 63.5 -208t161.5 -81zM315 -477h-262v1853h262v-493q40 79 105.5 115t171.5 36q107 0 192 -44t138 -119.5t80.5 -171t27.5 -203.5q0 -234 -111 -378.5t-305 -144.5q-98 0 -177.5 38t-121.5 116
v-604z" />
    <glyph glyph-name="ydieresis" unicode="&#xff;" horiz-adv-x="1028" 
d="M694 -31v164q-27 -66 -102 -104.5t-170 -38.5q-161 0 -265 100.5t-104 263.5v654h266v-615q0 -188 170 -188q90 0 147.5 53t57.5 135v615h267v-1035q0 -139 -62.5 -242.5t-166.5 -155.5t-234 -52q-217 0 -331 111.5t-114 310.5h248q0 -91 53.5 -142t155.5 -51
q75 0 129.5 60.5t54.5 156.5zM451 1186h-267v254h267v-254zM860 1186h-266v254h266v-254z" />
    <glyph glyph-name="Amacron" unicode="&#x100;" horiz-adv-x="1316" 
d="M823 514l-170 541h-2l-174 -541h346zM1300 0h-309l-86 281h-502l-96 -281h-301l486 1360h329zM1051 1585h-781v187h781v-187z" />
    <glyph glyph-name="amacron" unicode="&#x101;" horiz-adv-x="995" 
d="M664 383l2 111q-35 -35 -172 -60q-113 -21 -157 -57t-44 -101q0 -112 129 -112q101 0 170.5 64.5t71.5 154.5zM932 0h-248q-13 40 -16 90q-49 -54 -128 -85.5t-178 -31.5q-166 0 -250.5 74.5t-84.5 202.5q0 61 12.5 109.5t31 82.5t55 60.5t68 42t88 29t96.5 20t111 16.5
q99 13 134.5 37.5t35.5 77.5q0 49 -45.5 76.5t-124.5 27.5q-162 0 -182 -149h-248q7 354 443 354q231 0 330.5 -99t99.5 -298v-637zM891 1233h-780v186h780v-186z" />
    <glyph glyph-name="Abreve" unicode="&#x102;" horiz-adv-x="1316" 
d="M823 514l-170 541h-2l-174 -541h346zM1300 0h-309l-86 281h-502l-96 -281h-301l486 1360h329zM825 1880h168q0 -161 -97 -250.5t-234 -89.5t-234.5 89.5t-97.5 250.5h168q3 -85 46 -131.5t118 -46.5t117.5 46.5t45.5 131.5z" />
    <glyph glyph-name="abreve" unicode="&#x103;" horiz-adv-x="995" 
d="M664 383l2 111q-35 -35 -172 -60q-113 -21 -157 -57t-44 -101q0 -112 129 -112q101 0 170.5 64.5t71.5 154.5zM932 0h-248q-13 40 -16 90q-49 -54 -128 -85.5t-178 -31.5q-166 0 -250.5 74.5t-84.5 202.5q0 61 12.5 109.5t31 82.5t55 60.5t68 42t88 29t96.5 20t111 16.5
q99 13 134.5 37.5t35.5 77.5q0 49 -45.5 76.5t-124.5 27.5q-162 0 -182 -149h-248q7 354 443 354q231 0 330.5 -99t99.5 -298v-637zM664 1528h167q0 -161 -97 -250.5t-234 -89.5t-234.5 89.5t-97.5 250.5h168q3 -85 46 -131.5t118 -46.5t118 46.5t46 131.5z" />
    <glyph glyph-name="Aogonek" unicode="&#x104;" horiz-adv-x="1316" 
d="M1300 -240v-184q-67 -53 -215 -53q-108 0 -166.5 46.5t-58.5 127.5q0 97 93.5 174.5t258.5 128.5h-221l-86 281h-502l-96 -281h-301l486 1360h329l479 -1360q-102 -46 -153 -79t-64.5 -55t-13.5 -54q0 -33 35 -50.5t96 -17.5q50 0 100 16zM823 514l-170 541h-2l-174 -541
h346z" />
    <glyph glyph-name="aogonek" unicode="&#x105;" horiz-adv-x="995" 
d="M932 -240v-184q-67 -53 -215 -53q-108 0 -166.5 46.5t-58.5 127.5q0 97 93.5 174.5t258.5 128.5h-160q-13 40 -16 90q-49 -54 -128 -85.5t-178 -31.5q-166 0 -250.5 74.5t-84.5 202.5q0 61 12.5 109.5t31 82.5t55 60.5t68 42t88 29t96.5 20t111 16.5q99 13 134.5 37.5
t35.5 77.5q0 49 -45.5 76.5t-124.5 27.5q-162 0 -182 -149h-248q7 354 443 354q231 0 330.5 -99t99.5 -298v-637q-102 -46 -153 -79t-65 -55t-14 -54q0 -33 35 -50.5t96 -17.5q51 0 101 16zM664 383l2 111q-35 -35 -172 -60q-113 -21 -157 -57t-44 -101q0 -112 129 -112
q101 0 170.5 64.5t71.5 154.5z" />
    <glyph glyph-name="Cacute" unicode="&#x106;" horiz-adv-x="1255" 
d="M961 467h284q-43 -236 -198 -375t-388 -139q-135 0 -248.5 46t-198.5 133.5t-133 224t-48 307.5q0 345 170 543t463 198q247 0 403.5 -139.5t177.5 -352.5h-284q-29 114 -110.5 180t-184.5 66q-173 0 -260 -125.5t-87 -353.5q0 -229 84.5 -354t247.5 -125q124 0 202 68.5
t108 197.5zM950 1679l-456 -192l-64 112l424 248z" />
    <glyph glyph-name="cacute" unicode="&#x107;" horiz-adv-x="985" 
d="M692 365h269q-22 -174 -151 -283t-312 -109q-212 0 -337.5 140t-125.5 403q0 261 125 389.5t346 128.5q197 0 321 -104.5t136 -282.5h-269q-10 77 -62 121.5t-128 44.5q-93 0 -149 -68.5t-56 -222.5q0 -156 57 -240.5t140 -84.5q80 0 134.5 44t61.5 124zM815 1327
l-457 -192l-63 112l424 248z" />
    <glyph glyph-name="Cdotaccent" unicode="&#x10a;" horiz-adv-x="1255" 
d="M961 467h284q-43 -236 -198 -375t-388 -139q-135 0 -248.5 46t-198.5 133.5t-133 224t-48 307.5q0 345 170 543t463 198q247 0 403.5 -139.5t177.5 -352.5h-284q-29 114 -110.5 180t-184.5 66q-173 0 -260 -125.5t-87 -353.5q0 -229 84.5 -354t247.5 -125q124 0 202 68.5
t108 197.5zM801 1538h-266v254h266v-254z" />
    <glyph glyph-name="cdotaccent" unicode="&#x10b;" horiz-adv-x="985" 
d="M692 365h269q-22 -174 -151 -283t-312 -109q-212 0 -337.5 140t-125.5 403q0 261 125 389.5t346 128.5q197 0 321 -104.5t136 -282.5h-269q-10 77 -62 121.5t-128 44.5q-93 0 -149 -68.5t-56 -222.5q0 -156 57 -240.5t140 -84.5q80 0 134.5 44t61.5 124zM649 1186h-266
v254h266v-254z" />
    <glyph glyph-name="Ccaron" unicode="&#x10c;" horiz-adv-x="1255" 
d="M961 467h284q-43 -236 -198 -375t-388 -139q-135 0 -248.5 46t-198.5 133.5t-133 224t-48 307.5q0 345 170 543t463 198q247 0 403.5 -139.5t177.5 -352.5h-284q-29 114 -110.5 180t-184.5 66q-173 0 -260 -125.5t-87 -353.5q0 -229 84.5 -354t247.5 -125q124 0 202 68.5
t108 197.5zM760 1501h-217l-262 275l94 104l276 -242l277 242l94 -104z" />
    <glyph glyph-name="ccaron" unicode="&#x10d;" horiz-adv-x="985" 
d="M692 365h269q-22 -174 -151 -283t-312 -109q-212 0 -337.5 140t-125.5 403q0 261 125 389.5t346 128.5q197 0 321 -104.5t136 -282.5h-269q-10 77 -62 121.5t-128 44.5q-93 0 -149 -68.5t-56 -222.5q0 -156 57 -240.5t140 -84.5q80 0 134.5 44t61.5 124zM608 1149h-217
l-262 274l94 105l277 -242l276 242l94 -105z" />
    <glyph glyph-name="Dcaron" unicode="&#x10e;" horiz-adv-x="1243" 
d="M324 231h235q184 0 269 114.5t85 348.5q0 231 -87 330.5t-291 99.5h-211v-893zM616 0h-569v1360h526q281 0 456 -180t175 -486q0 -154 -42.5 -283t-119 -219.5t-186.5 -141t-240 -50.5zM655 1501h-217l-262 275l94 104l277 -242l276 242l95 -104z" />
    <glyph glyph-name="dcaron" unicode="&#x10f;" horiz-adv-x="1339" 
d="M530 190q96 0 161 81.5t65 207.5q0 328 -224 328q-229 0 -229 -311q0 -135 63.5 -220.5t163.5 -85.5zM1008 0h-256l-2 123q-93 -150 -281 -150q-194 0 -315 145t-121 396q0 233 110.5 376.5t302.5 143.5q186 0 299 -157v499h263v-1376zM1063 819v103q80 21 118.5 71.5
t39.5 145.5h-158v276h283v-209q0 -176 -63 -265t-220 -122z" />
    <glyph glyph-name="dcroat" unicode="&#x111;" horiz-adv-x="1071" 
d="M1010 0h-248l-4 166q-37 -99 -116.5 -146t-166.5 -47q-194 0 -315 145t-121 396q0 233 111 376.5t303 143.5q47 0 89 -9t84.5 -29.5t76 -60t51.5 -95.5v256h-332v172h332v108h256v-108h59v-172h-59v-1096zM528 184q108 0 172 79.5t64 236.5q0 149 -61.5 230t-174.5 81
q-227 0 -227 -311q0 -159 60 -237.5t167 -78.5z" />
    <glyph glyph-name="Emacron" unicode="&#x112;" horiz-adv-x="1089" 
d="M1079 0h-1032v1360h1000v-238h-723v-291h665v-239h-665v-350h755v-242zM936 1585h-780v187h780v-187z" />
    <glyph glyph-name="emacron" unicode="&#x113;" 
d="M305 602h412q-3 106 -63 163.5t-144 57.5q-82 0 -140 -59.5t-65 -161.5zM991 434h-694q6 -114 66.5 -182t158.5 -68q66 0 116.5 30.5t63.5 82.5h275q-45 -154 -162.5 -239t-279.5 -85q-504 0 -504 549q0 236 129 374t358 138q233 0 353 -151t120 -449zM907 1233h-780v186
h780v-186z" />
    <glyph glyph-name="Ebreve" unicode="&#x114;" horiz-adv-x="1089" 
d="M1079 0h-1032v1360h1000v-238h-723v-291h665v-239h-665v-350h755v-242zM729 1880h168q0 -161 -97.5 -250.5t-234.5 -89.5t-234.5 89.5t-97.5 250.5h168q3 -85 46 -131.5t118 -46.5t118 46.5t46 131.5z" />
    <glyph glyph-name="ebreve" unicode="&#x115;" 
d="M305 602h412q-3 106 -63 163.5t-144 57.5q-82 0 -140 -59.5t-65 -161.5zM991 434h-694q6 -114 66.5 -182t158.5 -68q66 0 116.5 30.5t63.5 82.5h275q-45 -154 -162.5 -239t-279.5 -85q-504 0 -504 549q0 236 129 374t358 138q233 0 353 -151t120 -449zM680 1528h168
q0 -161 -97.5 -250.5t-234.5 -89.5t-234.5 89.5t-97.5 250.5h168q3 -85 46 -131.5t118 -46.5t118 46.5t46 131.5z" />
    <glyph glyph-name="Edotaccent" unicode="&#x116;" horiz-adv-x="1089" 
d="M1079 0h-1032v1360h1000v-238h-723v-291h665v-239h-665v-350h755v-242zM702 1538h-266v254h266v-254z" />
    <glyph glyph-name="edotaccent" unicode="&#x117;" 
d="M305 602h412q-3 106 -63 163.5t-144 57.5q-82 0 -140 -59.5t-65 -161.5zM991 434h-694q6 -114 66.5 -182t158.5 -68q66 0 116.5 30.5t63.5 82.5h275q-45 -154 -162.5 -239t-279.5 -85q-504 0 -504 549q0 236 129 374t358 138q233 0 353 -151t120 -449zM657 1186h-266v254
h266v-254z" />
    <glyph glyph-name="Eogonek" unicode="&#x118;" horiz-adv-x="1089" 
d="M1079 -240v-184q-67 -53 -215 -53q-108 0 -166.5 46.5t-58.5 127.5q0 97 93.5 174.5t258.5 128.5h-944v1360h1000v-238h-723v-291h665v-239h-665v-350h755v-242q-102 -46 -153 -79t-64.5 -55t-13.5 -54q0 -33 35 -50.5t96 -17.5q50 0 100 16z" />
    <glyph glyph-name="eogonek" unicode="&#x119;" 
d="M702 -240v-184q-67 -53 -215 -53q-108 0 -166.5 46.5t-58.5 127.5q0 169 275 276h-2q-504 0 -504 549q0 236 129 374t358 138q233 0 353 -151t120 -449h-694q6 -114 66.5 -182t158.5 -68q66 0 116.5 30.5t63.5 82.5h275q-33 -111 -104 -187t-171 -110q-102 -46 -153 -79
t-64.5 -55t-13.5 -54q0 -33 35 -50.5t96 -17.5q50 0 100 16zM305 602h412q-3 106 -63 163.5t-144 57.5q-82 0 -140 -59.5t-65 -161.5z" />
    <glyph glyph-name="Ecaron" unicode="&#x11a;" horiz-adv-x="1089" 
d="M1079 0h-1032v1360h1000v-238h-723v-291h665v-239h-665v-350h755v-242zM655 1501h-217l-262 275l94 104l277 -242l276 242l95 -104z" />
    <glyph glyph-name="ecaron" unicode="&#x11b;" 
d="M305 602h412q-3 106 -63 163.5t-144 57.5q-82 0 -140 -59.5t-65 -161.5zM991 434h-694q6 -114 66.5 -182t158.5 -68q66 0 116.5 30.5t63.5 82.5h275q-45 -154 -162.5 -239t-279.5 -85q-504 0 -504 549q0 236 129 374t358 138q233 0 353 -151t120 -449zM627 1149h-217
l-263 274l95 105l276 -242l277 242l94 -105z" />
    <glyph glyph-name="Gbreve" unicode="&#x11e;" horiz-adv-x="1347" 
d="M1296 0h-235l-6 135q-49 -86 -158 -134t-250 -48q-182 0 -325 104t-217 269t-74 356q0 152 43.5 282.5t125.5 229t210.5 155t289.5 56.5q244 0 411.5 -131t182.5 -334h-286q-10 95 -100.5 162t-207.5 67q-174 0 -276 -130t-102 -369q0 -69 13.5 -135.5t43 -128.5
t72.5 -109t107 -75.5t140 -28.5q139 0 235.5 91.5t96.5 219.5h-301v227h567v-731zM856 1880h168q0 -161 -97.5 -250.5t-234.5 -89.5t-234.5 89.5t-97.5 250.5h168q3 -85 46 -131.5t118 -46.5t118 46.5t46 131.5z" />
    <glyph glyph-name="gbreve" unicode="&#x11f;" horiz-adv-x="1085" 
d="M537 201q99 0 163 76.5t64 201.5q0 324 -227 324q-228 0 -228 -307q0 -133 64 -214t164 -81zM756 -31v166q-27 -67 -102.5 -105t-174.5 -38q-97 0 -174 29t-127 77.5t-83.5 115.5t-47.5 140.5t-14 155.5q0 231 127 377.5t313 146.5q190 0 283 -151v125h266v-1018
q0 -147 -67.5 -254.5t-179.5 -160t-255 -52.5q-214 0 -350.5 115t-136.5 307h248q0 -90 60 -141.5t161 -51.5q108 0 181 59.5t73 157.5zM705 1528h167q0 -161 -97 -250.5t-234 -89.5t-234.5 89.5t-97.5 250.5h168q3 -85 46 -131.5t118 -46.5t118 46.5t46 131.5z" />
    <glyph glyph-name="Gdotaccent" unicode="&#x120;" horiz-adv-x="1347" 
d="M1296 0h-235l-6 135q-49 -86 -158 -134t-250 -48q-182 0 -325 104t-217 269t-74 356q0 152 43.5 282.5t125.5 229t210.5 155t289.5 56.5q244 0 411.5 -131t182.5 -334h-286q-10 95 -100.5 162t-207.5 67q-174 0 -276 -130t-102 -369q0 -69 13.5 -135.5t43 -128.5
t72.5 -109t107 -75.5t140 -28.5q139 0 235.5 91.5t96.5 219.5h-301v227h567v-731zM844 1538h-266v254h266v-254z" />
    <glyph glyph-name="gdotaccent" unicode="&#x121;" horiz-adv-x="1085" 
d="M537 201q99 0 163 76.5t64 201.5q0 324 -227 324q-228 0 -228 -307q0 -133 64 -214t164 -81zM756 -31v166q-27 -67 -102.5 -105t-174.5 -38q-97 0 -174 29t-127 77.5t-83.5 115.5t-47.5 140.5t-14 155.5q0 231 127 377.5t313 146.5q190 0 283 -151v125h266v-1018
q0 -147 -67.5 -254.5t-179.5 -160t-255 -52.5q-214 0 -350.5 115t-136.5 307h248q0 -90 60 -141.5t161 -51.5q108 0 181 59.5t73 157.5zM666 1186h-267v254h267v-254z" />
    <glyph glyph-name="uni0122" unicode="&#x122;" horiz-adv-x="1347" 
d="M1296 0h-235l-6 135q-49 -86 -158 -134t-250 -48q-182 0 -325 104t-217 269t-74 356q0 152 43.5 282.5t125.5 229t210.5 155t289.5 56.5q244 0 411.5 -131t182.5 -334h-286q-10 95 -100.5 162t-207.5 67q-174 0 -276 -130t-102 -369q0 -69 13.5 -135.5t43 -128.5
t72.5 -109t107 -75.5t140 -28.5q139 0 235.5 91.5t96.5 219.5h-301v227h567v-731zM563 -477v88q63 4 96 38.5t35 94.5h-131v168h236v-111q0 -121 -54 -194t-182 -84z" />
    <glyph glyph-name="uni0123" unicode="&#x123;" horiz-adv-x="1085" 
d="M537 201q99 0 163 76.5t64 201.5q0 324 -227 324q-228 0 -228 -307q0 -133 64 -214t164 -81zM756 -31v166q-27 -67 -102.5 -105t-174.5 -38q-97 0 -174 29t-127 77.5t-83.5 115.5t-47.5 140.5t-14 155.5q0 231 127 377.5t313 146.5q190 0 283 -151v125h266v-1018
q0 -147 -67.5 -254.5t-179.5 -160t-255 -52.5q-214 0 -350.5 115t-136.5 307h248q0 -90 60 -141.5t161 -51.5q108 0 181 59.5t73 157.5zM651 1520v-88q-63 -4 -96 -39t-35 -95h131v-168h-235v111q0 121 53.5 194.5t181.5 84.5z" />
    <glyph glyph-name="Hbar" unicode="&#x126;" horiz-adv-x="1202" 
d="M1149 0h-287v610h-530v-610h-285v1360h285v-164h530v164h287v-1360zM332 848h530v162h-530v-162z" />
    <glyph glyph-name="hbar" unicode="&#x127;" 
d="M657 1102h-338v-225q29 68 112.5 112.5t184.5 44.5q158 0 254.5 -86t96.5 -235v-713h-269v625q0 112 -39.5 155t-132.5 43q-96 0 -151.5 -70t-55.5 -175v-578h-266v1102h-53v186h53v88h266v-88h338v-186z" />
    <glyph glyph-name="hbar" unicode="&#x45b;" 
d="M657 1102h-338v-225q29 68 112.5 112.5t184.5 44.5q158 0 254.5 -86t96.5 -235v-713h-269v625q0 112 -39.5 155t-132.5 43q-96 0 -151.5 -70t-55.5 -175v-578h-266v1102h-53v186h53v88h266v-88h338v-186z" />
    <glyph glyph-name="Itilde" unicode="&#x128;" horiz-adv-x="382" 
d="M332 0h-285v1360h285v-1360zM393 1788l154 -55q-32 -104 -91.5 -152.5t-131.5 -48.5q-44 0 -91 23t-91.5 46t-80.5 23q-18 0 -40.5 -20t-38.5 -70l-142 76q58 180 199 180q53 0 104.5 -24.5t94 -49t73.5 -24.5q24 0 49 23.5t33 72.5z" />
    <glyph glyph-name="itilde" unicode="&#x129;" horiz-adv-x="557" 
d="M481 1436l154 -56q-32 -104 -91.5 -152t-131.5 -48q-44 0 -91 23t-91 46t-80 23q-18 0 -41 -20t-39 -70l-142 75q59 181 199 181q42 0 84 -15.5t70 -34t60 -34t58 -15.5q23 0 48.5 24t33.5 73zM408 0h-267v1008h267v-1008z" />
    <glyph glyph-name="Imacron" unicode="&#x12a;" horiz-adv-x="382" 
d="M332 0h-285v1360h285v-1360zM586 1585h-781v187h781v-187z" />
    <glyph glyph-name="imacron" unicode="&#x12b;" horiz-adv-x="557" 
d="M672 1233h-781v186h781v-186zM408 0h-267v1008h267v-1008z" />
    <glyph glyph-name="Ibreve" unicode="&#x12c;" horiz-adv-x="382" 
d="M332 0h-285v1360h285v-1360zM358 1880h168q0 -161 -97 -250.5t-234 -89.5t-234.5 89.5t-97.5 250.5h168q3 -85 46 -131.5t118 -46.5t117.5 46.5t45.5 131.5z" />
    <glyph glyph-name="ibreve" unicode="&#x12d;" horiz-adv-x="557" 
d="M444 1528h168q0 -161 -97 -250.5t-234 -89.5t-234.5 89.5t-97.5 250.5h168q3 -85 46 -131.5t118 -46.5t117.5 46.5t45.5 131.5zM408 0h-267v1008h267v-1008z" />
    <glyph glyph-name="Iogonek" unicode="&#x12e;" horiz-adv-x="382" 
d="M332 -240v-184q-67 -53 -215 -53q-109 0 -167.5 46.5t-58.5 127.5q0 97 94 174.5t259 128.5h-197v1360h285v-1360q-102 -46 -153 -79t-65 -55t-14 -54q0 -33 35 -50.5t96 -17.5q51 0 101 16z" />
    <glyph glyph-name="iogonek" unicode="&#x12f;" horiz-adv-x="393" 
d="M326 -240v-184q-67 -53 -215 -53q-109 0 -167.5 46.5t-58.5 127.5q0 97 94 174.5t259 128.5h-179v1008h267v-1008q-102 -46 -153 -79t-65 -55t-14 -54q0 -33 35 -50.5t96 -17.5q51 0 101 16zM326 1128h-267v248h267v-248z" />
    <glyph glyph-name="Idotaccent" unicode="&#x130;" horiz-adv-x="382" 
d="M332 0h-285v1360h285v-1360zM336 1538h-266v254h266v-254z" />
    <glyph glyph-name="dotlessi" unicode="&#x131;" horiz-adv-x="393" 
d="M326 0h-267v1008h267v-1008z" />
    <glyph glyph-name="IJ" unicode="&#x132;" horiz-adv-x="1312" 
d="M332 0h-285v1360h285v-1360zM973 393v967h284v-993q0 -190 -115.5 -302t-330.5 -112q-199 0 -309.5 108t-110.5 314v139h258v-125q0 -105 38 -155t124 -50q95 0 128.5 46.5t33.5 162.5z" />
    <glyph glyph-name="ij" unicode="&#x133;" horiz-adv-x="796" 
d="M326 0h-267v1008h267v-1008zM326 1128h-267v248h267v-248zM451 -57v1065h268v-1076q0 -181 -113 -295t-284 -114q-202 0 -304 111t-102 311h250q0 -187 141 -187q77 0 110.5 47.5t33.5 137.5zM719 1128h-268v248h268v-248z" />
    <glyph glyph-name="uni0136" unicode="&#x136;" horiz-adv-x="1236" 
d="M1229 0h-346l-404 612l-151 -149v-463h-281v1360h281v-553l520 553h369l-537 -537zM526 -477v88q63 4 96 38.5t35 94.5h-131v168h236v-111q0 -121 -54 -194t-182 -84z" />
    <glyph glyph-name="uni0137" unicode="&#x137;" horiz-adv-x="989" 
d="M971 0h-299l-221 453l-129 -134v-319h-269v1376h269v-751l331 383h326l-338 -371zM385 -477v88q63 4 96 38.5t35 94.5h-131v168h236v-111q0 -121 -54 -194t-182 -84z" />
    <glyph glyph-name="Lacute" unicode="&#x139;" horiz-adv-x="1026" 
d="M1006 0h-959v1360h285v-1112h674v-248zM530 1679l-456 -192l-64 112l424 248z" />
    <glyph glyph-name="lacute" unicode="&#x13a;" horiz-adv-x="378" 
d="M319 0h-266v1376h266v-1376zM514 1679l-457 -192l-63 112l424 248z" />
    <glyph glyph-name="uni013B" unicode="&#x13b;" horiz-adv-x="1026" 
d="M1006 0h-959v1360h285v-1112h674v-248zM432 -477v88q63 4 96 38.5t35 94.5h-131v168h236v-111q0 -121 -54 -194t-182 -84z" />
    <glyph glyph-name="uni013C" unicode="&#x13c;" horiz-adv-x="378" 
d="M319 0h-266v1376h266v-1376zM80 -477v88q63 4 96 38.5t35 94.5h-131v168h235v-111q0 -121 -53.5 -194t-181.5 -84z" />
    <glyph glyph-name="Lcaron" unicode="&#x13d;" horiz-adv-x="1026" 
d="M1006 0h-959v1360h285v-1112h674v-248zM406 819v103q80 21 118 71.5t39 145.5h-157v276h282v-209q0 -177 -62.5 -265.5t-219.5 -121.5z" />
    <glyph glyph-name="lcaron" unicode="&#x13e;" horiz-adv-x="655" 
d="M319 0h-266v1376h266v-1376zM373 815v103q80 21 118 71.5t39 145.5h-157v276h282v-209q0 -177 -62.5 -265.5t-219.5 -121.5z" />
    <glyph glyph-name="Lslash" unicode="&#x141;" horiz-adv-x="1026" 
d="M1006 0h-959v1360h285v-588l289 129v-182l-289 -129v-342h674v-248z" />
    <glyph glyph-name="lslash" unicode="&#x142;" horiz-adv-x="534" 
d="M393 0h-266v545l-127 -56v181l127 55v651h266v-534l129 59v-182l-129 -57v-662z" />
    <glyph glyph-name="Nacute" unicode="&#x143;" horiz-adv-x="1210" 
d="M1155 0h-262l-582 913v-913h-264v1360h301l541 -875v875h266v-1360zM928 1679l-457 -192l-63 112l423 248z" />
    <glyph glyph-name="nacute" unicode="&#x144;" 
d="M967 0h-269v610q0 115 -37.5 157t-134.5 42q-207 0 -207 -231v-578h-266v1008h254v-148q94 174 326 174q149 0 241.5 -88t92.5 -248v-698zM838 1327l-457 -192l-64 112l424 248z" />
    <glyph glyph-name="uni0145" unicode="&#x145;" horiz-adv-x="1210" 
d="M1155 0h-262l-582 913v-913h-264v1360h301l541 -875v875h266v-1360zM510 -477v88q63 4 96 38.5t35 94.5h-131v168h235v-111q0 -121 -53.5 -194t-181.5 -84z" />
    <glyph glyph-name="uni0146" unicode="&#x146;" 
d="M967 0h-269v610q0 115 -37.5 157t-134.5 42q-207 0 -207 -231v-578h-266v1008h254v-148q94 174 326 174q149 0 241.5 -88t92.5 -248v-698zM412 -477v88q63 4 96 38.5t35 94.5h-131v168h235v-111q0 -121 -53.5 -194t-181.5 -84z" />
    <glyph glyph-name="Ncaron" unicode="&#x147;" horiz-adv-x="1210" 
d="M1155 0h-262l-582 913v-913h-264v1360h301l541 -875v875h266v-1360zM731 1501h-217l-262 275l94 104l277 -242l276 242l94 -104z" />
    <glyph glyph-name="ncaron" unicode="&#x148;" 
d="M967 0h-269v610q0 115 -37.5 157t-134.5 42q-207 0 -207 -231v-578h-266v1008h254v-148q94 174 326 174q149 0 241.5 -88t92.5 -248v-698zM664 1149h-218l-262 274l95 105l276 -242l276 242l95 -105z" />
    <glyph glyph-name="Eng" unicode="&#x14a;" horiz-adv-x="1210" 
d="M889 -57v63l-578 907v-913h-264v1360h301l541 -875v875h266v-1428q0 -181 -113 -295t-284 -114q-9 0 -25 1t-24 1v237q20 -4 34 -4q146 0 146 185z" />
    <glyph glyph-name="eng" unicode="&#x14b;" 
d="M698 -57v690q-3 101 -41 138.5t-131 37.5q-207 0 -207 -231v-578h-266v1008h254v-148q94 174 326 174q149 0 241.5 -88t92.5 -248v-766q0 -181 -113.5 -295t-284.5 -114q-8 0 -23 1t-22 1v235q4 0 14 -1t17 -1q76 0 109.5 47t33.5 138z" />
    <glyph glyph-name="Omacron" unicode="&#x14c;" horiz-adv-x="1372" 
d="M684 197q163 0 266 117.5t103 347.5q0 241 -95 366t-274 125q-181 0 -277 -125.5t-96 -365.5q0 -465 373 -465zM684 -47q-314 0 -483.5 185.5t-169.5 529.5q0 348 170.5 542.5t482.5 194.5t480.5 -195.5t168.5 -547.5q0 -348 -167 -528.5t-482 -180.5zM1079 1585h-780
v187h780v-187z" />
    <glyph glyph-name="omacron" unicode="&#x14d;" horiz-adv-x="1103" 
d="M549 197q244 0 244 307q0 305 -244 305t-244 -305q0 -307 244 -307zM549 -27q-241 0 -379.5 146t-138.5 385q0 241 140 385.5t378 144.5q236 0 374 -144t138 -386q0 -240 -139 -385.5t-373 -145.5zM944 1233h-780v186h780v-186z" />
    <glyph glyph-name="Obreve" unicode="&#x14e;" horiz-adv-x="1372" 
d="M684 197q163 0 266 117.5t103 347.5q0 241 -95 366t-274 125q-181 0 -277 -125.5t-96 -365.5q0 -465 373 -465zM684 -47q-314 0 -483.5 185.5t-169.5 529.5q0 348 170.5 542.5t482.5 194.5t480.5 -195.5t168.5 -547.5q0 -348 -167 -528.5t-482 -180.5zM852 1880h168
q0 -161 -97.5 -250.5t-234.5 -89.5t-234.5 89.5t-97.5 250.5h168q3 -85 46 -131.5t118 -46.5t118 46.5t46 131.5z" />
    <glyph glyph-name="obreve" unicode="&#x14f;" horiz-adv-x="1103" 
d="M549 197q244 0 244 307q0 305 -244 305t-244 -305q0 -307 244 -307zM549 -27q-241 0 -379.5 146t-138.5 385q0 241 140 385.5t378 144.5q236 0 374 -144t138 -386q0 -240 -139 -385.5t-373 -145.5zM719 1528h168q0 -161 -97.5 -250.5t-234.5 -89.5t-234.5 89.5
t-97.5 250.5h168q3 -85 46 -131.5t118 -46.5t118 46.5t46 131.5z" />
    <glyph glyph-name="Ohungarumlaut" unicode="&#x150;" horiz-adv-x="1372" 
d="M684 197q163 0 266 117.5t103 347.5q0 241 -95 366t-274 125q-181 0 -277 -125.5t-96 -365.5q0 -465 373 -465zM684 -47q-314 0 -483.5 185.5t-169.5 529.5q0 348 170.5 542.5t482.5 194.5t480.5 -195.5t168.5 -547.5q0 -348 -167 -528.5t-482 -180.5zM535 1518l-76 67
l278 301l90 -76zM1087 1804l-307 -286l-75 67l290 295z" />
    <glyph glyph-name="ohungarumlaut" unicode="&#x151;" horiz-adv-x="1103" 
d="M549 197q244 0 244 307q0 305 -244 305t-244 -305q0 -307 244 -307zM549 -27q-241 0 -379.5 146t-138.5 385q0 241 140 385.5t378 144.5q236 0 374 -144t138 -386q0 -240 -139 -385.5t-373 -145.5zM385 1165l-76 68l279 301l90 -76zM938 1452l-307 -287l-76 68l291 295z
" />
    <glyph glyph-name="OE" unicode="&#x152;" horiz-adv-x="1974" 
d="M2091 0h-1034v49q-151 -96 -357 -96q-321 0 -495 202t-174 560q0 150 47.5 277.5t132.5 218.5t207.5 142.5t267.5 51.5q203 0 371 -113v68h999v-238h-723v-291h666v-239h-666v-350h758v-242zM707 197q153 0 249.5 128t96.5 330q0 498 -377 498q-165 0 -265 -128
t-100 -329q0 -213 111 -356t285 -143z" />
    <glyph glyph-name="oe" unicode="&#x153;" horiz-adv-x="1775" 
d="M1733 434h-695q6 -114 67 -182t159 -68q66 0 116.5 30.5t63.5 82.5h274q-45 -154 -162.5 -239t-279.5 -85q-245 0 -371 129q-135 -129 -356 -129q-241 0 -379.5 146t-138.5 385q0 241 140 385.5t378 144.5q221 0 358 -131q131 131 353 131q233 0 353 -151t120 -449z
M549 197q244 0 244 307q0 305 -244 305t-244 -305q0 -307 244 -307zM1047 602h411q-3 106 -63 163.5t-144 57.5q-82 0 -139.5 -59.5t-64.5 -161.5z" />
    <glyph glyph-name="Racute" unicode="&#x154;" horiz-adv-x="1183" 
d="M690 1124h-366v-362h356q109 0 159 48.5t50 131.5q0 84 -49 133t-150 49zM1118 0h-278v350q0 100 -46 141t-167 41h-303v-532h-277v1360h690q187 0 302.5 -111t115.5 -282q0 -111 -53.5 -196t-149.5 -120q92 -30 129 -88.5t37 -177.5v-385zM915 1679l-456 -192l-64 112
l424 248z" />
    <glyph glyph-name="racute" unicode="&#x155;" horiz-adv-x="657" 
d="M319 0h-266v1008h250v-121q32 49 67.5 80t76 44.5t74 18t81.5 4.5h35v-272q-38 6 -74 6q-244 0 -244 -244v-524zM674 1327l-457 -192l-63 112l424 248z" />
    <glyph glyph-name="uni0156" unicode="&#x156;" horiz-adv-x="1183" 
d="M690 1124h-366v-362h356q109 0 159 48.5t50 131.5q0 84 -49 133t-150 49zM1118 0h-278v350q0 100 -46 141t-167 41h-303v-532h-277v1360h690q187 0 302.5 -111t115.5 -282q0 -111 -53.5 -196t-149.5 -120q92 -30 129 -88.5t37 -177.5v-385zM481 -477v88q63 4 96 38.5
t35 94.5h-131v168h236v-111q0 -121 -54 -194t-182 -84z" />
    <glyph glyph-name="uni0157" unicode="&#x157;" horiz-adv-x="657" 
d="M319 0h-266v1008h250v-121q32 49 67.5 80t76 44.5t74 18t81.5 4.5h35v-272q-38 6 -74 6q-244 0 -244 -244v-524zM82 -477v88q63 4 96 38.5t35 94.5h-131v168h235v-111q0 -121 -53.5 -194t-181.5 -84z" />
    <glyph glyph-name="Rcaron" unicode="&#x158;" horiz-adv-x="1183" 
d="M690 1124h-366v-362h356q109 0 159 48.5t50 131.5q0 84 -49 133t-150 49zM1118 0h-278v350q0 100 -46 141t-167 41h-303v-532h-277v1360h690q187 0 302.5 -111t115.5 -282q0 -111 -53.5 -196t-149.5 -120q92 -30 129 -88.5t37 -177.5v-385zM666 1501h-217l-263 275
l95 104l276 -242l277 242l94 -104z" />
    <glyph glyph-name="rcaron" unicode="&#x159;" horiz-adv-x="657" 
d="M319 0h-266v1008h250v-121q32 49 67.5 80t76 44.5t74 18t81.5 4.5h35v-272q-38 6 -74 6q-244 0 -244 -244v-524zM440 1149h-217l-262 274l94 105l277 -242l276 242l94 -105z" />
    <glyph glyph-name="Sacute" unicode="&#x15a;" horiz-adv-x="1153" 
d="M1087 958h-270q-11 105 -76.5 156t-193.5 51q-119 0 -181.5 -41t-62.5 -118q0 -65 48.5 -104.5t162.5 -67.5q299 -72 404 -119q101 -45 156.5 -120.5t55.5 -209.5q0 -110 -40 -193.5t-112.5 -135t-170.5 -77.5t-219 -26q-260 0 -416 116.5t-160 338.5h275
q3 -104 84.5 -165t218.5 -61q126 0 195 51t69 142q0 65 -45 105.5t-166 66.5q-105 23 -155 35t-111 30.5t-107 38.5q-113 52 -170 131.5t-57 204.5q0 189 128 303.5t370 114.5q252 0 395 -123t151 -324zM899 1679l-457 -192l-63 112l424 248z" />
    <glyph glyph-name="sacute" unicode="&#x15b;" horiz-adv-x="966" 
d="M915 702h-256q-10 73 -53.5 103.5t-134.5 30.5q-158 0 -158 -84q0 -42 37.5 -66t126.5 -49q40 -12 106 -28.5t113 -30t82 -27.5q83 -34 124.5 -91.5t41.5 -152.5q0 -158 -113.5 -246t-326.5 -88q-227 0 -355 96.5t-131 254.5h275q0 -70 56 -110t153 -40q77 0 127.5 25.5
t50.5 79.5q0 26 -12 45t-38 32t-49.5 20.5t-62.5 16.5q-134 32 -209 57.5t-127 57.5q-127 80 -127 227q0 137 102.5 218t321.5 81q215 0 320 -83t116 -249zM807 1327l-457 -192l-63 112l424 248z" />
    <glyph glyph-name="Scedilla" unicode="&#x15e;" horiz-adv-x="1153" 
d="M1087 958h-270q-11 105 -76.5 156t-193.5 51q-119 0 -181.5 -41t-62.5 -118q0 -65 48.5 -104.5t162.5 -67.5q299 -72 404 -119q101 -45 156.5 -120.5t55.5 -209.5q0 -110 -40 -193.5t-112.5 -135t-170.5 -77.5t-219 -26q-260 0 -416 116.5t-160 338.5h275
q3 -104 84.5 -165t218.5 -61q126 0 195 51t69 142q0 65 -45 105.5t-166 66.5q-105 23 -155 35t-111 30.5t-107 38.5q-113 52 -170 131.5t-57 204.5q0 189 128 303.5t370 114.5q252 0 395 -123t151 -324zM467 -477v88q63 4 96 38.5t35 94.5h-131v168h235v-111
q0 -121 -53.5 -194t-181.5 -84z" />
    <glyph glyph-name="Scedilla" unicode="&#x218;" horiz-adv-x="1153" 
d="M1087 958h-270q-11 105 -76.5 156t-193.5 51q-119 0 -181.5 -41t-62.5 -118q0 -65 48.5 -104.5t162.5 -67.5q299 -72 404 -119q101 -45 156.5 -120.5t55.5 -209.5q0 -110 -40 -193.5t-112.5 -135t-170.5 -77.5t-219 -26q-260 0 -416 116.5t-160 338.5h275
q3 -104 84.5 -165t218.5 -61q126 0 195 51t69 142q0 65 -45 105.5t-166 66.5q-105 23 -155 35t-111 30.5t-107 38.5q-113 52 -170 131.5t-57 204.5q0 189 128 303.5t370 114.5q252 0 395 -123t151 -324zM467 -477v88q63 4 96 38.5t35 94.5h-131v168h235v-111
q0 -121 -53.5 -194t-181.5 -84z" />
    <glyph glyph-name="scedilla" unicode="&#x15f;" horiz-adv-x="966" 
d="M915 702h-256q-10 73 -53.5 103.5t-134.5 30.5q-158 0 -158 -84q0 -42 37.5 -66t126.5 -49q40 -12 106 -28.5t113 -30t82 -27.5q83 -34 124.5 -91.5t41.5 -152.5q0 -158 -113.5 -246t-326.5 -88q-227 0 -355 96.5t-131 254.5h275q0 -70 56 -110t153 -40q77 0 127.5 25.5
t50.5 79.5q0 26 -12 45t-38 32t-49.5 20.5t-62.5 16.5q-134 32 -209 57.5t-127 57.5q-127 80 -127 227q0 137 102.5 218t321.5 81q215 0 320 -83t116 -249zM395 -477v88q63 4 96 38.5t35 94.5h-131v168h236v-111q0 -121 -54 -194t-182 -84z" />
    <glyph glyph-name="scedilla" unicode="&#x219;" horiz-adv-x="966" 
d="M915 702h-256q-10 73 -53.5 103.5t-134.5 30.5q-158 0 -158 -84q0 -42 37.5 -66t126.5 -49q40 -12 106 -28.5t113 -30t82 -27.5q83 -34 124.5 -91.5t41.5 -152.5q0 -158 -113.5 -246t-326.5 -88q-227 0 -355 96.5t-131 254.5h275q0 -70 56 -110t153 -40q77 0 127.5 25.5
t50.5 79.5q0 26 -12 45t-38 32t-49.5 20.5t-62.5 16.5q-134 32 -209 57.5t-127 57.5q-127 80 -127 227q0 137 102.5 218t321.5 81q215 0 320 -83t116 -249zM395 -477v88q63 4 96 38.5t35 94.5h-131v168h236v-111q0 -121 -54 -194t-182 -84z" />
    <glyph glyph-name="Scaron" unicode="&#x160;" horiz-adv-x="1153" 
d="M1087 958h-270q-11 105 -76.5 156t-193.5 51q-119 0 -181.5 -41t-62.5 -118q0 -65 48.5 -104.5t162.5 -67.5q299 -72 404 -119q101 -45 156.5 -120.5t55.5 -209.5q0 -110 -40 -193.5t-112.5 -135t-170.5 -77.5t-219 -26q-260 0 -416 116.5t-160 338.5h275
q3 -104 84.5 -165t218.5 -61q126 0 195 51t69 142q0 65 -45 105.5t-166 66.5q-105 23 -155 35t-111 30.5t-107 38.5q-113 52 -170 131.5t-57 204.5q0 189 128 303.5t370 114.5q252 0 395 -123t151 -324zM674 1501h-217l-262 275l94 104l276 -242l277 242l94 -104z" />
    <glyph glyph-name="scaron" unicode="&#x161;" horiz-adv-x="966" 
d="M915 702h-256q-10 73 -53.5 103.5t-134.5 30.5q-158 0 -158 -84q0 -42 37.5 -66t126.5 -49q40 -12 106 -28.5t113 -30t82 -27.5q83 -34 124.5 -91.5t41.5 -152.5q0 -158 -113.5 -246t-326.5 -88q-227 0 -355 96.5t-131 254.5h275q0 -70 56 -110t153 -40q77 0 127.5 25.5
t50.5 79.5q0 26 -12 45t-38 32t-49.5 20.5t-62.5 16.5q-134 32 -209 57.5t-127 57.5q-127 80 -127 227q0 137 102.5 218t321.5 81q215 0 320 -83t116 -249zM596 1149h-217l-262 274l94 105l276 -242l277 242l94 -105z" />
    <glyph glyph-name="uni0162" unicode="&#x162;" horiz-adv-x="1134" 
d="M702 0h-284v1122h-410v238h1106v-238h-412v-1122zM457 -477v88q63 4 96 38.5t35 94.5h-131v168h235v-111q0 -121 -53.5 -194t-181.5 -84z" />
    <glyph glyph-name="uni0162" unicode="&#x21a;" horiz-adv-x="1134" 
d="M702 0h-284v1122h-410v238h1106v-238h-412v-1122zM457 -477v88q63 4 96 38.5t35 94.5h-131v168h235v-111q0 -121 -53.5 -194t-181.5 -84z" />
    <glyph glyph-name="uni0163" unicode="&#x163;" horiz-adv-x="927" 
d="M625 401v263h247v-287q0 -82 -24 -153.5t-72 -128t-128 -89.5t-183 -33q-107 0 -188 32.5t-129 89.5t-71.5 128.5t-23.5 155.5v901h262v-272h557v-189h-557v-413q0 -201 154 -201q156 0 156 196zM354 -477v88q63 4 96 38.5t35 94.5h-131v168h236v-111q0 -121 -54 -194
t-182 -84z" />
    <glyph glyph-name="uni0163" unicode="&#x21b;" horiz-adv-x="927" 
d="M625 401v263h247v-287q0 -82 -24 -153.5t-72 -128t-128 -89.5t-183 -33q-107 0 -188 32.5t-129 89.5t-71.5 128.5t-23.5 155.5v901h262v-272h557v-189h-557v-413q0 -201 154 -201q156 0 156 196zM354 -477v88q63 4 96 38.5t35 94.5h-131v168h236v-111q0 -121 -54 -194
t-182 -84z" />
    <glyph glyph-name="Tcaron" unicode="&#x164;" horiz-adv-x="1134" 
d="M702 0h-284v1122h-410v238h1106v-238h-412v-1122zM678 1501h-217l-262 275l94 104l276 -242l277 242l94 -104z" />
    <glyph glyph-name="tcaron" unicode="&#x165;" horiz-adv-x="1187" 
d="M625 401v263h247v-287q0 -82 -24 -153.5t-72 -128t-128 -89.5t-183 -33q-107 0 -188 32.5t-129 89.5t-71.5 128.5t-23.5 155.5v901h262v-272h557v-189h-557v-413q0 -201 154 -201q156 0 156 196zM907 819v103q80 21 118.5 71.5t39.5 145.5h-158v276h283v-209
q0 -176 -63 -265t-220 -122z" />
    <glyph glyph-name="Tbar" unicode="&#x166;" horiz-adv-x="1134" 
d="M702 0h-284v508h-193v207h193v407h-410v238h1106v-238h-412v-407h195v-207h-195v-508z" />
    <glyph glyph-name="tbar" unicode="&#x167;" horiz-adv-x="927" 
d="M858 535h-543v-129q0 -201 154 -201q156 0 156 196v37h247v-61q0 -82 -24 -153.5t-72 -128t-128 -89.5t-183 -33q-107 0 -188 32.5t-129 89.5t-71.5 128.5t-23.5 155.5v901h262v-272h557v-189h-557v-106h543v-178z" />
    <glyph glyph-name="Utilde" unicode="&#x168;" horiz-adv-x="1200" 
d="M852 453v907h291v-907q0 -245 -145 -372.5t-414 -127.5q-254 0 -395.5 121.5t-141.5 361.5v924h289v-897q0 -127 64.5 -201t179.5 -74q272 0 272 265zM803 1788l153 -55q-32 -104 -91.5 -152.5t-131.5 -48.5q-44 0 -91 23t-91 46t-80 23q-18 0 -41 -20t-39 -70l-141 76
q58 180 199 180q53 0 104.5 -24.5t94 -49t73.5 -24.5q24 0 49 23.5t33 72.5z" />
    <glyph glyph-name="utilde" unicode="&#x169;" horiz-adv-x="1024" 
d="M961 0h-252v141q-102 -168 -314 -168q-151 0 -246.5 103t-95.5 268v664h266v-623q0 -188 170 -188q99 0 153 63t54 166v582h265v-1008zM731 1436l154 -56q-32 -104 -91.5 -152t-131.5 -48q-44 0 -91 23t-91.5 46t-80.5 23q-18 0 -41 -20t-39 -70l-141 75q59 181 199 181
q42 0 84 -15.5t70 -34t60 -34t58 -15.5q23 0 48.5 24t33.5 73z" />
    <glyph glyph-name="Umacron" unicode="&#x16a;" horiz-adv-x="1200" 
d="M852 453v907h291v-907q0 -245 -145 -372.5t-414 -127.5q-254 0 -395.5 121.5t-141.5 361.5v924h289v-897q0 -127 64.5 -201t179.5 -74q272 0 272 265zM993 1585h-780v187h780v-187z" />
    <glyph glyph-name="umacron" unicode="&#x16b;" horiz-adv-x="1024" 
d="M961 0h-252v141q-102 -168 -314 -168q-151 0 -246.5 103t-95.5 268v664h266v-623q0 -188 170 -188q99 0 153 63t54 166v582h265v-1008zM905 1233h-780v186h780v-186z" />
    <glyph glyph-name="Ubreve" unicode="&#x16c;" horiz-adv-x="1200" 
d="M852 453v907h291v-907q0 -245 -145 -372.5t-414 -127.5q-254 0 -395.5 121.5t-141.5 361.5v924h289v-897q0 -127 64.5 -201t179.5 -74q272 0 272 265zM766 1880h168q0 -161 -97.5 -250.5t-234.5 -89.5t-234.5 89.5t-97.5 250.5h168q3 -85 46 -131.5t118 -46.5t118 46.5
t46 131.5z" />
    <glyph glyph-name="ubreve" unicode="&#x16d;" horiz-adv-x="1024" 
d="M961 0h-252v141q-102 -168 -314 -168q-151 0 -246.5 103t-95.5 268v664h266v-623q0 -188 170 -188q99 0 153 63t54 166v582h265v-1008zM678 1528h168q0 -161 -97.5 -250.5t-234.5 -89.5t-234.5 89.5t-97.5 250.5h168q3 -85 46 -131.5t118 -46.5t118 46.5t46 131.5z" />
    <glyph glyph-name="Uring" unicode="&#x16e;" horiz-adv-x="1200" 
d="M852 453v907h291v-907q0 -245 -145 -372.5t-414 -127.5q-254 0 -395.5 121.5t-141.5 361.5v924h289v-897q0 -127 64.5 -201t179.5 -74q272 0 272 265zM815 1683q0 -98 -51 -147t-162 -49q-213 0 -213 196q0 95 53.5 146t159.5 51q213 0 213 -197zM709 1683
q0 105 -107 105q-102 0 -102 -105q0 -100 102 -100q107 0 107 100z" />
    <glyph glyph-name="uring" unicode="&#x16f;" horiz-adv-x="1024" 
d="M961 0h-252v141q-102 -168 -314 -168q-151 0 -246.5 103t-95.5 268v664h266v-623q0 -188 170 -188q99 0 153 63t54 166v582h265v-1008zM727 1331q0 -98 -51 -147t-162 -49q-213 0 -213 196q0 95 53.5 146t159.5 51q213 0 213 -197zM621 1331q0 105 -107 105
q-102 0 -102 -105q0 -100 102 -100q107 0 107 100z" />
    <glyph glyph-name="Uhungarumlaut" unicode="&#x170;" horiz-adv-x="1200" 
d="M852 453v907h291v-907q0 -245 -145 -372.5t-414 -127.5q-254 0 -395.5 121.5t-141.5 361.5v924h289v-897q0 -127 64.5 -201t179.5 -74q272 0 272 265zM432 1518l-76 67l279 301l90 -76zM985 1804l-307 -286l-76 67l291 295z" />
    <glyph glyph-name="uhungarumlaut" unicode="&#x171;" horiz-adv-x="1024" 
d="M961 0h-252v141q-102 -168 -314 -168q-151 0 -246.5 103t-95.5 268v664h266v-623q0 -188 170 -188q99 0 153 63t54 166v582h265v-1008zM344 1165l-76 68l279 301l90 -76zM897 1452l-307 -287l-76 68l291 295z" />
    <glyph glyph-name="Uogonek" unicode="&#x172;" horiz-adv-x="1200" 
d="M864 -240v-184q-67 -53 -215 -53q-108 0 -166.5 46.5t-58.5 127.5q0 153 231 260q-46 -4 -71 -4q-254 0 -395.5 121.5t-141.5 361.5v924h289v-897q0 -127 64.5 -201t179.5 -74q272 0 272 265v907h291v-907q0 -347 -285 -455q-99 -45 -148.5 -77.5t-63 -54.5t-13.5 -54
q0 -33 35 -50.5t96 -17.5q50 0 100 16z" />
    <glyph glyph-name="uogonek" unicode="&#x173;" horiz-adv-x="1024" 
d="M961 -240v-184q-67 -53 -216 -53q-108 0 -166.5 46.5t-58.5 127.5q0 97 93.5 174.5t258.5 128.5h-163v141q-102 -168 -314 -168q-151 0 -246.5 103t-95.5 268v664h266v-623q0 -188 170 -188q99 0 153 63t54 166v582h265v-1008q-102 -46 -153 -79t-65 -55t-14 -54
q0 -33 35 -50.5t96 -17.5q51 0 101 16z" />
    <glyph glyph-name="Wcircumflex" unicode="&#x174;" horiz-adv-x="1753" 
d="M1358 0h-275l-211 885l-215 -885h-266l-385 1360h303l223 -881l189 881h299l207 -881l221 881h291zM1155 1501l-276 242l-277 -242l-94 105l262 274h217l262 -274z" />
    <glyph glyph-name="wcircumflex" unicode="&#x175;" horiz-adv-x="1462" 
d="M1157 0h-272l-160 586l-160 -586h-272l-287 1008h281l164 -648l139 648h270l158 -648l153 648h275zM1010 1149l-277 242l-276 -242l-95 104l263 275h217l262 -275z" />
    <glyph glyph-name="Ycircumflex" unicode="&#x176;" horiz-adv-x="1232" 
d="M762 0h-285v514l-471 846h332l287 -553l264 553h328l-455 -850v-510zM911 1501l-276 242l-277 -242l-94 105l262 274h217l263 -274z" />
    <glyph glyph-name="ycircumflex" unicode="&#x177;" horiz-adv-x="1028" 
d="M694 -31v164q-27 -66 -102 -104.5t-170 -38.5q-161 0 -265 100.5t-104 263.5v654h266v-615q0 -188 170 -188q90 0 147.5 53t57.5 135v615h267v-1035q0 -139 -62.5 -242.5t-166.5 -155.5t-234 -52q-217 0 -331 111.5t-114 310.5h248q0 -91 53.5 -142t155.5 -51
q75 0 129.5 60.5t54.5 156.5zM793 1149l-277 242l-276 -242l-95 104l263 275h217l262 -275z" />
    <glyph glyph-name="Ydieresis" unicode="&#x178;" horiz-adv-x="1232" 
d="M762 0h-285v514l-471 846h332l287 -553l264 553h328l-455 -850v-510zM553 1538h-266v254h266v-254zM963 1538h-267v254h267v-254z" />
    <glyph glyph-name="Ydieresis" unicode="&#x3ab;" horiz-adv-x="1232" 
d="M762 0h-285v514l-471 846h332l287 -553l264 553h328l-455 -850v-510zM553 1538h-266v254h266v-254zM963 1538h-267v254h267v-254z" />
    <glyph glyph-name="Zacute" unicode="&#x179;" horiz-adv-x="1089" 
d="M1071 0h-1063v242l707 880h-686v238h1042v-223l-711 -895h711v-242zM868 1679l-456 -192l-64 112l424 248z" />
    <glyph glyph-name="zacute" unicode="&#x17a;" horiz-adv-x="911" 
d="M887 0h-869v205l514 592h-479v211h819v-215l-514 -576h529v-217zM780 1327l-456 -192l-64 112l424 248z" />
    <glyph glyph-name="Zdotaccent" unicode="&#x17b;" horiz-adv-x="1089" 
d="M1071 0h-1063v242l707 880h-686v238h1042v-223l-711 -895h711v-242zM690 1538h-266v254h266v-254z" />
    <glyph glyph-name="zdotaccent" unicode="&#x17c;" horiz-adv-x="911" 
d="M887 0h-869v205l514 592h-479v211h819v-215l-514 -576h529v-217zM600 1186h-266v254h266v-254z" />
    <glyph glyph-name="Zcaron" unicode="&#x17d;" horiz-adv-x="1089" 
d="M1071 0h-1063v242l707 880h-686v238h1042v-223l-711 -895h711v-242zM657 1501h-217l-262 275l94 104l277 -242l276 242l95 -104z" />
    <glyph glyph-name="zcaron" unicode="&#x17e;" horiz-adv-x="911" 
d="M887 0h-869v205l514 592h-479v211h819v-215l-514 -576h529v-217zM567 1149h-217l-262 274l94 105l277 -242l276 242l94 -105z" />
    <glyph glyph-name="uni018E" unicode="&#x18e;" horiz-adv-x="1089" 
d="M1034 0h-1028v236h760v358h-670v235h670v299h-727v232h995v-1360z" />
    <glyph glyph-name="uni018F" unicode="&#x18f;" horiz-adv-x="1372" 
d="M692 -47q-138 0 -247 37t-182.5 103t-121.5 162t-69 209t-21 249q0 41 2 61h1008q-15 189 -109 287t-258 98q-252 0 -332 -239h-288q55 234 210.5 359.5t403.5 125.5q311 0 479 -195t168 -546q0 -350 -166.5 -530.5t-476.5 -180.5zM688 190q162 0 261.5 95.5t111.5 287.5
h-748q20 -194 118 -288.5t257 -94.5z" />
    <glyph glyph-name="uni018F" unicode="&#x4d8;" horiz-adv-x="1372" 
d="M692 -47q-138 0 -247 37t-182.5 103t-121.5 162t-69 209t-21 249q0 41 2 61h1008q-15 189 -109 287t-258 98q-252 0 -332 -239h-288q55 234 210.5 359.5t403.5 125.5q311 0 479 -195t168 -546q0 -350 -166.5 -530.5t-476.5 -180.5zM688 190q162 0 261.5 95.5t111.5 287.5
h-748q20 -194 118 -288.5t257 -94.5z" />
    <glyph glyph-name="florin" unicode="&#x192;" horiz-adv-x="1101" 
d="M160 -354h-115v229h148q110 0 133 164l102 706h-143v207h172l8 49q15 102 57.5 176.5t106 117t137.5 62t162 19.5h116v-229h-149q-110 0 -133 -164l-4 -31h178v-207h-209l-104 -725q-15 -102 -57.5 -176.5t-106 -116.5t-137.5 -61.5t-162 -19.5z" />
    <glyph glyph-name="uni0194" unicode="&#x194;" horiz-adv-x="1214" 
d="M606 -477q-160 0 -233.5 63.5t-73.5 216.5q0 69 33 180t147 379l-467 998h297l297 -701l297 701h295l-467 -995q114 -267 147 -378.5t33 -181.5q0 -155 -72 -218.5t-233 -63.5zM606 94q-59 -125 -81.5 -195t-22.5 -122q0 -58 24.5 -86.5t79.5 -28.5q54 0 78.5 28.5
t24.5 86.5q0 101 -103 317z" />
    <glyph glyph-name="uni019D" unicode="&#x19d;" horiz-adv-x="1210" 
d="M1159 0h-258l-590 926v-994q0 -181 -113.5 -295t-285.5 -114q-40 0 -78 6v244q25 -19 70 -19q76 0 112.5 50t36.5 139v1417h295l551 -887v887h260v-1360z" />
    <glyph glyph-name="Ohorn" unicode="&#x1a0;" horiz-adv-x="1574" 
d="M1397 1438h143q43 -49 43 -160q0 -112 -50 -165.5t-138 -53.5q-70 0 -152 31q90 -175 90 -428q0 -348 -167 -528.5t-482 -180.5q-314 0 -483.5 185.5t-169.5 529.5q0 348 170.5 542.5t482.5 194.5q258 0 422 -139q86 -72 211 -72q98 0 98 129q0 70 -18 115zM684 197
q163 0 266 117.5t103 347.5q0 241 -95 366t-274 125q-181 0 -277 -125.5t-96 -365.5q0 -465 373 -465z" />
    <glyph glyph-name="ohorn" unicode="&#x1a1;" horiz-adv-x="1333" 
d="M1155 1112h143q43 -49 43 -160q0 -57 -14.5 -104.5t-53 -81t-95.5 -33.5q-98 0 -170 29q53 -112 53 -258q0 -240 -139 -385.5t-373 -145.5q-241 0 -379.5 146t-138.5 385q0 241 140 385.5t378 144.5q186 0 315 -94q100 -72 211 -72q99 0 99 129q0 67 -19 115zM549 197
q244 0 244 307q0 305 -244 305t-244 -305q0 -307 244 -307z" />
    <glyph glyph-name="Uhorn" unicode="&#x1af;" horiz-adv-x="1531" 
d="M852 453v907h291v-150q49 -16 102 -16q57 0 83 30t26 99q0 67 -19 115h144q43 -49 43 -162q0 -109 -52.5 -164t-140.5 -55q-91 0 -186 53v-657q0 -245 -144.5 -372.5t-410.5 -127.5q-258 0 -399.5 121t-141.5 362v924h289v-897q0 -130 64.5 -202.5t193.5 -72.5
q123 0 190.5 67t67.5 198z" />
    <glyph glyph-name="uhorn" unicode="&#x1b0;" horiz-adv-x="1306" 
d="M961 0h-252v141q-101 -168 -308 -168q-158 0 -253 102.5t-95 268.5v664h266v-623q0 -188 168 -188q100 0 154.5 62.5t54.5 166.5v582h265v-131q43 -9 77 -9q61 0 84 33.5t23 93.5q0 69 -19 117h144q43 -49 43 -162q0 -109 -51.5 -163t-139.5 -54q-77 0 -161 37v-770z" />
    <glyph glyph-name="uni04D9" unicode="&#x1dd;" 
d="M725 406h-412q3 -107 63 -164.5t144 -57.5q82 0 140 60t65 162zM39 573h694q-6 114 -66.5 182t-158.5 68q-66 0 -116.5 -30.5t-63.5 -81.5h-275q45 154 162.5 238.5t280.5 84.5q503 0 503 -549q0 -236 -129 -374t-358 -138q-233 0 -353 151t-120 449z" />
    <glyph glyph-name="uni04D9" unicode="&#x4d9;" 
d="M725 406h-412q3 -107 63 -164.5t144 -57.5q82 0 140 60t65 162zM39 573h694q-6 114 -66.5 182t-158.5 68q-66 0 -116.5 -30.5t-63.5 -81.5h-275q45 154 162.5 238.5t280.5 84.5q503 0 503 -549q0 -236 -129 -374t-358 -138q-233 0 -353 151t-120 449z" />
    <glyph glyph-name="uni04D9" unicode="&#x259;" 
d="M725 406h-412q3 -107 63 -164.5t144 -57.5q82 0 140 60t65 162zM39 573h694q-6 114 -66.5 182t-158.5 68q-66 0 -116.5 -30.5t-63.5 -81.5h-275q45 154 162.5 238.5t280.5 84.5q503 0 503 -549q0 -236 -129 -374t-358 -138q-233 0 -353 151t-120 449z" />
    <glyph glyph-name="Gcaron" unicode="&#x1e6;" horiz-adv-x="1347" 
d="M1296 0h-235l-6 135q-49 -86 -158 -134t-250 -48q-182 0 -325 104t-217 269t-74 356q0 152 43.5 282.5t125.5 229t210.5 155t289.5 56.5q244 0 411.5 -131t182.5 -334h-286q-10 95 -100.5 162t-207.5 67q-174 0 -276 -130t-102 -369q0 -69 13.5 -135.5t43 -128.5
t72.5 -109t107 -75.5t140 -28.5q139 0 235.5 91.5t96.5 219.5h-301v227h567v-731zM784 1501h-217l-262 275l94 104l277 -242l276 242l95 -104z" />
    <glyph glyph-name="gcaron" unicode="&#x1e7;" horiz-adv-x="1085" 
d="M537 201q99 0 163 76.5t64 201.5q0 324 -227 324q-228 0 -228 -307q0 -133 64 -214t164 -81zM756 -31v166q-27 -67 -102.5 -105t-174.5 -38q-97 0 -174 29t-127 77.5t-83.5 115.5t-47.5 140.5t-14 155.5q0 231 127 377.5t313 146.5q190 0 283 -151v125h266v-1018
q0 -147 -67.5 -254.5t-179.5 -160t-255 -52.5q-214 0 -350.5 115t-136.5 307h248q0 -90 60 -141.5t161 -51.5q108 0 181 59.5t73 157.5zM639 1149h-217l-262 274l94 105l276 -242l277 242l94 -105z" />
    <glyph glyph-name="uni01F4" unicode="&#x1f4;" horiz-adv-x="1347" 
d="M1296 0h-235l-6 135q-49 -86 -158 -134t-250 -48q-182 0 -325 104t-217 269t-74 356q0 152 43.5 282.5t125.5 229t210.5 155t289.5 56.5q244 0 411.5 -131t182.5 -334h-286q-10 95 -100.5 162t-207.5 67q-174 0 -276 -130t-102 -369q0 -69 13.5 -135.5t43 -128.5
t72.5 -109t107 -75.5t140 -28.5q139 0 235.5 91.5t96.5 219.5h-301v227h567v-731zM997 1679l-456 -192l-64 112l424 248z" />
    <glyph glyph-name="uni01F5" unicode="&#x1f5;" horiz-adv-x="1085" 
d="M537 201q99 0 163 76.5t64 201.5q0 324 -227 324q-228 0 -228 -307q0 -133 64 -214t164 -81zM756 -31v166q-27 -67 -102.5 -105t-174.5 -38q-97 0 -174 29t-127 77.5t-83.5 115.5t-47.5 140.5t-14 155.5q0 231 127 377.5t313 146.5q190 0 283 -151v125h266v-1018
q0 -147 -67.5 -254.5t-179.5 -160t-255 -52.5q-214 0 -350.5 115t-136.5 307h248q0 -90 60 -141.5t161 -51.5q108 0 181 59.5t73 157.5zM850 1327l-457 -192l-63 112l424 248z" />
    <glyph glyph-name="uni01F8" unicode="&#x1f8;" horiz-adv-x="1210" 
d="M1155 0h-262l-582 913v-913h-264v1360h301l541 -875v875h266v-1360zM741 1487l-456 192l96 168l424 -248z" />
    <glyph glyph-name="uni01F9" unicode="&#x1f9;" 
d="M967 0h-269v610q0 115 -37.5 157t-134.5 42q-207 0 -207 -231v-578h-266v1008h254v-148q94 174 326 174q149 0 241.5 -88t92.5 -248v-698zM651 1135l-456 192l96 168l424 -248z" />
    <glyph glyph-name="uni0237" unicode="&#x237;" horiz-adv-x="399" 
d="M74 -57v1065h268v-1076q0 -181 -113 -295t-284 -114q-202 0 -304 111t-102 311h250q0 -187 141 -187q77 0 110.5 47.5t33.5 137.5z" />
    <glyph glyph-name="uni0241" unicode="&#x241;" horiz-adv-x="1005" 
d="M641 0h-279v403q0 123 36 214t132 157q9 7 34.5 23t41 27t37 31.5t34.5 40.5t22.5 50.5t9.5 65.5q0 93 -58 136.5t-147 43.5q-203 0 -213 -227h-252q0 209 117 324.5t358 115.5q220 0 339.5 -99.5t119.5 -291.5q0 -62 -11.5 -107t-41 -83.5t-56.5 -62.5t-82 -65
q-87 -67 -114 -122t-27 -171v-403z" />
    <glyph glyph-name="uni0242" unicode="&#x242;" horiz-adv-x="1005" 
d="M633 0h-260v160q0 118 39 190.5t123 132.5q99 70 132 106t33 91q0 137 -180 137q-113 0 -164 -48.5t-51 -117.5h-262q0 183 115.5 283t353.5 100q219 0 336 -87.5t117 -258.5q0 -42 -9 -76t-20.5 -57t-40 -49.5t-50.5 -43t-69 -48.5q-61 -43 -87.5 -69.5t-41 -69.5
t-14.5 -115v-160z" />
    <glyph glyph-name="uni024C" unicode="&#x24c;" horiz-adv-x="1433" 
d="M1368 0h-278v350q0 100 -46 141t-167 41h-304v-532h-276v532h-297v230h297v598h690q187 0 302.5 -111t115.5 -282q0 -111 -53.5 -196t-149.5 -120q92 -30 129 -88.5t37 -177.5v-385zM940 1124h-367v-362h357q109 0 159 48.5t50 131.5q0 84 -49 133t-150 49z" />
    <glyph glyph-name="uni024D" unicode="&#x24d;" horiz-adv-x="798" 
d="M463 0h-266v354h-197v187h197v467h249v-121q32 49 67.5 80t76 44.5t74 18t81.5 4.5h35v-272q-38 6 -73 6q-238 0 -244 -227h317v-187h-317v-354z" />
    <glyph glyph-name="uni0263" unicode="&#x263;" horiz-adv-x="1026" 
d="M512 -477q-150 0 -228.5 57t-78.5 197q0 49 31.5 137t152.5 354l-377 740h283l215 -476l217 476h285l-381 -742q122 -264 154 -352t32 -137q0 -140 -77.5 -197t-227.5 -57zM512 27l-2 2q-86 -173 -86 -254q0 -92 86 -92q45 0 67.5 22.5t22.5 58.5q0 49 -30.5 138.5
t-57.5 124.5z" />
    <glyph glyph-name="uni0272" unicode="&#x272;" 
d="M319 578v-646q0 -181 -112.5 -295t-280.5 -114q-27 0 -63 4v237q20 -10 51 -10q29 0 51.5 8.5t37 19.5t24.5 35.5t15 43t7.5 56t3 60.5t0.5 70v961h254v-148q45 86 126.5 130t191.5 44q157 0 249.5 -87.5t92.5 -248.5v-698h-269v610q0 113 -36.5 156t-126.5 43
q-110 0 -163 -56.5t-53 -174.5z" />
    <glyph glyph-name="circumflex" unicode="&#x2c6;" horiz-adv-x="942" 
d="M750 1149l-277 242l-276 -242l-95 104l263 275h217l262 -275z" />
    <glyph glyph-name="caron" unicode="&#x2c7;" horiz-adv-x="940" 
d="M582 1149h-217l-263 274l95 105l276 -242l277 242l94 -105z" />
    <glyph glyph-name="uni02C9" unicode="&#x2c9;" horiz-adv-x="978" 
d="M883 1233h-781v186h781v-186z" />
    <glyph glyph-name="breve" unicode="&#x2d8;" horiz-adv-x="864" 
d="M598 1528h168q0 -161 -97.5 -250.5t-234.5 -89.5t-234.5 89.5t-97.5 250.5h168q3 -85 46 -131.5t118 -46.5t118 46.5t46 131.5z" />
    <glyph glyph-name="dotaccent" unicode="&#x2d9;" horiz-adv-x="450" 
d="M369 1186h-267v254h267v-254z" />
    <glyph glyph-name="ring" unicode="&#x2da;" horiz-adv-x="626" 
d="M528 1331q0 -98 -51 -147t-162 -49q-213 0 -213 196q0 95 53.5 146t159.5 51q213 0 213 -197zM422 1331q0 105 -107 105q-102 0 -102 -105q0 -100 102 -100q107 0 107 100z" />
    <glyph glyph-name="ogonek" unicode="&#x2db;" horiz-adv-x="641" 
d="M543 -240v-184q-67 -53 -215 -53q-109 0 -167.5 46.5t-58.5 127.5q0 97 94 174.5t259 128.5h88q-102 -46 -153 -79t-65 -55t-14 -54q0 -33 35 -50.5t96 -17.5q51 0 101 16z" />
    <glyph glyph-name="tilde" unicode="&#x2dc;" horiz-adv-x="907" 
d="M655 1436l154 -56q-32 -104 -91.5 -152t-131.5 -48q-44 0 -91 23t-91 46t-80 23q-18 0 -41 -20t-39 -70l-142 75q59 181 199 181q42 0 84 -15.5t70 -34t60 -34t58 -15.5q23 0 48.5 24t33.5 73z" />
    <glyph glyph-name="hungarumlaut" unicode="&#x2dd;" horiz-adv-x="813" 
d="M178 1165l-76 68l279 301l90 -76zM731 1452l-307 -287l-76 68l291 295z" />
    <glyph glyph-name="gravecomb" unicode="&#x300;" horiz-adv-x="0" 
d="M-375 1135l-456 192l96 168l424 -248z" />
    <glyph glyph-name="acutecomb" unicode="&#x301;" horiz-adv-x="0" 
d="M-188 1327l-457 -192l-64 112l424 248z" />
    <glyph glyph-name="uni0302" unicode="&#x302;" horiz-adv-x="0" 
d="M-233 1149l-277 242l-276 -242l-95 104l263 275h217l262 -275z" />
    <glyph glyph-name="tildecomb" unicode="&#x303;" horiz-adv-x="757" 
d="M541 1528l104 -29q-32 -125 -160 -125q-36 0 -109 20.5t-95 20.5q-34 0 -58 -65l-100 41q35 129 143 129q52 0 119 -23.5t98 -23.5q48 0 58 55zM659 1196l-69 -61l-209 143l-207 -143l-72 61l197 164h164z" />
    <glyph glyph-name="uni0304" unicode="&#x304;" horiz-adv-x="0" 
d="M-121 1233h-780v186h780v-186z" />
    <glyph glyph-name="uni0306" unicode="&#x306;" horiz-adv-x="0" 
d="M-348 1528h168q0 -161 -97.5 -250.5t-234.5 -89.5t-234.5 89.5t-97.5 250.5h168q3 -85 46 -131.5t118 -46.5t118 46.5t46 131.5z" />
    <glyph glyph-name="uni0307" unicode="&#x307;" horiz-adv-x="0" 
d="M-371 1186h-266v254h266v-254z" />
    <glyph glyph-name="uni0308" unicode="&#x308;" horiz-adv-x="0" 
d="M-575 1186h-267v254h267v-254zM-166 1186h-266v254h266v-254z" />
    <glyph glyph-name="hookabovecomb" unicode="&#x309;" horiz-adv-x="497" 
d="M276 1190h-102q0 77 51 108q25 14 36 26.5t11 35.5q0 35 -49 35q-41 0 -84 -31l-37 113q29 24 70 37.5t74 13.5q70 0 110.5 -34t40.5 -91q0 -32 -12.5 -56.5t-30.5 -41t-35.5 -31.5t-30 -36.5t-12.5 -47.5z" />
    <glyph glyph-name="uni030A" unicode="&#x30a;" horiz-adv-x="0" 
d="M-299 1331q0 -98 -51 -147t-162 -49q-213 0 -213 196q0 95 53.5 146t159.5 51q213 0 213 -197zM-406 1331q0 105 -106 105q-102 0 -102 -105q0 -100 102 -100q106 0 106 100z" />
    <glyph glyph-name="uni030B" unicode="&#x30b;" horiz-adv-x="0" 
d="M-692 1165l-76 68l279 301l90 -76zM-139 1452l-307 -287l-76 68l291 295z" />
    <glyph glyph-name="uni030C" unicode="&#x30c;" horiz-adv-x="0" 
d="M-401 1149h-217l-263 274l95 105l276 -242l277 242l94 -105z" />
    <glyph glyph-name="uni0313" unicode="&#x313;" horiz-adv-x="0" 
d="M-406 1520v-88q-63 -4 -96 -39t-35 -95h131v-168h-235v111q0 121 53.5 194.5t181.5 84.5z" />
    <glyph glyph-name="uni031B" unicode="&#x31b;" horiz-adv-x="309" 
d="M-63 780v101q50 -17 98 -17q110 0 110 125q0 61 -20 123h139q45 -48 45 -162q0 -109 -53 -164t-141 -55q-87 0 -178 49z" />
    <glyph glyph-name="dotbelowcomb" unicode="&#x323;" horiz-adv-x="450" 
d="M369 -422h-267v254h267v-254z" />
    <glyph glyph-name="uni0326" unicode="&#x326;" horiz-adv-x="0" 
d="M-623 -477v88q63 4 96 38.5t35 94.5h-131v168h236v-111q0 -121 -54 -194t-182 -84z" />
    <glyph glyph-name="uni0328" unicode="&#x328;" horiz-adv-x="0" 
d="M-293 -240v-184q-67 -53 -215 -53q-108 0 -166.5 46.5t-58.5 127.5q0 97 93.5 174.5t258.5 128.5h88q-102 -46 -153 -79t-64.5 -55t-13.5 -54q0 -33 35 -50.5t96 -17.5q50 0 100 16z" />
    <glyph glyph-name="uni032D" unicode="&#x32d;" horiz-adv-x="0" 
d="M-236 -465l-276 242l-276 -242l-95 105l262 274h218l262 -274z" />
    <glyph glyph-name="tonos" unicode="&#x384;" horiz-adv-x="307" 
d="M213 848h-166q4 344 8 512h240z" />
    <glyph glyph-name="dieresistonos" unicode="&#x385;" horiz-adv-x="0" 
d="M-432 1114h-166q4 344 8 512h240zM-61 1186h-267v254h267v-254zM-643 1186h-266v254h266v-254z" />
    <glyph glyph-name="Alphatonos" unicode="&#x386;" horiz-adv-x="1376" 
d="M883 514l-170 541h-2l-174 -541h346zM1360 0h-309l-86 281h-502l-96 -281h-301l485 1360h330zM213 848h-166q4 344 8 512h240z" />
    <glyph glyph-name="anoteleia" unicode="&#x387;" horiz-adv-x="382" 
d="M332 731h-285v277h285v-277z" />
    <glyph glyph-name="Epsilontonos" unicode="&#x388;" horiz-adv-x="1394" 
d="M1386 0h-1032v1360h1000v-238h-723v-291h665v-239h-665v-350h755v-242zM213 848h-166q4 344 8 512h240z" />
    <glyph glyph-name="Etatonos" unicode="&#x389;" horiz-adv-x="1509" 
d="M1456 0h-287v610h-530v-610h-285v1360h285v-512h530v512h287v-1360zM213 848h-166q4 344 8 512h240z" />
    <glyph glyph-name="Iotatonos" unicode="&#x38a;" horiz-adv-x="690" 
d="M639 0h-285v1360h285v-1360zM213 848h-166q4 344 8 512h240z" />
    <glyph glyph-name="Omicrontonos" unicode="&#x38c;" horiz-adv-x="1589" 
d="M901 197q163 0 266 117.5t103 347.5q0 241 -95 366t-274 125q-181 0 -277 -125.5t-96 -365.5q0 -465 373 -465zM901 -47q-314 0 -483.5 185.5t-169.5 529.5q0 348 170.5 542.5t482.5 194.5t480.5 -195.5t168.5 -547.5q0 -348 -167 -528.5t-482 -180.5zM213 848h-166
q4 344 8 512h240z" />
    <glyph glyph-name="Upsilontonos" unicode="&#x38e;" horiz-adv-x="1536" 
d="M1065 0h-285v514l-471 846h332l287 -553l264 553h328l-455 -850v-510zM213 848h-166q4 344 8 512h240z" />
    <glyph glyph-name="Omegatonos" unicode="&#x38f;" horiz-adv-x="1570" 
d="M1511 0h-489v205q207 198 207 600q0 373 -330 373q-328 0 -328 -373q0 -377 205 -600v-205h-489v225h202q-97 74 -162 231.5t-65 350.5q0 286 158.5 442t478.5 156q321 0 479 -156t158 -442q0 -193 -65 -350.5t-162 -231.5h202v-225zM213 848h-166q4 344 8 512h240z" />
    <glyph glyph-name="iotadieresistonos" unicode="&#x390;" horiz-adv-x="813" 
d="M254 293v715h254v-682q0 -117 110 -117h60v-209h-131q-293 0 -293 293zM455 1114h-166q4 344 8 512h240zM827 1186h-266v254h266v-254zM246 1186h-266v254h266v-254z" />
    <glyph glyph-name="Gamma" unicode="&#x393;" horiz-adv-x="1026" 
d="M45 1360h956v-232h-677v-1128h-279v1360z" />
    <glyph glyph-name="Gamma" unicode="&#x413;" horiz-adv-x="1026" 
d="M45 1360h956v-232h-677v-1128h-279v1360z" />
    <glyph glyph-name="uni0394" unicode="&#x394;" horiz-adv-x="1316" 
d="M1300 0h-1294l486 1360h329zM651 1055l-268 -822h532l-262 822h-2z" />
    <glyph glyph-name="Theta" unicode="&#x398;" horiz-adv-x="1372" 
d="M680 193q88 0 158.5 27t125.5 82.5t85 149.5t30 220q0 234 -101 360.5t-290 126.5q-190 0 -292.5 -127.5t-102.5 -365.5q0 -239 101.5 -356t285.5 -117zM692 -47q-317 0 -486 185t-169 530q0 348 169.5 542.5t481.5 194.5q311 0 479 -195t168 -548q0 -348 -166 -528.5
t-477 -180.5zM410 594v207h555v-207h-555z" />
    <glyph glyph-name="Lambda" unicode="&#x39b;" horiz-adv-x="1214" 
d="M477 1360h268l461 -1360h-303l-297 954l-295 -954h-295z" />
    <glyph glyph-name="Xi" unicode="&#x39e;" horiz-adv-x="1089" 
d="M993 594h-897v235h897v-235zM1051 1128h-1012v232h1012v-232zM1081 0h-1075v236h1075v-236z" />
    <glyph glyph-name="Pi" unicode="&#x3a0;" horiz-adv-x="1202" 
d="M1153 0h-281v1128h-540v-1128h-279v1360h1100v-1360z" />
    <glyph glyph-name="Pi" unicode="&#x41f;" horiz-adv-x="1202" 
d="M1153 0h-281v1128h-540v-1128h-279v1360h1100v-1360z" />
    <glyph glyph-name="Sigma" unicode="&#x3a3;" horiz-adv-x="1089" 
d="M387 686l-375 457v217h1037v-232h-701l365 -438l-367 -454h731v-236h-1063v236z" />
    <glyph glyph-name="Phi" unicode="&#x3a6;" horiz-adv-x="1458" 
d="M864 0h-268v193q-278 23 -423.5 146t-145.5 339q0 218 147 347.5t422 154.5v180h268v-180q273 -26 419.5 -155.5t146.5 -346.5t-145 -341t-421 -147v-190zM291 680q0 -264 305 -313v632q-144 -24 -224.5 -104t-80.5 -215zM1165 678q0 135 -79 215t-222 106v-632
q301 50 301 311z" />
    <glyph glyph-name="Phi" unicode="&#x424;" horiz-adv-x="1458" 
d="M864 0h-268v193q-278 23 -423.5 146t-145.5 339q0 218 147 347.5t422 154.5v180h268v-180q273 -26 419.5 -155.5t146.5 -346.5t-145 -341t-421 -147v-190zM291 680q0 -264 305 -313v632q-144 -24 -224.5 -104t-80.5 -215zM1165 678q0 135 -79 215t-222 106v-632
q301 50 301 311z" />
    <glyph glyph-name="Psi" unicode="&#x3a8;" horiz-adv-x="1347" 
d="M805 0h-264v338q-186 13 -297 70t-157 151.5t-46 239.5v561h274v-535q0 -112 53 -177.5t173 -86.5v799h264v-799q119 21 171 87t52 179v533h279v-557q0 -217 -116 -330.5t-386 -134.5v-338z" />
    <glyph glyph-name="uni03A9" unicode="&#x3a9;" horiz-adv-x="1333" 
d="M1274 0h-490v205q207 198 207 600q0 373 -329 373q-328 0 -328 -373q0 -377 205 -600v-205h-490v225h203q-97 74 -162 231.5t-65 350.5q0 286 158.5 442t478.5 156q321 0 478.5 -156t157.5 -442q0 -193 -65 -350.5t-162 -231.5h203v-225z" />
    <glyph glyph-name="alphatonos" unicode="&#x3ac;" horiz-adv-x="1193" 
d="M776 166q-52 -91 -126 -142t-193 -51q-197 0 -307.5 142.5t-110.5 376.5q0 249 120.5 395.5t305.5 146.5q100 0 177 -47t116 -147v168h252v-686q0 -113 108 -113h62v-209h-131q-221 0 -273 166zM526 195q115 0 176.5 80t61.5 231q0 158 -64 236.5t-172 78.5
q-107 0 -167 -77.5t-60 -237.5q0 -311 225 -311zM645 1114h-166q4 344 8 512h240z" />
    <glyph glyph-name="epsilontonos" unicode="&#x3ad;" horiz-adv-x="960" 
d="M559 444h-92q-97 0 -141.5 -31.5t-44.5 -103.5q0 -149 192 -149q107 0 154.5 44t52.5 132h262q-5 -75 -34 -138.5t-83.5 -115t-145 -80.5t-208.5 -29q-207 0 -329 86t-122 234q0 103 60 166t153 82q-85 22 -132.5 79t-47.5 140q0 125 107 199.5t311 74.5q118 0 206 -26
t141 -74t81 -107t35 -133h-262q0 84 -45 123t-148 39q-176 0 -176 -117q0 -63 46 -93t124 -30h86v-172zM561 1114h-166q4 344 8 512h240z" />
    <glyph glyph-name="etatonos" unicode="&#x3ae;" 
d="M967 -477h-269v1087q0 115 -37.5 157t-134.5 42q-207 0 -207 -231v-578h-266v1008h254v-148q94 174 326 174q149 0 241.5 -88t92.5 -248v-1175zM602 1114h-166q4 344 8 512h240z" />
    <glyph glyph-name="iotatonos" unicode="&#x3af;" horiz-adv-x="497" 
d="M59 293v715h254v-682q0 -58 29 -87.5t82 -29.5h59v-209h-131q-293 0 -293 293zM254 1114h-166q4 344 8 512h240z" />
    <glyph glyph-name="upsilondieresistonos" unicode="&#x3b0;" horiz-adv-x="1017" 
d="M571 1114h-165q4 344 8 512h239zM510 -27q-227 0 -339 84t-112 277v674h260v-633q0 -100 44.5 -144.5t148.5 -44.5q105 0 150 44.5t45 144.5v633h254v-674q0 -192 -112.5 -276.5t-338.5 -84.5zM942 1186h-266v254h266v-254zM360 1186h-266v254h266v-254z" />
    <glyph glyph-name="alpha" unicode="&#x3b1;" horiz-adv-x="1193" 
d="M776 166q-52 -91 -126 -142t-193 -51q-197 0 -307.5 142.5t-110.5 376.5q0 249 120.5 395.5t305.5 146.5q100 0 177 -47t116 -147v168h252v-686q0 -113 108 -113h62v-209h-131q-221 0 -273 166zM526 195q115 0 176.5 80t61.5 231q0 158 -64 236.5t-172 78.5
q-107 0 -167 -77.5t-60 -237.5q0 -311 225 -311z" />
    <glyph glyph-name="beta" unicode="&#x3b2;" horiz-adv-x="1044" 
d="M575 -25q-146 0 -260 62v-514h-256v1497q0 371 447 371q119 0 205.5 -25.5t136.5 -72.5t73 -107t23 -135q0 -207 -174 -271q128 -38 190 -134.5t62 -233.5q0 -201 -123 -319t-324 -118zM315 1008v-754q90 -66 213 -66q121 0 179.5 64t58.5 172q0 127 -75 186.5t-204 59.5
h-18v164h16q197 0 197 170q0 92 -49 136t-131 44q-85 0 -136 -44t-51 -132z" />
    <glyph glyph-name="gamma" unicode="&#x3b3;" horiz-adv-x="1026" 
d="M639 -477h-254v467l-373 1018h291l215 -674l219 674h275l-373 -1018v-467z" />
    <glyph glyph-name="gamma" unicode="&#x4af;" horiz-adv-x="1026" 
d="M639 -477h-254v467l-373 1018h291l215 -674l219 674h275l-373 -1018v-467z" />
    <glyph glyph-name="delta" unicode="&#x3b4;" horiz-adv-x="1103" 
d="M37 492q0 287 227 413q-121 79 -121 217q0 269 435 269q188 0 309 -33v-197q-102 45 -297 45q-115 0 -167 -20.5t-52 -65.5q0 -72 123 -102q143 -37 207 -58t130 -55q113 -60 172.5 -154.5t59.5 -250.5q0 -240 -137.5 -383.5t-372.5 -143.5q-239 0 -377.5 144.5
t-138.5 374.5zM713 698q-28 23 -73.5 45.5t-77.5 35t-95 34.5q-172 -80 -172 -315q0 -151 68.5 -229.5t189.5 -78.5t184.5 76t63.5 217q0 73 -20 125t-68 90z" />
    <glyph glyph-name="epsilon" unicode="&#x3b5;" horiz-adv-x="960" 
d="M559 444h-92q-97 0 -141.5 -31.5t-44.5 -103.5q0 -149 192 -149q107 0 154.5 44t52.5 132h262q-5 -75 -34 -138.5t-83.5 -115t-145 -80.5t-208.5 -29q-207 0 -329 86t-122 234q0 103 60 166t153 82q-85 22 -132.5 79t-47.5 140q0 125 107 199.5t311 74.5q118 0 206 -26
t141 -74t81 -107t35 -133h-262q0 84 -45 123t-148 39q-176 0 -176 -117q0 -63 46 -93t124 -30h86v-172z" />
    <glyph glyph-name="zeta" unicode="&#x3b6;" horiz-adv-x="985" 
d="M907 1165l-397 -348q-128 -113 -169.5 -190.5t-41.5 -165.5q0 -134 60 -191t180 -57h51q136 0 198 -56.5t62 -181.5v-452h-260v383q0 53 -19 73.5t-73 20.5h-62q-183 0 -289 117.5t-106 302.5q0 144 71.5 269.5t223.5 256.5l260 225h-477v205h788v-211z" />
    <glyph glyph-name="eta" unicode="&#x3b7;" 
d="M967 -477h-269v1087q0 115 -37.5 157t-134.5 42q-207 0 -207 -231v-578h-266v1008h254v-148q94 174 326 174q149 0 241.5 -88t92.5 -248v-1175z" />
    <glyph glyph-name="theta" unicode="&#x3b8;" horiz-adv-x="1122" 
d="M563 -31q-276 0 -396 172t-120 543q0 372 119.5 543.5t396.5 171.5q275 0 392.5 -171t117.5 -542q0 -372 -118 -544.5t-392 -172.5zM563 188q125 0 184.5 90.5t69.5 301.5h-506q9 -214 66 -303t186 -89zM563 1178q-130 0 -186.5 -85.5t-65.5 -299.5h506q-10 209 -69 297
t-185 88z" />
    <glyph glyph-name="iota" unicode="&#x3b9;" horiz-adv-x="497" 
d="M59 293v715h254v-682q0 -58 29 -87.5t82 -29.5h59v-209h-131q-293 0 -293 293z" />
    <glyph glyph-name="kappa" unicode="&#x3ba;" horiz-adv-x="989" 
d="M971 0h-299l-221 453l-129 -134v-319h-269v1008h269v-383l331 383h326l-338 -371z" />
    <glyph glyph-name="kappa" unicode="&#x43a;" horiz-adv-x="989" 
d="M971 0h-299l-221 453l-129 -134v-319h-269v1008h269v-383l331 383h326l-338 -371z" />
    <glyph glyph-name="lambda" unicode="&#x3bb;" horiz-adv-x="1093" 
d="M164 1376h84q162 0 242 -54.5t124 -182.5l291 -817q22 -63 54 -88t94 -25h24v-209h-143q-111 0 -178 57t-107 181l-135 413l-227 -651h-275l398 973l-27 82q-22 65 -55.5 88.5t-108.5 23.5h-55v209z" />
    <glyph glyph-name="uni03BC" unicode="&#x3bc;" horiz-adv-x="1024" 
d="M961 0h-252v141q-102 -168 -314 -168q-24 0 -76 9v-459h-266v1485h266v-623q0 -188 170 -188q99 0 153 63t54 166v582h265v-1008z" />
    <glyph glyph-name="xi" unicode="&#x3be;" horiz-adv-x="985" 
d="M578 860v-172h-91q-100 0 -145 -53.5t-45 -165.5q0 -140 62 -199t173 -59h58q136 0 198 -54.5t62 -179.5v-454h-260v383q0 53 -19.5 73.5t-72.5 20.5h-64q-181 0 -287 118.5t-106 321.5q0 153 59.5 237.5t153.5 108.5q-174 69 -174 271q0 158 103.5 243.5t316.5 85.5
q116 0 203.5 -26t140 -73.5t80.5 -107t34 -132.5h-260q0 82 -45.5 121.5t-140.5 39.5t-139.5 -41t-44.5 -129q0 -82 40 -130t126 -48h84z" />
    <glyph glyph-name="pi" unicode="&#x3c0;" horiz-adv-x="1179" 
d="M729 293v508h-307v-801h-258v801h-150v207h1149v-207h-178v-475q0 -117 109 -117h61v-209h-131q-295 0 -295 293z" />
    <glyph glyph-name="rho" unicode="&#x3c1;" horiz-adv-x="1071" 
d="M59 -477v983q0 110 25 198.5t69.5 149.5t106.5 102t134 59.5t155 18.5q229 0 355 -141.5t126 -394.5q0 -237 -109.5 -381t-302.5 -144q-65 0 -121 16.5t-107 60.5t-77 112v-639h-254zM305 508q0 -151 62 -232t176 -81q106 0 164.5 75.5t58.5 235.5q0 159 -59.5 237
t-165.5 78q-110 0 -173 -80.5t-63 -232.5z" />
    <glyph glyph-name="uni03C2" unicode="&#x3c2;" horiz-adv-x="985" 
d="M498 0h-64q-179 0 -286 129t-107 379q0 267 124 396.5t339 129.5q202 0 326 -104t135 -283h-263q-11 80 -63 125t-135 45q-207 0 -207 -309q0 -158 58.5 -227.5t195.5 -69.5h31q141 0 204.5 -55t63.5 -179v-454h-260v383q0 53 -19.5 73.5t-72.5 20.5z" />
    <glyph glyph-name="sigma" unicode="&#x3c3;" horiz-adv-x="1187" 
d="M1171 823h-276q74 -54 113 -143t39 -203q0 -224 -135.5 -364t-366.5 -140q-233 0 -370.5 144t-137.5 377q0 234 139 374t377 140h618v-185zM553 186q248 0 248 306q0 307 -244 307q-124 0 -188 -77t-64 -230q0 -306 248 -306z" />
    <glyph glyph-name="tau" unicode="&#x3c4;" horiz-adv-x="980" 
d="M965 823h-355v-495q0 -119 109 -119h61v-209h-131q-295 0 -295 293v530h-340v185h951v-185z" />
    <glyph glyph-name="upsilon" unicode="&#x3c5;" horiz-adv-x="1017" 
d="M510 -27q-227 0 -339 84t-112 277v674h260v-633q0 -100 44.5 -144.5t148.5 -44.5q105 0 150 44.5t45 144.5v633h254v-674q0 -192 -112.5 -276.5t-338.5 -84.5z" />
    <glyph glyph-name="phi" unicode="&#x3c6;" horiz-adv-x="1472" 
d="M862 -477h-254v459q-286 21 -430.5 159t-144.5 363t145 362t430 160v350h254v-350q286 -23 431 -160t145 -362q0 -226 -145.5 -363.5t-430.5 -158.5v-459zM295 506q0 -142 75 -221.5t238 -96.5v627q-163 -15 -238 -91.5t-75 -217.5zM1178 506q0 140 -76.5 217t-239.5 92
v-627q316 33 316 318z" />
    <glyph glyph-name="phi" unicode="&#x444;" horiz-adv-x="1472" 
d="M862 -477h-254v459q-286 21 -430.5 159t-144.5 363t145 362t430 160v350h254v-350q286 -23 431 -160t145 -362q0 -226 -145.5 -363.5t-430.5 -158.5v-459zM295 506q0 -142 75 -221.5t238 -96.5v627q-163 -15 -238 -91.5t-75 -217.5zM1178 506q0 140 -76.5 217t-239.5 92
v-627q316 33 316 318z" />
    <glyph glyph-name="chi" unicode="&#x3c7;" horiz-adv-x="1015" 
d="M1004 -477h-295l-207 516l-203 -516h-287l340 758l-329 727h292l197 -500l201 500h280l-336 -727z" />
    <glyph glyph-name="psi" unicode="&#x3c8;" horiz-adv-x="1347" 
d="M547 180v1196h252v-1196q127 3 180 46.5t53 138.5v643h254v-664q0 -124 -45 -202.5t-153.5 -121.5t-288.5 -43v-454h-252v454q-180 0 -289 43t-154 121.5t-45 202.5v664h254v-643q0 -92 61 -138.5t173 -46.5z" />
    <glyph glyph-name="omega" unicode="&#x3c9;" horiz-adv-x="1441" 
d="M815 705v-185q0 -173 38 -251.5t120 -78.5q83 0 123.5 80t40.5 254q0 149 -28 252.5t-89 231.5h262q121 -178 121 -478q0 -264 -98.5 -410.5t-290.5 -146.5q-213 0 -295 193q-85 -193 -293 -193q-192 0 -290.5 145t-98.5 410q0 302 121 480h262q-61 -128 -89 -231.5
t-28 -254.5q0 -173 40 -252.5t124 -79.5q82 0 120 78t38 252v185h190z" />
    <glyph glyph-name="iotadieresis" unicode="&#x3ca;" horiz-adv-x="616" 
d="M147 293v715h254v-682q0 -58 29 -87.5t82 -29.5h59v-209h-131q-293 0 -293 293zM618 1186h-266v254h266v-254zM252 1186h-266v254h266v-254z" />
    <glyph glyph-name="upsilondieresis" unicode="&#x3cb;" horiz-adv-x="1017" 
d="M510 -27q-227 0 -339 84t-112 277v674h260v-633q0 -100 44.5 -144.5t148.5 -44.5q105 0 150 44.5t45 144.5v633h254v-674q0 -192 -112.5 -276.5t-338.5 -84.5zM446 1186h-266v254h266v-254zM856 1186h-266v254h266v-254z" />
    <glyph glyph-name="omicrontonos" unicode="&#x3cc;" horiz-adv-x="1103" 
d="M549 197q244 0 244 307q0 305 -244 305t-244 -305q0 -307 244 -307zM549 -27q-241 0 -379.5 146t-138.5 385q0 241 140 385.5t378 144.5q236 0 374 -144t138 -386q0 -240 -139 -385.5t-373 -145.5zM629 1114h-166q4 344 8 512h240z" />
    <glyph glyph-name="upsilontonos" unicode="&#x3cd;" horiz-adv-x="1017" 
d="M586 1114h-166q4 344 8 512h240zM510 -27q-227 0 -339 84t-112 277v674h260v-633q0 -100 44.5 -144.5t148.5 -44.5q105 0 150 44.5t45 144.5v633h254v-674q0 -192 -112.5 -276.5t-338.5 -84.5z" />
    <glyph glyph-name="omegatonos" unicode="&#x3ce;" horiz-adv-x="1441" 
d="M815 705v-185q0 -173 38 -251.5t120 -78.5q83 0 123.5 80t40.5 254q0 149 -28 252.5t-89 231.5h262q121 -178 121 -478q0 -264 -98.5 -410.5t-290.5 -146.5q-213 0 -295 193q-85 -193 -293 -193q-192 0 -290.5 145t-98.5 410q0 302 121 480h262q-61 -128 -89 -231.5
t-28 -254.5q0 -173 40 -252.5t124 -79.5q82 0 120 78t38 252v185h190zM797 1114h-166q4 344 8 512h240z" />
    <glyph glyph-name="uni0402" unicode="&#x402;" horiz-adv-x="1544" 
d="M1219 27v301q0 133 -20.5 200.5t-70 95t-147.5 27.5q-162 0 -274 -53v-578h-279v1108h-412v232h1137v-232h-446v-309q158 64 366 64q82 0 144 -11.5t117 -41.5t90 -79t55 -126.5t20 -182.5v-415q0 -244 -144.5 -374t-404.5 -130q-453 0 -506 389h263q13 -82 81 -122
t164 -40q127 0 197 70.5t70 206.5z" />
    <glyph glyph-name="uni0403" unicode="&#x403;" horiz-adv-x="1026" 
d="M856 1679l-457 -192l-63 112l424 248zM45 1360h956v-232h-677v-1128h-279v1360z" />
    <glyph glyph-name="uni0404" unicode="&#x404;" horiz-adv-x="1255" 
d="M961 467h284q-43 -236 -198 -375t-388 -139q-135 0 -248.5 46t-198.5 133.5t-133 224t-48 307.5q0 345 170 543t463 198q247 0 403.5 -139.5t177.5 -352.5h-284q-29 114 -110.5 180t-184.5 66q-143 0 -227 -86t-109 -246h448v-233h-456q15 -190 97.5 -291.5t231.5 -101.5
q124 0 202 68.5t108 197.5z" />
    <glyph glyph-name="uni0409" unicode="&#x409;" horiz-adv-x="1994" 
d="M1233 858h276q226 0 353 -106t127 -320q0 -205 -117.5 -318.5t-323.5 -113.5h-594v1128h-368l-19 -321q-10 -176 -26 -300.5t-44 -216t-63.5 -146.5t-91.5 -88t-119.5 -44.5t-156.5 -11.5h-50v242h33q48 0 80.5 7t63 29t50 61t36.5 105t27.5 159.5t17.5 225.5l28 531h881
v-502zM1528 637h-295v-408h295q98 0 156.5 57t58.5 148t-57.5 147t-157.5 56z" />
    <glyph glyph-name="uni040A" unicode="&#x40a;" horiz-adv-x="1746" 
d="M1034 858h264q206 0 323.5 -112t117.5 -316t-117.5 -317t-323.5 -113h-542v635h-426v-635h-277v1360h277v-494h426v494h278v-502zM1280 637h-246v-408h246q96 0 155.5 57t59.5 148q0 90 -58 146.5t-157 56.5z" />
    <glyph glyph-name="uni040B" unicode="&#x40b;" horiz-adv-x="1544" 
d="M16 1128v232h1137v-232h-446v-309q158 64 366 64q82 0 144 -11.5t117 -41.5t90 -79t55 -126.5t20 -182.5v-442h-280v436q0 123 -60.5 169t-179.5 46q-160 0 -272 -53v-598h-279v1128h-412z" />
    <glyph glyph-name="uni040C" unicode="&#x40c;" horiz-adv-x="1236" 
d="M1229 0h-346l-404 612l-151 -149v-463h-281v1360h281v-553l520 553h369l-537 -537zM942 1679l-457 -192l-63 112l424 248z" />
    <glyph glyph-name="uni040D" unicode="&#x40d;" horiz-adv-x="1202" 
d="M737 1487l-456 192l96 168l424 -248zM319 0h-266v1360h271v-887l532 887h297v-1360h-268v926z" />
    <glyph glyph-name="uni040E" unicode="&#x40e;" horiz-adv-x="1177" 
d="M754 1880h168q0 -161 -97.5 -250.5t-234.5 -89.5t-234.5 89.5t-97.5 250.5h168q3 -85 46 -131.5t118 -46.5t118 46.5t46 131.5zM1122 449q0 -245 -142 -370.5t-405 -125.5q-247 0 -375.5 116t-129.5 369h252q1 -130 69.5 -195t190.5 -65q125 0 194.5 67.5t69.5 203.5v235
q-45 -84 -144 -130t-225 -46q-198 0 -311 124t-113 376v352h281v-350q0 -135 67.5 -202t178.5 -67q120 0 193 73t73 194v352h276v-911z" />
    <glyph glyph-name="uni040F" unicode="&#x40f;" horiz-adv-x="1181" 
d="M702 -346h-202v346h-447v1360h279v-1118h540v1118h281v-1360h-451v-346z" />
    <glyph glyph-name="uni0411" unicode="&#x411;" horiz-adv-x="1093" 
d="M330 858h315q206 0 323 -112t117 -316t-117 -317t-323 -113h-592v1360h793v-244h-516v-258zM627 637h-297v-408h297q98 0 156.5 57t58.5 148t-57.5 147t-157.5 56z" />
    <glyph glyph-name="uni0414" unicode="&#x414;" horiz-adv-x="1460" 
d="M227 -346h-204v588h88q63 0 102 20.5t71 83t50 178.5t28 305l29 531h881v-1118h166v-588h-205v346h-1006v-346zM993 1128h-368l-15 -299q-20 -412 -110 -587h493v886z" />
    <glyph glyph-name="uni0416" unicode="&#x416;" horiz-adv-x="1818" 
d="M1802 0h-338l-422 559v-559h-266v559l-422 -559h-340l572 692l-545 668h330l405 -504v504h266v-504l406 504h330l-547 -668z" />
    <glyph glyph-name="uni0417" unicode="&#x417;" horiz-adv-x="1155" 
d="M598 596h-137v235h127q115 0 179 50t64 133q0 160 -251 160q-143 0 -209 -54t-66 -174h-268q0 102 30 183.5t93 144.5t170 97t252 34q258 0 391 -101.5t133 -271.5q0 -115 -58.5 -193.5t-166.5 -107.5q121 -23 194.5 -111.5t73.5 -230.5q0 -202 -152 -319t-419 -117
q-146 0 -256.5 37t-177.5 103.5t-99.5 153.5t-32.5 193h275q8 -127 78 -189.5t221 -62.5q282 0 282 218q0 105 -66.5 147.5t-203.5 42.5z" />
    <glyph glyph-name="uni0418" unicode="&#x418;" horiz-adv-x="1202" 
d="M319 0h-266v1360h271v-887l532 887h297v-1360h-268v926z" />
    <glyph glyph-name="uni0419" unicode="&#x419;" horiz-adv-x="1202" 
d="M766 1880h168q0 -161 -97.5 -250.5t-234.5 -89.5t-234.5 89.5t-97.5 250.5h168q3 -85 46 -131.5t118 -46.5t118 46.5t46 131.5zM319 0h-266v1360h271v-887l532 887h297v-1360h-268v926z" />
    <glyph glyph-name="uni041B" unicode="&#x41b;" horiz-adv-x="1286" 
d="M1235 0h-281v1128h-366l-17 -299q-7 -136 -18 -241.5t-28.5 -190.5t-38.5 -145.5t-52.5 -105.5t-65.5 -73t-82 -44.5t-99 -22.5t-119 -6h-52v242h33q50 0 83 7t63.5 30t49.5 61.5t35 105.5t26 158.5t18 224.5l30 531h881v-1360z" />
    <glyph glyph-name="uni0423" unicode="&#x423;" horiz-adv-x="1177" 
d="M1122 449q0 -245 -142 -370.5t-405 -125.5q-247 0 -375.5 116t-129.5 369h252q1 -130 69.5 -195t190.5 -65q125 0 194.5 67.5t69.5 203.5v235q-45 -84 -144 -130t-225 -46q-198 0 -311 124t-113 376v352h281v-350q0 -135 67.5 -202t178.5 -67q120 0 193 73t73 194v352
h276v-911z" />
    <glyph glyph-name="uni0426" unicode="&#x426;" horiz-adv-x="1339" 
d="M1317 -346h-203v346h-1061v1360h279v-1118h540v1118h281v-1118h164v-588z" />
    <glyph glyph-name="uni0427" unicode="&#x427;" horiz-adv-x="1167" 
d="M1114 0h-276v541q-155 -66 -367 -66q-103 0 -176.5 19.5t-132 67t-88 135.5t-29.5 218v445h281v-438q0 -122 58 -168.5t179 -46.5q165 0 275 55v598h276v-1360z" />
    <glyph glyph-name="uni0428" unicode="&#x428;" horiz-adv-x="1679" 
d="M1624 0h-1571v1360h279v-1118h368v1118h279v-1118h369v1118h276v-1360z" />
    <glyph glyph-name="uni0429" unicode="&#x429;" horiz-adv-x="1812" 
d="M1792 -346h-205v346h-1534v1360h279v-1118h368v1118h279v-1118h369v1118h276v-1118h168v-588z" />
    <glyph glyph-name="uni042A" unicode="&#x42a;" horiz-adv-x="1470" 
d="M707 858h276q227 0 353 -106t126 -320q0 -207 -117.5 -319.5t-322.5 -112.5h-592v1128h-414v232h691v-502zM1004 637h-297v-408h297q98 0 156.5 57t58.5 148t-57.5 147t-157.5 56z" />
    <glyph glyph-name="uni042B" unicode="&#x42b;" horiz-adv-x="1476" 
d="M1425 0h-284v1360h284v-1360zM627 637h-297v-408h297q98 0 156.5 57t58.5 148t-57.5 147t-157.5 56zM330 858h315q206 0 323 -112t117 -316t-117 -317t-323 -113h-592v1360h277v-502z" />
    <glyph glyph-name="uni042C" unicode="&#x42c;" horiz-adv-x="1093" 
d="M627 637h-297v-408h297q98 0 156.5 57t58.5 148t-57.5 147t-157.5 56zM330 858h315q206 0 323 -112t117 -316t-117 -317t-323 -113h-592v1360h277v-502z" />
    <glyph glyph-name="uni042D" unicode="&#x42d;" horiz-adv-x="1255" 
d="M10 467h285q61 -266 309 -266q149 0 232 101.5t98 291.5h-457v233h449q-25 160 -109 246t-227 86q-103 0 -184.5 -66t-110.5 -180h-285q14 138 86 248.5t201.5 177t294.5 66.5q293 0 463 -198t170 -543q0 -171 -48 -307.5t-133 -224t-199 -133.5t-249 -46
q-233 0 -388 139t-198 375z" />
    <glyph glyph-name="uni042E" unicode="&#x42e;" horiz-adv-x="1757" 
d="M332 0h-285v1360h285v-555h90q33 285 199.5 442.5t445.5 157.5q312 0 480.5 -195.5t168.5 -547.5q0 -348 -167 -528.5t-482 -180.5q-293 0 -461 162.5t-190 466.5h-84v-582zM1067 197q163 0 266 117.5t103 347.5q0 241 -95 366t-274 125q-181 0 -277 -125.5t-96 -365.5
q0 -465 373 -465z" />
    <glyph glyph-name="uni042F" unicode="&#x42f;" horiz-adv-x="1183" 
d="M852 532h-201l-313 -532h-324l346 543q-156 26 -241.5 130t-85.5 273q0 198 117 306t323 108h655v-1360h-276v532zM500 748h352v380h-352q-100 0 -156.5 -50t-56.5 -138t57 -140t156 -52z" />
    <glyph glyph-name="uni0431" unicode="&#x431;" horiz-adv-x="1103" 
d="M551 -27q-242 0 -378 148.5t-136 410.5v170q0 248 48 393.5t151 211t278 65.5h115q77 0 117 28.5t53 117.5h157q-18 -162 -107.5 -260.5t-234.5 -98.5h-131q-109 0 -163 -84.5t-54 -228.5q55 81 146.5 116t195.5 35q214 0 334.5 -134t120.5 -363q0 -245 -137.5 -386
t-374.5 -141zM547 190q254 0 254 314q0 309 -252 309q-254 0 -254 -311q0 -312 252 -312z" />
    <glyph glyph-name="uni0432" unicode="&#x432;" horiz-adv-x="1032" 
d="M614 0h-555v1008h600q169 0 246.5 -67.5t77.5 -176.5q0 -86 -44.5 -142t-119.5 -77q83 -20 139 -83t56 -173q0 -135 -97 -212t-303 -77zM313 188h262q175 0 175 138q0 66 -40.5 100.5t-117.5 34.5h-279v-273zM313 600h269q139 0 139 113q0 114 -146 114h-262v-227z" />
    <glyph glyph-name="uni0433" unicode="&#x433;" horiz-adv-x="716" 
d="M322 0h-261v1008h641v-213h-380v-795z" />
    <glyph glyph-name="uni0434" unicode="&#x434;" horiz-adv-x="1204" 
d="M215 -305h-192v518h43q54 0 87.5 14.5t60 59t40.5 126.5t22 216l23 379h727v-795h156v-518h-193v305h-774v-305zM766 795h-277l-10 -181q-7 -116 -28 -230.5t-52 -170.5h367v582z" />
    <glyph glyph-name="uni0436" unicode="&#x436;" horiz-adv-x="1402" 
d="M823 1008v-385l248 385h303l-364 -494l379 -514h-314l-252 377v-377h-245v377l-252 -377h-314l379 514l-364 494h303l248 -385v385h245z" />
    <glyph glyph-name="uni0437" unicode="&#x437;" horiz-adv-x="960" 
d="M494 444h-93v172h86q78 0 124 30t46 93q0 117 -176 117q-103 0 -147.5 -39t-44.5 -123h-262q7 74 35 133t80.5 107t140.5 74t206 26q204 0 311 -74.5t107 -199.5q0 -83 -47.5 -140t-132.5 -79q93 -19 153 -82t60 -166q0 -148 -122 -234t-329 -86q-118 0 -208.5 29
t-145 80.5t-83.5 115t-34 138.5h263q5 -88 52.5 -132t153.5 -44q193 0 193 149q0 72 -44.5 103.5t-141.5 31.5z" />
    <glyph glyph-name="uni0438" unicode="&#x438;" horiz-adv-x="1044" 
d="M315 0h-256v1008h263v-656l385 656h276v-1008h-260v684z" />
    <glyph glyph-name="uni0439" unicode="&#x439;" horiz-adv-x="1044" 
d="M688 1528h168q0 -161 -97.5 -250.5t-234.5 -89.5t-234 89.5t-97 250.5h167q3 -85 46 -131.5t118 -46.5t118 46.5t46 131.5zM315 0h-256v1008h263v-656l385 656h276v-1008h-260v684z" />
    <glyph glyph-name="uni043B" unicode="&#x43b;" horiz-adv-x="1085" 
d="M1026 0h-260v795h-277l-10 -181q-8 -133 -21.5 -228t-37 -164.5t-53 -112t-76.5 -67t-99.5 -33.5t-128.5 -9h-40v213h26q48 0 78.5 8t58 31.5t43.5 70t28 120.5t19 186l23 379h727v-1008z" />
    <glyph glyph-name="uni043C" unicode="&#x43c;" horiz-adv-x="1282" 
d="M1223 0h-238v698l-217 -698h-256l-215 694v-694h-238v1008h371l215 -717l215 717h363v-1008z" />
    <glyph glyph-name="uni043D" unicode="&#x43d;" horiz-adv-x="1044" 
d="M319 0h-260v1008h260v-385h406v385h260v-1008h-260v412h-406v-412z" />
    <glyph glyph-name="uni043F" unicode="&#x43f;" horiz-adv-x="1044" 
d="M319 0h-260v1008h926v-1008h-260v795h-406v-795z" />
    <glyph glyph-name="uni0442" unicode="&#x442;" horiz-adv-x="980" 
d="M621 0h-261v795h-346v213h951v-213h-344v-795z" />
    <glyph glyph-name="uni0446" unicode="&#x446;" horiz-adv-x="1163" 
d="M59 0v1008h260v-797h404v797h260v-797h158v-516h-193v305h-889z" />
    <glyph glyph-name="uni0447" unicode="&#x447;" horiz-adv-x="1028" 
d="M967 0h-260v397q-132 -51 -308 -51q-87 0 -148 15.5t-110.5 53.5t-73.5 108.5t-24 174.5v310h260v-306q0 -91 45 -125t139 -34q133 0 220 41v424h260v-1008z" />
    <glyph glyph-name="uni0448" unicode="&#x448;" horiz-adv-x="1529" 
d="M1470 0h-1411v1008h260v-795h320v795h252v-795h319v795h260v-1008z" />
    <glyph glyph-name="uni0449" unicode="&#x449;" horiz-adv-x="1648" 
d="M1626 -305h-192v305h-1375v1008h260v-795h320v795h252v-795h319v795h260v-795h156v-518z" />
    <glyph glyph-name="uni044A" unicode="&#x44a;" horiz-adv-x="1386" 
d="M653 1008v-322h297q408 0 408 -340q0 -177 -105 -261.5t-295 -84.5h-565v795h-379v213h639zM973 496h-320v-297h320q73 0 114 38t41 109q0 73 -41 111.5t-114 38.5z" />
    <glyph glyph-name="uni044B" unicode="&#x44b;" horiz-adv-x="1443" 
d="M59 1008h260v-322h336q173 0 271 -88.5t98 -251.5q0 -166 -98 -256t-271 -90h-596v1008zM639 496h-320v-297h320q74 0 115 38t41 109q0 73 -41 111.5t-115 38.5zM1376 0h-266v1008h266v-1008z" />
    <glyph glyph-name="uni044C" unicode="&#x44c;" horiz-adv-x="1050" 
d="M59 1008h260v-322h336q173 0 271 -88.5t98 -251.5q0 -166 -98 -256t-271 -90h-596v1008zM639 496h-320v-297h320q74 0 115 38t41 109q0 73 -41 111.5t-115 38.5z" />
    <glyph glyph-name="uni044D" unicode="&#x44d;" horiz-adv-x="999" 
d="M700 440h-307v152h305q-15 118 -62 176.5t-153 58.5q-85 0 -136 -37.5t-60 -109.5h-264q15 96 61.5 167.5t113.5 110.5t139 57.5t150 18.5q101 0 184.5 -30.5t148.5 -92t101.5 -164.5t36.5 -239q0 -257 -126.5 -396t-346.5 -139q-83 0 -158 20.5t-139.5 62t-109 111.5
t-58.5 161h263q0 -63 61 -106.5t141 -43.5q88 0 147.5 62t67.5 200z" />
    <glyph glyph-name="uni044E" unicode="&#x44e;" horiz-adv-x="1497" 
d="M326 0h-267v1008h267v-400h106q30 197 164 311.5t344 114.5q237 0 375.5 -144t138.5 -384q0 -243 -138.5 -388t-375.5 -145q-212 0 -347 118t-163 317h-104v-408zM942 197q244 0 244 307q0 305 -244 305t-244 -305q0 -307 244 -307z" />
    <glyph glyph-name="uni044F" unicode="&#x44f;" horiz-adv-x="1009" 
d="M950 0h-260v340h-184l-219 -340h-275l252 360q-229 62 -229 310q0 163 97 250.5t269 87.5h549v-1008zM420 537h270v272h-270q-74 0 -116 -35t-42 -100q0 -67 41.5 -102t116.5 -35z" />
    <glyph glyph-name="uni0452" unicode="&#x452;" 
d="M967 713v-781q0 -181 -112.5 -295t-281.5 -114q-27 0 -63 4v237q20 -10 51 -10q79 0 108 49t29 142v680q0 107 -38 152.5t-119 45.5q-110 0 -166 -68t-56 -177v-578h-266v1102h-53v186h53v88h266v-88h338v-186h-338v-225q31 70 114.5 113.5t189.5 43.5q151 0 247.5 -86.5
t96.5 -234.5z" />
    <glyph glyph-name="uni0453" unicode="&#x453;" horiz-adv-x="716" 
d="M702 1327l-456 -192l-64 112l424 248zM322 0h-261v1008h641v-213h-380v-795z" />
    <glyph glyph-name="uni0454" unicode="&#x454;" horiz-adv-x="999" 
d="M606 440h-307q8 -138 67.5 -200t147.5 -62q80 0 141.5 43.5t61.5 106.5h262q-14 -91 -58.5 -161t-109 -111.5t-139.5 -62t-158 -20.5q-220 0 -346.5 139t-126.5 396q0 136 36.5 239t101.5 164.5t148.5 92t184.5 30.5q78 0 150 -18.5t139 -57.5t114 -110.5t62 -167.5h-264
q-9 71 -60.5 109t-136.5 38q-106 0 -153 -58.5t-62 -176.5h305v-152z" />
    <glyph glyph-name="uni0459" unicode="&#x459;" horiz-adv-x="1757" 
d="M1362 0h-598v795h-277l-8 -148q-8 -143 -20.5 -242.5t-35.5 -173.5t-51.5 -117.5t-75.5 -69.5t-100 -35t-133 -9h-43v211h29q44 0 74.5 10.5t57.5 38t44.5 77.5t30.5 128t20 190l23 353h725v-322h307q189 0 293.5 -83.5t104.5 -256.5q0 -166 -97.5 -256t-269.5 -90z
M1343 496h-319v-297h319q74 0 116 38t42 109q0 73 -42 111.5t-116 38.5z" />
    <glyph glyph-name="uni045A" unicode="&#x45a;" horiz-adv-x="1579" 
d="M319 0h-260v1008h260v-322h338v322h261v-322h239q188 0 291.5 -83.5t103.5 -258.5q0 -174 -102.5 -259t-292.5 -85h-500v496h-338v-496zM1167 496h-249v-297h249q73 0 114.5 38t41.5 109q0 72 -41.5 111t-114.5 39z" />
    <glyph glyph-name="uni045C" unicode="&#x45c;" horiz-adv-x="989" 
d="M817 1327l-457 -192l-63 112l424 248zM971 0h-299l-221 453l-129 -134v-319h-269v1008h269v-383l331 383h326l-338 -371z" />
    <glyph glyph-name="uni045D" unicode="&#x45d;" horiz-adv-x="1044" 
d="M659 1135l-456 192l96 168l424 -248zM315 0h-256v1008h263v-656l385 656h276v-1008h-260v684z" />
    <glyph glyph-name="uni045E" unicode="&#x45e;" horiz-adv-x="1028" 
d="M694 -31v164q-27 -66 -102 -104.5t-170 -38.5q-161 0 -265 100.5t-104 263.5v654h266v-615q0 -188 170 -188q90 0 147.5 53t57.5 135v615h267v-1035q0 -139 -62.5 -242.5t-166.5 -155.5t-234 -52q-217 0 -331 111.5t-114 310.5h248q0 -91 53.5 -142t155.5 -51
q75 0 129.5 60.5t54.5 156.5zM680 1528h168q0 -161 -97.5 -250.5t-234.5 -89.5t-234.5 89.5t-97.5 250.5h168q3 -85 46 -131.5t118 -46.5t118 46.5t46 131.5z" />
    <glyph glyph-name="uni045F" unicode="&#x45f;" horiz-adv-x="1044" 
d="M59 0v1008h260v-797h404v797h260v-1008h-367v-305h-192v305h-365z" />
    <glyph glyph-name="uni0490" unicode="&#x490;" horiz-adv-x="1026" 
d="M45 1360h752v346h204v-578h-677v-1128h-279v1360z" />
    <glyph glyph-name="uni0491" unicode="&#x491;" horiz-adv-x="716" 
d="M700 795h-381v-795h-260v1008h449v305h192v-518z" />
    <glyph glyph-name="uni0492" unicode="&#x492;" horiz-adv-x="1138" 
d="M780 569h-344v-569h-276v569h-154v172h154v619h954v-232h-678v-387h344v-172z" />
    <glyph glyph-name="uni0493" unicode="&#x493;" horiz-adv-x="808" 
d="M414 0h-260v358h-154v172h154v478h641v-213h-381v-265h360v-172h-360v-358z" />
    <glyph glyph-name="uni0496" unicode="&#x496;" horiz-adv-x="1947" 
d="M1925 -346h-203v346h-258l-422 559v-559h-266v559l-422 -559h-340l572 692l-545 668h330l405 -504v504h266v-504l406 504h330l-547 -668l371 -450h323v-588z" />
    <glyph glyph-name="uni0497" unicode="&#x497;" horiz-adv-x="1529" 
d="M823 1008v-385l248 385h303l-364 -494l221 -301h276v-518h-192v305h-240l-252 377v-377h-245v377l-252 -377h-314l379 514l-364 494h303l248 -385v385h245z" />
    <glyph glyph-name="uni0498" unicode="&#x498;" horiz-adv-x="1155" 
d="M598 596h-137v235h127q115 0 179 50t64 133q0 160 -251 160q-143 0 -209 -54t-66 -174h-268q0 102 30 183.5t93 144.5t170 97t252 34q258 0 391 -101.5t133 -271.5q0 -115 -58.5 -193.5t-166.5 -107.5q121 -23 194.5 -111.5t73.5 -230.5q0 -202 -150.5 -318.5
t-416.5 -117.5q107 -48 166 -114t59 -142q0 -81 -58 -127.5t-165 -46.5q-145 0 -215 53v172q58 -20 108 -20q21 0 31 10q49 3 77.5 20t28.5 45q0 43 -30.5 77t-124.5 81q-227 27 -337 155t-110 324h275q8 -127 78 -189.5t221 -62.5q282 0 282 218q0 105 -66.5 147.5
t-203.5 42.5z" />
    <glyph glyph-name="uni0499" unicode="&#x499;" horiz-adv-x="960" 
d="M494 444h-93v172h86q78 0 124 30t46 93q0 117 -176 117q-103 0 -147.5 -39t-44.5 -123h-262q7 74 35 133t80.5 107t140.5 74t206 26q204 0 311 -74.5t107 -199.5q0 -83 -47.5 -140t-132.5 -79q93 -19 153 -82t60 -166q0 -148 -122 -234t-329 -86q132 -51 204.5 -121
t72.5 -155q0 -81 -58 -127.5t-165 -46.5q-146 0 -213 53v172q45 -20 108 -20t99 18.5t36 54.5q0 49 -39 88t-163 95q-170 25 -256.5 120.5t-96.5 231.5h263q5 -88 52.5 -132t153.5 -44q193 0 193 149q0 72 -44.5 103.5t-141.5 31.5z" />
    <glyph glyph-name="uni049A" unicode="&#x49a;" horiz-adv-x="1376" 
d="M1354 -346h-203v346h-268l-404 612l-151 -149v-463h-281v1360h281v-553l520 553h369l-537 -537l387 -581h287v-588z" />
    <glyph glyph-name="uni049B" unicode="&#x49b;" horiz-adv-x="1112" 
d="M1092 -305h-193v305h-227l-221 453l-129 -134v-319h-269v1008h269v-383l331 383h326l-338 -371l219 -424h232v-518z" />
    <glyph glyph-name="uni04A0" unicode="&#x4a0;" horiz-adv-x="1613" 
d="M1608 0h-338l-408 616l-160 -155v-461h-272v1128h-414v232h686v-561l533 561h358l-536 -537z" />
    <glyph glyph-name="uni04A1" unicode="&#x4a1;" horiz-adv-x="1323" 
d="M1309 0h-293l-225 457l-136 -138v-319h-262v795h-379v213h641v-390l342 390h320l-342 -371z" />
    <glyph glyph-name="uni04A2" unicode="&#x4a2;" horiz-adv-x="1339" 
d="M1317 -346h-203v346h-242v614h-540v-614h-279v1360h279v-514h540v514h281v-1118h164v-588z" />
    <glyph glyph-name="uni04A3" unicode="&#x4a3;" horiz-adv-x="1163" 
d="M1141 -305h-193v305h-223v412h-406v-412h-260v1008h260v-385h406v385h260v-795h156v-518z" />
    <glyph glyph-name="uni04AA" unicode="&#x4aa;" horiz-adv-x="1255" 
d="M961 467h284q-44 -236 -199.5 -375t-394.5 -139q228 -103 228 -260q0 -79 -59.5 -124.5t-174.5 -45.5q-140 0 -203 53v172q45 -20 113 -20q131 0 131 82q0 39 -36.5 74.5t-135.5 82.5q-223 46 -353 226t-130 477q0 340 170.5 537.5t462.5 197.5q247 0 403.5 -139.5
t177.5 -352.5h-284q-30 113 -110 179.5t-198 66.5q-162 0 -248 -127t-86 -356q0 -227 84.5 -351t249.5 -124q121 0 200 68.5t108 197.5z" />
    <glyph glyph-name="uni04AB" unicode="&#x4ab;" horiz-adv-x="985" 
d="M692 365h269q-22 -169 -144.5 -276.5t-298.5 -115.5q279 -108 279 -280q0 -79 -60 -124.5t-176 -45.5q-140 0 -203 53v172q48 -20 113 -20q131 0 131 82q0 41 -42 79.5t-159 92.5q-170 29 -268 165.5t-98 368.5q0 261 125 389.5t346 128.5q197 0 321 -104.5t136 -282.5
h-269q-10 77 -62 121.5t-128 44.5q-93 0 -149 -68.5t-56 -222.5q0 -156 57 -240.5t140 -84.5q80 0 134.5 44t61.5 124z" />
    <glyph glyph-name="uni04B2" unicode="&#x4b2;" horiz-adv-x="1370" 
d="M1348 -346h-203v346h-271l-260 467l-274 -467h-332l441 694l-416 666h336l245 -440l248 440h330l-414 -653l291 -465h279v-588z" />
    <glyph glyph-name="uni04B3" unicode="&#x4b3;" horiz-adv-x="1138" 
d="M1118 -305h-192v305h-252l-176 303l-172 -303h-320l338 514l-328 494h322l170 -293l172 293h309l-334 -494l201 -301h262v-518z" />
    <glyph glyph-name="uni04B6" unicode="&#x4b6;" horiz-adv-x="1302" 
d="M1280 -346h-203v346h-239v541q-155 -66 -367 -66q-103 0 -176.5 19.5t-132 67t-88 135.5t-29.5 218v445h281v-438q0 -122 58 -168.5t179 -46.5q165 0 275 55v598h276v-1118h166v-588z" />
    <glyph glyph-name="uni04B7" unicode="&#x4b7;" horiz-adv-x="1146" 
d="M1124 -305h-192v305h-225v397q-132 -51 -308 -51q-87 0 -148 15.5t-110.5 53.5t-73.5 108.5t-24 174.5v310h260v-306q0 -91 45 -125t139 -34q133 0 220 41v424h260v-795h157v-518z" />
    <glyph glyph-name="uni04BA" unicode="&#x4ba;" horiz-adv-x="1167" 
d="M53 1360h277v-541q155 66 366 66q103 0 176.5 -19.5t132 -67.5t88 -136t29.5 -218v-444h-280v438q0 122 -58.5 168.5t-179.5 46.5q-164 0 -274 -55v-598h-277v1360z" />
    <glyph glyph-name="uni04C3" unicode="&#x4c3;" horiz-adv-x="1236" 
d="M1194 -100q0 -166 -101.5 -271.5t-283.5 -105.5q-184 0 -286.5 112.5t-102.5 309.5h244q2 -92 35 -141.5t110 -49.5q65 0 101 36.5t36 103.5q0 57 -29 116t-100 156l-334 450l-157 -155v-461h-273v1360h273v-563l530 563h361l-537 -537l369 -540q75 -112 110 -201.5
t35 -181.5z" />
    <glyph glyph-name="uni04C4" unicode="&#x4c4;" horiz-adv-x="989" 
d="M641 637l229 -442q82 -158 82 -312q0 -171 -102 -265.5t-268 -94.5q-175 0 -271.5 103.5t-101.5 287.5h223q7 -168 129 -168q62 0 95.5 40t33.5 108q0 77 -65 212l-168 351l-135 -138v-319h-263v1008h263v-390l344 390h317z" />
    <glyph glyph-name="uni04C7" unicode="&#x4c7;" horiz-adv-x="1202" 
d="M872 -57v671h-540v-614h-279v1360h279v-514h540v514h281v-1428q0 -183 -118.5 -296t-307.5 -113q-185 0 -289 112.5t-104 309.5h244q2 -96 35.5 -143.5t111.5 -47.5t112.5 48.5t34.5 140.5z" />
    <glyph glyph-name="uni04C8" unicode="&#x4c8;" horiz-adv-x="1044" 
d="M319 0h-260v1008h260v-385h404v385h260v-1088q0 -178 -109.5 -287.5t-291.5 -109.5q-178 0 -276.5 109t-98.5 298h244q2 -87 32 -131.5t103 -44.5q74 0 105.5 44.5t31.5 131.5v480h-404v-410z" />
    <glyph glyph-name="uni04E8" unicode="&#x4e8;" horiz-adv-x="1372" 
d="M684 -47q-314 0 -483.5 185.5t-169.5 529.5q0 348 170.5 542.5t482.5 194.5t480.5 -195.5t168.5 -547.5q0 -348 -167 -528.5t-482 -180.5zM684 197q95 0 170 38.5t127.5 124.5t65.5 211h-732q36 -374 369 -374zM684 1153q-151 0 -242.5 -88t-119.5 -258h718
q-26 170 -116.5 258t-239.5 88z" />
    <glyph glyph-name="uni04E9" unicode="&#x4e9;" horiz-adv-x="1103" 
d="M549 -27q-241 0 -379.5 146t-138.5 385q0 241 140 385.5t378 144.5q236 0 374 -144t138 -386q0 -240 -139 -385.5t-373 -145.5zM549 197q203 0 237 217h-475q30 -217 238 -217zM549 809q-200 0 -238 -209h473q-35 209 -235 209z" />
    <glyph glyph-name="uni04EE" unicode="&#x4ee;" horiz-adv-x="1177" 
d="M981 1585h-780v187h780v-187zM1122 449q0 -245 -142 -370.5t-405 -125.5q-247 0 -375.5 116t-129.5 369h252q1 -130 69.5 -195t190.5 -65q125 0 194.5 67.5t69.5 203.5v235q-45 -84 -144 -130t-225 -46q-198 0 -311 124t-113 376v352h281v-350q0 -135 67.5 -202
t178.5 -67q120 0 193 73t73 194v352h276v-911z" />
    <glyph glyph-name="uni04EF" unicode="&#x4ef;" horiz-adv-x="1028" 
d="M694 -31v164q-27 -66 -102 -104.5t-170 -38.5q-161 0 -265 100.5t-104 263.5v654h266v-615q0 -188 170 -188q90 0 147.5 53t57.5 135v615h267v-1035q0 -139 -62.5 -242.5t-166.5 -155.5t-234 -52q-217 0 -331 111.5t-114 310.5h248q0 -91 53.5 -142t155.5 -51
q75 0 129.5 60.5t54.5 156.5zM907 1233h-780v186h780v-186z" />
    <glyph glyph-name="uni0512" unicode="&#x512;" horiz-adv-x="1286" 
d="M954 -57v1185h-366l-17 -299q-7 -136 -18 -241.5t-28.5 -190.5t-38.5 -145.5t-52.5 -105.5t-65.5 -73t-82 -44.5t-99 -22.5t-119 -6h-52v242h33q50 0 83 7t63.5 30t49.5 61.5t35 105.5t26 158.5t18 224.5l30 531h881v-1428q0 -182 -122 -295.5t-312 -113.5
q-184 0 -284.5 112.5t-100.5 309.5h243q2 -94 35.5 -142.5t112.5 -48.5q78 0 112.5 48.5t34.5 140.5z" />
    <glyph glyph-name="uni0513" unicode="&#x513;" horiz-adv-x="1085" 
d="M766 -70v865h-277l-10 -181q-8 -133 -21.5 -228t-37 -164.5t-53 -112t-76.5 -67t-99.5 -33.5t-128.5 -9h-40v213h26q48 0 78.5 8t58 31.5t43.5 70t28 120.5t19 186l23 379h727v-1090q0 -178 -109.5 -286.5t-291.5 -108.5q-180 0 -277.5 108t-97.5 299h244
q0 -88 30.5 -132t102.5 -44q139 0 139 176z" />
    <glyph glyph-name="uni058F" unicode="&#x58f;" horiz-adv-x="999" 
d="M989 258h-110v-258h-279v258h-385v172h385v148h-385v172h385v233q0 197 -168 197q-166 0 -166 -197v-137h-252v139q0 214 109 318t313 104q215 0 329 -108.5t114 -305.5v-243h110v-172h-110v-148h110v-172z" />
    <glyph glyph-name="uni1E0C" unicode="&#x1e0c;" horiz-adv-x="1243" 
d="M324 231h235q184 0 269 114.5t85 348.5q0 231 -87 330.5t-291 99.5h-211v-893zM616 0h-569v1360h526q281 0 456 -180t175 -486q0 -154 -42.5 -283t-119 -219.5t-186.5 -141t-240 -50.5zM719 -422h-266v254h266v-254z" />
    <glyph glyph-name="uni1E0D" unicode="&#x1e0d;" horiz-adv-x="1071" 
d="M530 190q96 0 161 81.5t65 207.5q0 328 -224 328q-229 0 -229 -311q0 -135 63.5 -220.5t163.5 -85.5zM1008 0h-256l-2 123q-93 -150 -281 -150q-194 0 -315 145t-121 396q0 233 110.5 376.5t302.5 143.5q186 0 299 -157v499h263v-1376zM657 -422h-266v254h266v-254z" />
    <glyph glyph-name="uni1E12" unicode="&#x1e12;" horiz-adv-x="1243" 
d="M324 231h235q184 0 269 114.5t85 348.5q0 231 -87 330.5t-291 99.5h-211v-893zM616 0h-569v1360h526q281 0 456 -180t175 -486q0 -154 -42.5 -283t-119 -219.5t-186.5 -141t-240 -50.5zM854 -465l-276 242l-277 -242l-94 105l262 274h217l262 -274z" />
    <glyph glyph-name="uni1E13" unicode="&#x1e13;" horiz-adv-x="1071" 
d="M530 190q96 0 161 81.5t65 207.5q0 328 -224 328q-229 0 -229 -311q0 -135 63.5 -220.5t163.5 -85.5zM1008 0h-256l-2 123q-93 -150 -281 -150q-194 0 -315 145t-121 396q0 233 110.5 376.5t302.5 143.5q186 0 299 -157v499h263v-1376zM795 -465l-277 242l-276 -242
l-95 105l263 274h217l262 -274z" />
    <glyph glyph-name="uni1E24" unicode="&#x1e24;" horiz-adv-x="1202" 
d="M1149 0h-287v610h-530v-610h-285v1360h285v-512h530v512h287v-1360zM743 -422h-266v254h266v-254z" />
    <glyph glyph-name="uni1E25" unicode="&#x1e25;" 
d="M967 0h-269v625q0 112 -39.5 155t-132.5 43q-96 0 -151.5 -70t-55.5 -175v-578h-266v1376h266v-499q29 68 112.5 112.5t184.5 44.5q158 0 254.5 -86t96.5 -235v-713zM657 -422h-266v254h266v-254z" />
    <glyph glyph-name="uni1E3C" unicode="&#x1e3c;" horiz-adv-x="1026" 
d="M1006 0h-959v1360h285v-1112h674v-248zM813 -465l-276 242l-277 -242l-94 105l262 274h217l262 -274z" />
    <glyph glyph-name="uni1E3D" unicode="&#x1e3d;" horiz-adv-x="485" 
d="M373 0h-267v1376h267v-1376zM522 -465l-276 242l-277 -242l-94 105l262 274h217l262 -274z" />
    <glyph glyph-name="uni1E44" unicode="&#x1e44;" horiz-adv-x="1210" 
d="M1155 0h-262l-582 913v-913h-264v1360h301l541 -875v875h266v-1360zM748 1538h-267v254h267v-254z" />
    <glyph glyph-name="uni1E45" unicode="&#x1e45;" 
d="M967 0h-269v610q0 115 -37.5 157t-134.5 42q-207 0 -207 -231v-578h-266v1008h254v-148q94 174 326 174q149 0 241.5 -88t92.5 -248v-698zM659 1186h-266v254h266v-254z" />
    <glyph glyph-name="uni1E4A" unicode="&#x1e4a;" horiz-adv-x="1210" 
d="M1155 0h-262l-582 913v-913h-264v1360h301l541 -875v875h266v-1360zM885 -465l-277 242l-276 -242l-94 105l262 274h217l262 -274z" />
    <glyph glyph-name="uni1E4B" unicode="&#x1e4b;" 
d="M967 0h-269v610q0 115 -37.5 157t-134.5 42q-207 0 -207 -231v-578h-266v1008h254v-148q94 174 326 174q149 0 241.5 -88t92.5 -248v-698zM795 -465l-277 242l-276 -242l-95 105l263 274h217l262 -274z" />
    <glyph glyph-name="uni1E5A" unicode="&#x1e5a;" horiz-adv-x="1183" 
d="M690 1124h-366v-362h356q109 0 159 48.5t50 131.5q0 84 -49 133t-150 49zM1118 0h-278v350q0 100 -46 141t-167 41h-303v-532h-277v1360h690q187 0 302.5 -111t115.5 -282q0 -111 -53.5 -196t-149.5 -120q92 -30 129 -88.5t37 -177.5v-385zM735 -422h-266v254h266v-254z
" />
    <glyph glyph-name="uni1E5B" unicode="&#x1e5b;" horiz-adv-x="657" 
d="M319 0h-266v1008h250v-121q32 49 67.5 80t76 44.5t74 18t81.5 4.5h35v-272q-38 6 -74 6q-244 0 -244 -244v-524zM334 -422h-266v254h266v-254z" />
    <glyph glyph-name="uni1E62" unicode="&#x1e62;" horiz-adv-x="1153" 
d="M1087 958h-270q-11 105 -76.5 156t-193.5 51q-119 0 -181.5 -41t-62.5 -118q0 -65 48.5 -104.5t162.5 -67.5q299 -72 404 -119q101 -45 156.5 -120.5t55.5 -209.5q0 -110 -40 -193.5t-112.5 -135t-170.5 -77.5t-219 -26q-260 0 -416 116.5t-160 338.5h275
q3 -104 84.5 -165t218.5 -61q126 0 195 51t69 142q0 65 -45 105.5t-166 66.5q-105 23 -155 35t-111 30.5t-107 38.5q-113 52 -170 131.5t-57 204.5q0 189 128 303.5t370 114.5q252 0 395 -123t151 -324zM719 -422h-266v254h266v-254z" />
    <glyph glyph-name="uni1E63" unicode="&#x1e63;" horiz-adv-x="966" 
d="M915 702h-256q-10 73 -53.5 103.5t-134.5 30.5q-158 0 -158 -84q0 -42 37.5 -66t126.5 -49q40 -12 106 -28.5t113 -30t82 -27.5q83 -34 124.5 -91.5t41.5 -152.5q0 -158 -113.5 -246t-326.5 -88q-227 0 -355 96.5t-131 254.5h275q0 -70 56 -110t153 -40q77 0 127.5 25.5
t50.5 79.5q0 26 -12 45t-38 32t-49.5 20.5t-62.5 16.5q-134 32 -209 57.5t-127 57.5q-127 80 -127 227q0 137 102.5 218t321.5 81q215 0 320 -83t116 -249zM627 -422h-267v254h267v-254z" />
    <glyph glyph-name="uni1E6C" unicode="&#x1e6c;" horiz-adv-x="1134" 
d="M702 0h-284v1122h-410v238h1106v-238h-412v-1122zM711 -422h-267v254h267v-254z" />
    <glyph glyph-name="uni1E6D" unicode="&#x1e6d;" horiz-adv-x="927" 
d="M625 401v263h247v-287q0 -82 -24 -153.5t-72 -128t-128 -89.5t-183 -33q-107 0 -188 32.5t-129 89.5t-71.5 128.5t-23.5 155.5v901h262v-272h557v-189h-557v-413q0 -201 154 -201q156 0 156 196zM606 -422h-266v254h266v-254z" />
    <glyph glyph-name="Wgrave" unicode="&#x1e80;" horiz-adv-x="1753" 
d="M1358 0h-275l-211 885l-215 -885h-266l-385 1360h303l223 -881l189 881h299l207 -881l221 881h291zM1014 1487l-457 192l96 168l424 -248z" />
    <glyph glyph-name="wgrave" unicode="&#x1e81;" horiz-adv-x="1462" 
d="M1157 0h-272l-160 586l-160 -586h-272l-287 1008h281l164 -648l139 648h270l158 -648l153 648h275zM868 1135l-456 192l96 168l424 -248z" />
    <glyph glyph-name="Wacute" unicode="&#x1e82;" horiz-adv-x="1753" 
d="M1358 0h-275l-211 885l-215 -885h-266l-385 1360h303l223 -881l189 881h299l207 -881l221 881h291zM1200 1679l-457 -192l-63 112l424 248z" />
    <glyph glyph-name="wacute" unicode="&#x1e83;" horiz-adv-x="1462" 
d="M1157 0h-272l-160 586l-160 -586h-272l-287 1008h281l164 -648l139 648h270l158 -648l153 648h275zM1055 1327l-457 -192l-63 112l423 248z" />
    <glyph glyph-name="Wdieresis" unicode="&#x1e84;" horiz-adv-x="1753" 
d="M1358 0h-275l-211 885l-215 -885h-266l-385 1360h303l223 -881l189 881h299l207 -881l221 881h291zM813 1538h-266v254h266v-254zM1223 1538h-267v254h267v-254z" />
    <glyph glyph-name="wdieresis" unicode="&#x1e85;" horiz-adv-x="1462" 
d="M1157 0h-272l-160 586l-160 -586h-272l-287 1008h281l164 -648l139 648h270l158 -648l153 648h275zM668 1186h-267v254h267v-254zM1077 1186h-266v254h266v-254z" />
    <glyph glyph-name="uni1E92" unicode="&#x1e92;" horiz-adv-x="1089" 
d="M1071 0h-1063v242l707 880h-686v238h1042v-223l-711 -895h711v-242zM688 -422h-266v254h266v-254z" />
    <glyph glyph-name="uni1E93" unicode="&#x1e93;" horiz-adv-x="911" 
d="M887 0h-869v205l514 592h-479v211h819v-215l-514 -576h529v-217zM598 -422h-266v254h266v-254z" />
    <glyph glyph-name="Germandbls" unicode="&#x1e9e;" horiz-adv-x="1234" 
d="M608 1360h504v-217l-264 -275q182 -26 279.5 -139t97.5 -291q0 -215 -135 -340t-355 -125q-138 0 -241 39v217q77 -36 190 -36q124 0 197 64t73 181q0 118 -73 182t-183 64q-78 0 -147 -35v195l274 303h-217q-68 0 -116 -16t-78 -44t-47 -76.5t-23 -102.5t-6 -132v-776
h-285v881q0 232 143 355.5t412 123.5z" />
    <glyph glyph-name="uni1EA0" unicode="&#x1ea0;" horiz-adv-x="1316" 
d="M823 514l-170 541h-2l-174 -541h346zM1300 0h-309l-86 281h-502l-96 -281h-301l486 1360h329zM801 -422h-266v254h266v-254z" />
    <glyph glyph-name="uni1EA1" unicode="&#x1ea1;" horiz-adv-x="995" 
d="M664 383l2 111q-35 -35 -172 -60q-113 -21 -157 -57t-44 -101q0 -112 129 -112q101 0 170.5 64.5t71.5 154.5zM932 0h-248q-13 40 -16 90q-49 -54 -128 -85.5t-178 -31.5q-166 0 -250.5 74.5t-84.5 202.5q0 61 12.5 109.5t31 82.5t55 60.5t68 42t88 29t96.5 20t111 16.5
q99 13 134.5 37.5t35.5 77.5q0 49 -45.5 76.5t-124.5 27.5q-162 0 -182 -149h-248q7 354 443 354q231 0 330.5 -99t99.5 -298v-637zM639 -422h-266v254h266v-254z" />
    <glyph glyph-name="uni1EA2" unicode="&#x1ea2;" horiz-adv-x="1316" 
d="M823 514l-170 541h-2l-174 -541h346zM1300 0h-309l-86 281h-502l-96 -281h-301l486 1360h329zM705 1542h-103q0 78 51 109q25 14 36 26t11 35q0 35 -49 35q-41 0 -84 -31l-37 113q29 24 70 37.5t74 13.5q70 0 110.5 -34t40.5 -91q0 -32 -12.5 -56.5t-30 -41t-35 -31.5
t-30 -36.5t-12.5 -47.5z" />
    <glyph glyph-name="uni1EA3" unicode="&#x1ea3;" horiz-adv-x="995" 
d="M664 383l2 111q-35 -35 -172 -60q-113 -21 -157 -57t-44 -101q0 -112 129 -112q101 0 170.5 64.5t71.5 154.5zM932 0h-248q-13 40 -16 90q-49 -54 -128 -85.5t-178 -31.5q-166 0 -250.5 74.5t-84.5 202.5q0 61 12.5 109.5t31 82.5t55 60.5t68 42t88 29t96.5 20t111 16.5
q99 13 134.5 37.5t35.5 77.5q0 49 -45.5 76.5t-124.5 27.5q-162 0 -182 -149h-248q7 354 443 354q231 0 330.5 -99t99.5 -298v-637zM555 1190h-102q0 77 51 108q25 14 36 26.5t11 35.5q0 35 -49 35q-41 0 -84 -31l-37 113q29 24 69.5 37.5t73.5 13.5q70 0 111 -34t41 -91
q0 -32 -12.5 -56.5t-30 -41t-35.5 -31.5t-30.5 -36.5t-12.5 -47.5z" />
    <glyph glyph-name="uni1EA4" unicode="&#x1ea4;" horiz-adv-x="1316" 
d="M823 514l-170 541h-2l-174 -541h346zM1300 0h-309l-86 281h-502l-96 -281h-301l486 1360h329zM895 1522l-238 207l-237 -207l-80 90l225 235h187l225 -235zM1413 1708l-379 -160l-51 94l350 205z" />
    <glyph glyph-name="uni1EA5" unicode="&#x1ea5;" horiz-adv-x="995" 
d="M664 383l2 111q-35 -35 -172 -60q-113 -21 -157 -57t-44 -101q0 -112 129 -112q101 0 170.5 64.5t71.5 154.5zM932 0h-248q-13 40 -16 90q-49 -54 -128 -85.5t-178 -31.5q-166 0 -250.5 74.5t-84.5 202.5q0 61 12.5 109.5t31 82.5t55 60.5t68 42t88 29t96.5 20t111 16.5
q99 13 134.5 37.5t35.5 77.5q0 49 -45.5 76.5t-124.5 27.5q-162 0 -182 -149h-248q7 354 443 354q231 0 330.5 -99t99.5 -298v-637zM743 1169l-237 207l-238 -207l-80 91l226 235h186l225 -235zM1262 1356l-379 -160l-52 94l351 205z" />
    <glyph glyph-name="uni1EA6" unicode="&#x1ea6;" horiz-adv-x="1316" 
d="M823 514l-170 541h-2l-174 -541h346zM1300 0h-309l-86 281h-502l-96 -281h-301l486 1360h329zM918 1522l-238 207l-238 -207l-82 90l226 235h186l225 -235zM1335 1548l-379 160l80 139l350 -205z" />
    <glyph glyph-name="uni1EA7" unicode="&#x1ea7;" horiz-adv-x="995" 
d="M664 383l2 111q-35 -35 -172 -60q-113 -21 -157 -57t-44 -101q0 -112 129 -112q101 0 170.5 64.5t71.5 154.5zM932 0h-248q-13 40 -16 90q-49 -54 -128 -85.5t-178 -31.5q-166 0 -250.5 74.5t-84.5 202.5q0 61 12.5 109.5t31 82.5t55 60.5t68 42t88 29t96.5 20t111 16.5
q99 13 134.5 37.5t35.5 77.5q0 49 -45.5 76.5t-124.5 27.5q-162 0 -182 -149h-248q7 354 443 354q231 0 330.5 -99t99.5 -298v-637zM741 1169l-237 207l-238 -207l-82 91l226 235h186l225 -235zM1159 1196l-379 160l80 139l350 -205z" />
    <glyph glyph-name="uni1EA8" unicode="&#x1ea8;" horiz-adv-x="1316" 
d="M823 514l-170 541h-2l-174 -541h346zM1300 0h-309l-86 281h-502l-96 -281h-301l486 1360h329zM1135 1542h-103q0 78 51 109q25 14 36 26t11 35q0 35 -49 35q-41 0 -84 -31l-36 113q29 24 69.5 37.5t73.5 13.5q70 0 110.5 -34t40.5 -91q0 -32 -12.5 -56.5t-30 -41
t-35 -31.5t-30 -36.5t-12.5 -47.5zM909 1522l-237 207l-238 -207l-82 90l226 235h186l225 -235z" />
    <glyph glyph-name="uni1EA9" unicode="&#x1ea9;" horiz-adv-x="995" 
d="M664 383l2 111q-35 -35 -172 -60q-113 -21 -157 -57t-44 -101q0 -112 129 -112q101 0 170.5 64.5t71.5 154.5zM932 0h-248q-13 40 -16 90q-49 -54 -128 -85.5t-178 -31.5q-166 0 -250.5 74.5t-84.5 202.5q0 61 12.5 109.5t31 82.5t55 60.5t68 42t88 29t96.5 20t111 16.5
q99 13 134.5 37.5t35.5 77.5q0 49 -45.5 76.5t-124.5 27.5q-162 0 -182 -149h-248q7 354 443 354q231 0 330.5 -99t99.5 -298v-637zM965 1190h-103q0 77 51 108q25 14 36.5 26.5t11.5 35.5q0 35 -50 35q-41 0 -84 -31l-36 113q29 24 69.5 37.5t73.5 13.5q70 0 110.5 -34
t40.5 -91q0 -32 -12.5 -56.5t-30 -41t-35 -31.5t-30 -36.5t-12.5 -47.5zM739 1169l-237 207l-238 -207l-82 91l226 235h186l225 -235z" />
    <glyph glyph-name="uni1EAA" unicode="&#x1eaa;" horiz-adv-x="1316" 
d="M823 514l-170 541h-2l-174 -541h346zM1300 0h-309l-86 281h-502l-96 -281h-301l486 1360h329zM819 1880l105 -29q-32 -125 -160 -125q-36 0 -109.5 20.5t-95.5 20.5q-33 0 -57 -65l-101 41q35 129 144 129q51 0 119 -23.5t98 -23.5q47 0 57 55zM938 1548l-70 -61
l-209 143l-206 -143l-72 61l197 164h163z" />
    <glyph glyph-name="uni1EAB" unicode="&#x1eab;" horiz-adv-x="995" 
d="M664 383l2 111q-35 -35 -172 -60q-113 -21 -157 -57t-44 -101q0 -112 129 -112q101 0 170.5 64.5t71.5 154.5zM932 0h-248q-13 40 -16 90q-49 -54 -128 -85.5t-178 -31.5q-166 0 -250.5 74.5t-84.5 202.5q0 61 12.5 109.5t31 82.5t55 60.5t68 42t88 29t96.5 20t111 16.5
q99 13 134.5 37.5t35.5 77.5q0 49 -45.5 76.5t-124.5 27.5q-162 0 -182 -149h-248q7 354 443 354q231 0 330.5 -99t99.5 -298v-637zM670 1528l104 -29q-32 -125 -160 -125q-36 0 -109 20.5t-95 20.5q-34 0 -58 -65l-100 41q35 129 143 129q52 0 119.5 -23.5t97.5 -23.5
q48 0 58 55zM788 1196l-69 -61l-209 143l-207 -143l-72 61l197 164h164z" />
    <glyph glyph-name="uni1EAC" unicode="&#x1eac;" horiz-adv-x="1316" 
d="M823 514l-170 541h-2l-174 -541h346zM1300 0h-309l-86 281h-502l-96 -281h-301l486 1360h329zM936 1501l-277 242l-276 -242l-94 105l262 274h217l262 -274zM801 -422h-266v254h266v-254z" />
    <glyph glyph-name="uni1EAD" unicode="&#x1ead;" horiz-adv-x="995" 
d="M664 383l2 111q-35 -35 -172 -60q-113 -21 -157 -57t-44 -101q0 -112 129 -112q101 0 170.5 64.5t71.5 154.5zM932 0h-248q-13 40 -16 90q-49 -54 -128 -85.5t-178 -31.5q-166 0 -250.5 74.5t-84.5 202.5q0 61 12.5 109.5t31 82.5t55 60.5t68 42t88 29t96.5 20t111 16.5
q99 13 134.5 37.5t35.5 77.5q0 49 -45.5 76.5t-124.5 27.5q-162 0 -182 -149h-248q7 354 443 354q231 0 330.5 -99t99.5 -298v-637zM776 1149l-276 242l-277 -242l-94 104l262 275h217l262 -275zM621 -422h-267v254h267v-254z" />
    <glyph glyph-name="uni1EAE" unicode="&#x1eae;" horiz-adv-x="1316" 
d="M823 514l-170 541h-2l-174 -541h346zM1300 0h-309l-86 281h-502l-96 -281h-301l486 1360h329zM770 1720h117q0 -111 -67.5 -172t-162.5 -61q-94 0 -160.5 61t-66.5 172h117q0 -58 29.5 -90.5t80.5 -32.5q52 0 81.5 32t31.5 91zM862 1784l-262 -113l-37 68l244 141z" />
    <glyph glyph-name="uni1EAF" unicode="&#x1eaf;" horiz-adv-x="995" 
d="M664 383l2 111q-35 -35 -172 -60q-113 -21 -157 -57t-44 -101q0 -112 129 -112q101 0 170.5 64.5t71.5 154.5zM932 0h-248q-13 40 -16 90q-49 -54 -128 -85.5t-178 -31.5q-166 0 -250.5 74.5t-84.5 202.5q0 61 12.5 109.5t31 82.5t55 60.5t68 42t88 29t96.5 20t111 16.5
q99 13 134.5 37.5t35.5 77.5q0 49 -45.5 76.5t-124.5 27.5q-162 0 -182 -149h-248q7 354 443 354q231 0 330.5 -99t99.5 -298v-637zM610 1368h117q0 -111 -67 -172t-162 -61q-94 0 -161 61t-67 172h117q0 -58 30 -90.5t81 -32.5q52 0 81 32t31 91zM702 1432l-262 -113
l-37 67l244 142z" />
    <glyph glyph-name="uni1EB0" unicode="&#x1eb0;" horiz-adv-x="1316" 
d="M823 514l-170 541h-2l-174 -541h346zM1300 0h-309l-86 281h-502l-96 -281h-301l486 1360h329zM770 1720h117q0 -111 -67 -172t-161 -61q-95 0 -162 61t-67 172h117q2 -59 31 -91t81 -32q51 0 81 32.5t30 90.5zM717 1671l-262 113l55 96l244 -141z" />
    <glyph glyph-name="uni1EB1" unicode="&#x1eb1;" horiz-adv-x="995" 
d="M664 383l2 111q-35 -35 -172 -60q-113 -21 -157 -57t-44 -101q0 -112 129 -112q101 0 170.5 64.5t71.5 154.5zM932 0h-248q-13 40 -16 90q-49 -54 -128 -85.5t-178 -31.5q-166 0 -250.5 74.5t-84.5 202.5q0 61 12.5 109.5t31 82.5t55 60.5t68 42t88 29t96.5 20t111 16.5
q99 13 134.5 37.5t35.5 77.5q0 49 -45.5 76.5t-124.5 27.5q-162 0 -182 -149h-248q7 354 443 354q231 0 330.5 -99t99.5 -298v-637zM618 1368h117q0 -111 -66.5 -172t-160.5 -61q-95 0 -162 61t-67 172h116q2 -59 31.5 -91t81.5 -32q51 0 80.5 32.5t29.5 90.5zM565 1319
l-262 113l55 96l244 -142z" />
    <glyph glyph-name="uni1EB2" unicode="&#x1eb2;" horiz-adv-x="1316" 
d="M823 514l-170 541h-2l-174 -541h346zM1300 0h-309l-86 281h-502l-96 -281h-301l486 1360h329zM770 1720h117q0 -111 -67 -172t-161 -61q-95 0 -162 61t-67 172h117q2 -59 31 -91t81 -32q51 0 81 32.5t30 90.5zM682 1628h-76q0 59 39 82q14 8 19 12t10.5 12.5t5.5 20.5
q0 11 -9.5 19t-27.5 8q-24 0 -63 -23l-27 82q45 39 106 39q52 0 82.5 -25t30.5 -67q0 -29 -14 -51t-31 -33.5t-31 -31t-14 -44.5z" />
    <glyph glyph-name="uni1EB3" unicode="&#x1eb3;" horiz-adv-x="995" 
d="M664 383l2 111q-35 -35 -172 -60q-113 -21 -157 -57t-44 -101q0 -112 129 -112q101 0 170.5 64.5t71.5 154.5zM932 0h-248q-13 40 -16 90q-49 -54 -128 -85.5t-178 -31.5q-166 0 -250.5 74.5t-84.5 202.5q0 61 12.5 109.5t31 82.5t55 60.5t68 42t88 29t96.5 20t111 16.5
q99 13 134.5 37.5t35.5 77.5q0 49 -45.5 76.5t-124.5 27.5q-162 0 -182 -149h-248q7 354 443 354q231 0 330.5 -99t99.5 -298v-637zM614 1368h117q0 -111 -66.5 -172t-160.5 -61q-95 0 -162.5 61t-67.5 172h117q2 -59 31.5 -91t81.5 -32q51 0 80.5 32.5t29.5 90.5zM526 1276
h-75q0 60 38 82q14 8 19 12t10.5 12.5t5.5 20.5q0 11 -9.5 19t-27.5 8q-24 0 -63 -23l-27 82q45 39 107 39q52 0 82 -25t30 -67q0 -29 -14 -51t-31 -33.5t-31 -31t-14 -44.5z" />
    <glyph glyph-name="uni1EB4" unicode="&#x1eb4;" horiz-adv-x="1316" 
d="M823 514l-170 541h-2l-174 -541h346zM1300 0h-309l-86 281h-502l-96 -281h-301l486 1360h329zM766 1880l80 -20q-11 -54 -41.5 -82.5t-67.5 -28.5q-27 0 -71.5 22.5t-69.5 22.5q-20 0 -35 -47l-76 37q27 92 105 92q28 0 73 -23.5t72 -23.5q25 0 31 51zM770 1720h117
q0 -111 -67 -172t-161 -61q-95 0 -162 61t-67 172h117q2 -59 31 -91t81 -32q51 0 81 32.5t30 90.5z" />
    <glyph glyph-name="uni1EB5" unicode="&#x1eb5;" horiz-adv-x="995" 
d="M664 383l2 111q-35 -35 -172 -60q-113 -21 -157 -57t-44 -101q0 -112 129 -112q101 0 170.5 64.5t71.5 154.5zM932 0h-248q-13 40 -16 90q-49 -54 -128 -85.5t-178 -31.5q-166 0 -250.5 74.5t-84.5 202.5q0 61 12.5 109.5t31 82.5t55 60.5t68 42t88 29t96.5 20t111 16.5
q99 13 134.5 37.5t35.5 77.5q0 49 -45.5 76.5t-124.5 27.5q-162 0 -182 -149h-248q7 354 443 354q231 0 330.5 -99t99.5 -298v-637zM606 1528l80 -21q-11 -54 -41 -82t-67 -28q-27 0 -72 22.5t-70 22.5q-20 0 -35 -47l-75 37q27 92 104 92q28 0 73 -23.5t72 -23.5
q25 0 31 51zM610 1368h117q0 -111 -66.5 -172t-160.5 -61q-95 0 -162.5 61t-67.5 172h117q2 -59 31.5 -91t81.5 -32q51 0 80.5 32.5t29.5 90.5z" />
    <glyph glyph-name="uni1EB6" unicode="&#x1eb6;" horiz-adv-x="1316" 
d="M823 514l-170 541h-2l-174 -541h346zM1300 0h-309l-86 281h-502l-96 -281h-301l486 1360h329zM825 1880h168q0 -161 -97 -250.5t-234 -89.5t-234.5 89.5t-97.5 250.5h168q3 -85 46 -131.5t118 -46.5t117.5 46.5t45.5 131.5zM801 -422h-266v254h266v-254z" />
    <glyph glyph-name="uni1EB7" unicode="&#x1eb7;" horiz-adv-x="995" 
d="M664 383l2 111q-35 -35 -172 -60q-113 -21 -157 -57t-44 -101q0 -112 129 -112q101 0 170.5 64.5t71.5 154.5zM932 0h-248q-13 40 -16 90q-49 -54 -128 -85.5t-178 -31.5q-166 0 -250.5 74.5t-84.5 202.5q0 61 12.5 109.5t31 82.5t55 60.5t68 42t88 29t96.5 20t111 16.5
q99 13 134.5 37.5t35.5 77.5q0 49 -45.5 76.5t-124.5 27.5q-162 0 -182 -149h-248q7 354 443 354q231 0 330.5 -99t99.5 -298v-637zM664 1528h167q0 -161 -97 -250.5t-234 -89.5t-234.5 89.5t-97.5 250.5h168q3 -85 46 -131.5t118 -46.5t118 46.5t46 131.5zM621 -422h-267
v254h267v-254z" />
    <glyph glyph-name="uni1EB8" unicode="&#x1eb8;" horiz-adv-x="1089" 
d="M1079 0h-1032v1360h1000v-238h-723v-291h665v-239h-665v-350h755v-242zM698 -422h-266v254h266v-254z" />
    <glyph glyph-name="uni1EB9" unicode="&#x1eb9;" 
d="M305 602h412q-3 106 -63 163.5t-144 57.5q-82 0 -140 -59.5t-65 -161.5zM991 434h-694q6 -114 66.5 -182t158.5 -68q66 0 116.5 30.5t63.5 82.5h275q-45 -154 -162.5 -239t-279.5 -85q-504 0 -504 549q0 236 129 374t358 138q233 0 353 -151t120 -449zM662 -422h-267v254
h267v-254z" />
    <glyph glyph-name="uni1EBA" unicode="&#x1eba;" horiz-adv-x="1089" 
d="M1079 0h-1032v1360h1000v-238h-723v-291h665v-239h-665v-350h755v-242zM606 1542h-102q0 78 51 109q25 14 36 26t11 35q0 35 -49 35q-41 0 -84 -31l-37 113q29 24 69.5 37.5t73.5 13.5q70 0 111 -34t41 -91q0 -32 -12.5 -56.5t-30.5 -41t-35.5 -31.5t-30 -36.5
t-12.5 -47.5z" />
    <glyph glyph-name="uni1EBB" unicode="&#x1ebb;" 
d="M305 602h412q-3 106 -63 163.5t-144 57.5q-82 0 -140 -59.5t-65 -161.5zM991 434h-694q6 -114 66.5 -182t158.5 -68q66 0 116.5 30.5t63.5 82.5h275q-45 -154 -162.5 -239t-279.5 -85q-504 0 -504 549q0 236 129 374t358 138q233 0 353 -151t120 -449zM561 1190h-102
q0 77 51 108q25 14 36 26.5t11 35.5q0 35 -49 35q-41 0 -84 -31l-37 113q29 24 69.5 37.5t73.5 13.5q70 0 111 -34t41 -91q0 -32 -12.5 -56.5t-30 -41t-35.5 -31.5t-30.5 -36.5t-12.5 -47.5z" />
    <glyph glyph-name="uni1EBC" unicode="&#x1ebc;" horiz-adv-x="1089" 
d="M1079 0h-1032v1360h1000v-238h-723v-291h665v-239h-665v-350h755v-242zM758 1788l153 -55q-32 -104 -91.5 -152.5t-131.5 -48.5q-44 0 -91 23t-91 46t-80 23q-18 0 -41 -20t-39 -70l-141 76q58 180 198 180q42 0 84 -15.5t70 -33.5t60.5 -33.5t58.5 -15.5q24 0 49 23.5
t33 72.5z" />
    <glyph glyph-name="uni1EBD" unicode="&#x1ebd;" 
d="M305 602h412q-3 106 -63 163.5t-144 57.5q-82 0 -140 -59.5t-65 -161.5zM991 434h-694q6 -114 66.5 -182t158.5 -68q66 0 116.5 30.5t63.5 82.5h275q-45 -154 -162.5 -239t-279.5 -85q-504 0 -504 549q0 236 129 374t358 138q233 0 353 -151t120 -449zM717 1436l153 -56
q-32 -104 -91.5 -152t-131.5 -48q-44 0 -91 23t-91 46t-80 23q-18 0 -41 -20t-39 -70l-141 75q59 181 198 181q53 0 105 -25t94.5 -49.5t73.5 -24.5q23 0 48.5 24t33.5 73z" />
    <glyph glyph-name="uni1EBE" unicode="&#x1ebe;" horiz-adv-x="1089" 
d="M1079 0h-1032v1360h1000v-238h-723v-291h665v-239h-665v-350h755v-242zM807 1522l-238 207l-237 -207l-80 90l225 235h187l225 -235zM1325 1708l-379 -160l-51 94l350 205z" />
    <glyph glyph-name="uni1EBF" unicode="&#x1ebf;" 
d="M305 602h412q-3 106 -63 163.5t-144 57.5q-82 0 -140 -59.5t-65 -161.5zM991 434h-694q6 -114 66.5 -182t158.5 -68q66 0 116.5 30.5t63.5 82.5h275q-45 -154 -162.5 -239t-279.5 -85q-504 0 -504 549q0 236 129 374t358 138q233 0 353 -151t120 -449zM762 1169l-238 207
l-237 -207l-80 91l225 235h186l226 -235zM1280 1356l-379 -160l-51 94l350 205z" />
    <glyph glyph-name="uni1EC0" unicode="&#x1ec0;" horiz-adv-x="1089" 
d="M1079 0h-1032v1360h1000v-238h-723v-291h665v-239h-665v-350h755v-242zM811 1522l-238 207l-237 -207l-82 90l225 235h187l225 -235zM1229 1548l-379 160l80 139l350 -205z" />
    <glyph glyph-name="uni1EC1" unicode="&#x1ec1;" 
d="M305 602h412q-3 106 -63 163.5t-144 57.5q-82 0 -140 -59.5t-65 -161.5zM991 434h-694q6 -114 66.5 -182t158.5 -68q66 0 116.5 30.5t63.5 82.5h275q-45 -154 -162.5 -239t-279.5 -85q-504 0 -504 549q0 236 129 374t358 138q233 0 353 -151t120 -449zM764 1169l-238 207
l-237 -207l-82 91l225 235h186l226 -235zM1182 1196l-379 160l80 139l350 -205z" />
    <glyph glyph-name="uni1EC2" unicode="&#x1ec2;" horiz-adv-x="1089" 
d="M1079 0h-1032v1360h1000v-238h-723v-291h665v-239h-665v-350h755v-242zM1032 1542h-102q0 78 51 109q25 14 36 26t11 35q0 35 -49 35q-41 0 -84 -31l-37 113q29 24 69.5 37.5t73.5 13.5q70 0 111 -34t41 -91q0 -32 -12.5 -56.5t-30.5 -41t-35.5 -31.5t-30 -36.5
t-12.5 -47.5zM807 1522l-238 207l-237 -207l-82 90l225 235h187l225 -235z" />
    <glyph glyph-name="uni1EC3" unicode="&#x1ec3;" 
d="M305 602h412q-3 106 -63 163.5t-144 57.5q-82 0 -140 -59.5t-65 -161.5zM991 434h-694q6 -114 66.5 -182t158.5 -68q66 0 116.5 30.5t63.5 82.5h275q-45 -154 -162.5 -239t-279.5 -85q-504 0 -504 549q0 236 129 374t358 138q233 0 353 -151t120 -449zM981 1190h-102
q0 77 51 108q25 14 36 26.5t11 35.5q0 35 -49 35q-41 0 -84 -31l-37 113q29 24 69.5 37.5t73.5 13.5q70 0 111 -34t41 -91q0 -32 -12.5 -56.5t-30 -41t-35.5 -31.5t-30.5 -36.5t-12.5 -47.5zM756 1169l-238 207l-237 -207l-82 91l225 235h186l226 -235z" />
    <glyph glyph-name="uni1EC4" unicode="&#x1ec4;" horiz-adv-x="1089" 
d="M1079 0h-1032v1360h1000v-238h-723v-291h665v-239h-665v-350h755v-242zM721 1880l104 -29q-32 -125 -159 -125q-36 0 -109.5 20.5t-95.5 20.5q-34 0 -58 -65l-100 41q35 129 143 129q52 0 120 -23.5t98 -23.5q47 0 57 55zM840 1548l-70 -61l-209 143l-207 -143l-71 61
l196 164h164z" />
    <glyph glyph-name="uni1EC5" unicode="&#x1ec5;" 
d="M305 602h412q-3 106 -63 163.5t-144 57.5q-82 0 -140 -59.5t-65 -161.5zM991 434h-694q6 -114 66.5 -182t158.5 -68q66 0 116.5 30.5t63.5 82.5h275q-45 -154 -162.5 -239t-279.5 -85q-504 0 -504 549q0 236 129 374t358 138q233 0 353 -151t120 -449zM676 1528l104 -29
q-32 -125 -159 -125q-36 0 -109.5 20.5t-95.5 20.5q-34 0 -58 -65l-100 41q35 129 143 129q51 0 119 -23.5t98 -23.5q48 0 58 55zM795 1196l-70 -61l-209 143l-207 -143l-71 61l196 164h164z" />
    <glyph glyph-name="uni1EC6" unicode="&#x1ec6;" horiz-adv-x="1089" 
d="M1079 0h-1032v1360h1000v-238h-723v-291h665v-239h-665v-350h755v-242zM827 1501l-276 242l-277 -242l-94 105l262 274h217l263 -274zM688 -422h-266v254h266v-254z" />
    <glyph glyph-name="uni1EC7" unicode="&#x1ec7;" 
d="M305 602h412q-3 106 -63 163.5t-144 57.5q-82 0 -140 -59.5t-65 -161.5zM991 434h-694q6 -114 66.5 -182t158.5 -68q66 0 116.5 30.5t63.5 82.5h275q-45 -154 -162.5 -239t-279.5 -85q-504 0 -504 549q0 236 129 374t358 138q233 0 353 -151t120 -449zM795 1149l-277 242
l-276 -242l-95 104l263 275h217l262 -275zM657 -422h-266v254h266v-254z" />
    <glyph glyph-name="uni1EC8" unicode="&#x1ec8;" horiz-adv-x="382" 
d="M332 0h-285v1360h285v-1360zM229 1542h-102q0 78 51 109q25 14 36 26t11 35q0 35 -49 35q-41 0 -84 -31l-37 113q29 24 70 37.5t74 13.5q70 0 110.5 -34t40.5 -91q0 -32 -12.5 -56.5t-30 -41t-35.5 -31.5t-30.5 -36.5t-12.5 -47.5z" />
    <glyph glyph-name="uni1EC9" unicode="&#x1ec9;" horiz-adv-x="393" 
d="M326 0h-267v1008h267v-1008zM238 1190h-103q0 77 51 108q25 14 36 26.5t11 35.5q0 35 -49 35q-41 0 -84 -31l-37 113q29 24 70 37.5t74 13.5q70 0 110.5 -34t40.5 -91q0 -32 -12.5 -56.5t-30 -41t-35 -31.5t-30 -36.5t-12.5 -47.5z" />
    <glyph glyph-name="uni1ECA" unicode="&#x1eca;" horiz-adv-x="382" 
d="M332 0h-285v1360h285v-1360zM336 -422h-266v254h266v-254z" />
    <glyph glyph-name="uni1ECB" unicode="&#x1ecb;" horiz-adv-x="393" 
d="M326 0h-267v1008h267v-1008zM326 1128h-267v248h267v-248zM340 -422h-266v254h266v-254z" />
    <glyph glyph-name="uni1ECC" unicode="&#x1ecc;" horiz-adv-x="1372" 
d="M684 197q163 0 266 117.5t103 347.5q0 241 -95 366t-274 125q-181 0 -277 -125.5t-96 -365.5q0 -465 373 -465zM684 -47q-314 0 -483.5 185.5t-169.5 529.5q0 348 170.5 542.5t482.5 194.5t480.5 -195.5t168.5 -547.5q0 -348 -167 -528.5t-482 -180.5zM829 -422h-266v254
h266v-254z" />
    <glyph glyph-name="uni1ECD" unicode="&#x1ecd;" horiz-adv-x="1103" 
d="M549 197q244 0 244 307q0 305 -244 305t-244 -305q0 -307 244 -307zM549 -27q-241 0 -379.5 146t-138.5 385q0 241 140 385.5t378 144.5q236 0 374 -144t138 -386q0 -240 -139 -385.5t-373 -145.5zM694 -422h-266v254h266v-254z" />
    <glyph glyph-name="uni1ECE" unicode="&#x1ece;" horiz-adv-x="1372" 
d="M684 197q163 0 266 117.5t103 347.5q0 241 -95 366t-274 125q-181 0 -277 -125.5t-96 -365.5q0 -465 373 -465zM684 -47q-314 0 -483.5 185.5t-169.5 529.5q0 348 170.5 542.5t482.5 194.5t480.5 -195.5t168.5 -547.5q0 -348 -167 -528.5t-482 -180.5zM729 1542h-102
q0 78 51 109q25 14 36 26t11 35q0 35 -49 35q-41 0 -84 -31l-37 113q29 24 69.5 37.5t73.5 13.5q70 0 111 -34t41 -91q0 -32 -12.5 -56.5t-30 -41t-35.5 -31.5t-30.5 -36.5t-12.5 -47.5z" />
    <glyph glyph-name="uni1ECF" unicode="&#x1ecf;" horiz-adv-x="1103" 
d="M549 197q244 0 244 307q0 305 -244 305t-244 -305q0 -307 244 -307zM549 -27q-241 0 -379.5 146t-138.5 385q0 241 140 385.5t378 144.5q236 0 374 -144t138 -386q0 -240 -139 -385.5t-373 -145.5zM594 1190h-102q0 77 51 108q25 14 36 26.5t11 35.5q0 35 -49 35
q-41 0 -84 -31l-37 113q29 24 69.5 37.5t73.5 13.5q70 0 111 -34t41 -91q0 -32 -12.5 -56.5t-30.5 -41t-35.5 -31.5t-30 -36.5t-12.5 -47.5z" />
    <glyph glyph-name="uni1ED0" unicode="&#x1ed0;" horiz-adv-x="1372" 
d="M684 197q163 0 266 117.5t103 347.5q0 241 -95 366t-274 125q-181 0 -277 -125.5t-96 -365.5q0 -465 373 -465zM684 -47q-314 0 -483.5 185.5t-169.5 529.5q0 348 170.5 542.5t482.5 194.5t480.5 -195.5t168.5 -547.5q0 -348 -167 -528.5t-482 -180.5zM934 1522l-238 207
l-237 -207l-80 90l225 235h187l225 -235zM1452 1708l-379 -160l-51 94l350 205z" />
    <glyph glyph-name="uni1ED1" unicode="&#x1ed1;" horiz-adv-x="1103" 
d="M549 197q244 0 244 307q0 305 -244 305t-244 -305q0 -307 244 -307zM549 -27q-241 0 -379.5 146t-138.5 385q0 241 140 385.5t378 144.5q236 0 374 -144t138 -386q0 -240 -139 -385.5t-373 -145.5zM799 1169l-238 207l-237 -207l-80 91l225 235h186l226 -235zM1317 1356
l-379 -160l-51 94l350 205z" />
    <glyph glyph-name="uni1ED2" unicode="&#x1ed2;" horiz-adv-x="1372" 
d="M684 197q163 0 266 117.5t103 347.5q0 241 -95 366t-274 125q-181 0 -277 -125.5t-96 -365.5q0 -465 373 -465zM684 -47q-314 0 -483.5 185.5t-169.5 529.5q0 348 170.5 542.5t482.5 194.5t480.5 -195.5t168.5 -547.5q0 -348 -167 -528.5t-482 -180.5zM938 1522l-238 207
l-237 -207l-82 90l225 235h187l225 -235zM1356 1548l-379 160l80 139l350 -205z" />
    <glyph glyph-name="uni1ED3" unicode="&#x1ed3;" horiz-adv-x="1103" 
d="M549 197q244 0 244 307q0 305 -244 305t-244 -305q0 -307 244 -307zM549 -27q-241 0 -379.5 146t-138.5 385q0 241 140 385.5t378 144.5q236 0 374 -144t138 -386q0 -240 -139 -385.5t-373 -145.5zM807 1169l-238 207l-237 -207l-82 91l225 235h187l225 -235zM1225 1196
l-379 160l80 139l350 -205z" />
    <glyph glyph-name="uni1ED4" unicode="&#x1ed4;" horiz-adv-x="1372" 
d="M684 197q163 0 266 117.5t103 347.5q0 241 -95 366t-274 125q-181 0 -277 -125.5t-96 -365.5q0 -465 373 -465zM684 -47q-314 0 -483.5 185.5t-169.5 529.5q0 348 170.5 542.5t482.5 194.5t480.5 -195.5t168.5 -547.5q0 -348 -167 -528.5t-482 -180.5zM1153 1542h-102
q0 78 51 109q25 14 36 26t11 35q0 35 -49 35q-41 0 -84 -31l-37 113q29 24 69.5 37.5t73.5 13.5q70 0 111 -34t41 -91q0 -32 -12.5 -56.5t-30 -41t-35.5 -31.5t-30.5 -36.5t-12.5 -47.5zM928 1522l-238 207l-237 -207l-82 90l225 235h186l226 -235z" />
    <glyph glyph-name="uni1ED5" unicode="&#x1ed5;" horiz-adv-x="1103" 
d="M549 197q244 0 244 307q0 305 -244 305t-244 -305q0 -307 244 -307zM549 -27q-241 0 -379.5 146t-138.5 385q0 241 140 385.5t378 144.5q236 0 374 -144t138 -386q0 -240 -139 -385.5t-373 -145.5zM1020 1190h-102q0 77 51 108q25 14 36 26.5t11 35.5q0 35 -49 35
q-41 0 -84 -31l-37 113q29 24 69.5 37.5t73.5 13.5q70 0 111 -34t41 -91q0 -32 -12.5 -56.5t-30.5 -41t-35.5 -31.5t-30 -36.5t-12.5 -47.5zM795 1169l-238 207l-238 -207l-81 91l225 235h186l225 -235z" />
    <glyph glyph-name="uni1ED6" unicode="&#x1ed6;" horiz-adv-x="1372" 
d="M684 197q163 0 266 117.5t103 347.5q0 241 -95 366t-274 125q-181 0 -277 -125.5t-96 -365.5q0 -465 373 -465zM684 -47q-314 0 -483.5 185.5t-169.5 529.5q0 348 170.5 542.5t482.5 194.5t480.5 -195.5t168.5 -547.5q0 -348 -167 -528.5t-482 -180.5zM848 1880l104 -29
q-32 -125 -159 -125q-36 0 -109.5 20.5t-95.5 20.5q-34 0 -58 -65l-100 41q35 129 143 129q51 0 119 -23.5t99 -23.5q47 0 57 55zM967 1548l-70 -61l-209 143l-207 -143l-71 61l196 164h164z" />
    <glyph glyph-name="uni1ED7" unicode="&#x1ed7;" horiz-adv-x="1103" 
d="M549 197q244 0 244 307q0 305 -244 305t-244 -305q0 -307 244 -307zM549 -27q-241 0 -379.5 146t-138.5 385q0 241 140 385.5t378 144.5q236 0 374 -144t138 -386q0 -240 -139 -385.5t-373 -145.5zM713 1528l104 -29q-32 -125 -160 -125q-36 0 -109 20.5t-95 20.5
q-34 0 -58 -65l-100 41q35 129 143 129q52 0 119 -23.5t98 -23.5q48 0 58 55zM831 1196l-69 -61l-209 143l-207 -143l-72 61l197 164h164z" />
    <glyph glyph-name="uni1ED8" unicode="&#x1ed8;" horiz-adv-x="1372" 
d="M684 197q163 0 266 117.5t103 347.5q0 241 -95 366t-274 125q-181 0 -277 -125.5t-96 -365.5q0 -465 373 -465zM684 -47q-314 0 -483.5 185.5t-169.5 529.5q0 348 170.5 542.5t482.5 194.5t480.5 -195.5t168.5 -547.5q0 -348 -167 -528.5t-482 -180.5zM965 1501l-277 242
l-276 -242l-95 105l263 274h217l262 -274zM829 -422h-266v254h266v-254z" />
    <glyph glyph-name="uni1ED9" unicode="&#x1ed9;" horiz-adv-x="1103" 
d="M549 197q244 0 244 307q0 305 -244 305t-244 -305q0 -307 244 -307zM549 -27q-241 0 -379.5 146t-138.5 385q0 241 140 385.5t378 144.5q236 0 374 -144t138 -386q0 -240 -139 -385.5t-373 -145.5zM829 1149l-276 242l-277 -242l-94 104l262 275h218l262 -275zM694 -422
h-266v254h266v-254z" />
    <glyph glyph-name="uni1EDA" unicode="&#x1eda;" horiz-adv-x="1574" 
d="M1397 1438h143q43 -49 43 -160q0 -112 -50 -165.5t-138 -53.5q-70 0 -152 31q90 -175 90 -428q0 -348 -167 -528.5t-482 -180.5q-314 0 -483.5 185.5t-169.5 529.5q0 348 170.5 542.5t482.5 194.5q258 0 422 -139q86 -72 211 -72q98 0 98 129q0 70 -18 115zM684 197
q163 0 266 117.5t103 347.5q0 241 -95 366t-274 125q-181 0 -277 -125.5t-96 -365.5q0 -465 373 -465zM1012 1679l-457 -192l-63 112l423 248z" />
    <glyph glyph-name="uni1EDB" unicode="&#x1edb;" horiz-adv-x="1333" 
d="M872 1327l-456 -192l-64 112l424 248zM1155 1112h143q43 -49 43 -160q0 -57 -14.5 -104.5t-53 -81t-95.5 -33.5q-98 0 -170 29q53 -112 53 -258q0 -240 -139 -385.5t-373 -145.5q-241 0 -379.5 146t-138.5 385q0 241 140 385.5t378 144.5q186 0 315 -94q100 -72 211 -72
q99 0 99 129q0 67 -19 115zM549 197q244 0 244 307q0 305 -244 305t-244 -305q0 -307 244 -307z" />
    <glyph glyph-name="uni1EDC" unicode="&#x1edc;" horiz-adv-x="1574" 
d="M1397 1438h143q43 -49 43 -160q0 -112 -50 -165.5t-138 -53.5q-70 0 -152 31q90 -175 90 -428q0 -348 -167 -528.5t-482 -180.5q-314 0 -483.5 185.5t-169.5 529.5q0 348 170.5 542.5t482.5 194.5q258 0 422 -139q86 -72 211 -72q98 0 98 129q0 70 -18 115zM684 197
q163 0 266 117.5t103 347.5q0 241 -95 366t-274 125q-181 0 -277 -125.5t-96 -365.5q0 -465 373 -465zM825 1487l-456 192l96 168l424 -248z" />
    <glyph glyph-name="uni1EDD" unicode="&#x1edd;" horiz-adv-x="1333" 
d="M690 1135l-457 192l97 168l424 -248zM1155 1112h143q43 -49 43 -160q0 -57 -14.5 -104.5t-53 -81t-95.5 -33.5q-98 0 -170 29q53 -112 53 -258q0 -240 -139 -385.5t-373 -145.5q-241 0 -379.5 146t-138.5 385q0 241 140 385.5t378 144.5q186 0 315 -94q100 -72 211 -72
q99 0 99 129q0 67 -19 115zM549 197q244 0 244 307q0 305 -244 305t-244 -305q0 -307 244 -307z" />
    <glyph glyph-name="uni1EDE" unicode="&#x1ede;" horiz-adv-x="1574" 
d="M1397 1438h143q43 -49 43 -160q0 -112 -50 -165.5t-138 -53.5q-70 0 -152 31q90 -175 90 -428q0 -348 -167 -528.5t-482 -180.5q-314 0 -483.5 185.5t-169.5 529.5q0 348 170.5 542.5t482.5 194.5q258 0 422 -139q86 -72 211 -72q98 0 98 129q0 70 -18 115zM684 197
q163 0 266 117.5t103 347.5q0 241 -95 366t-274 125q-181 0 -277 -125.5t-96 -365.5q0 -465 373 -465zM733 1542h-102q0 78 51 109q25 14 36 26t11 35q0 35 -49 35q-41 0 -84 -31l-37 113q29 24 69.5 37.5t73.5 13.5q70 0 111 -34t41 -91q0 -32 -12.5 -56.5t-30 -41
t-35.5 -31.5t-30.5 -36.5t-12.5 -47.5z" />
    <glyph glyph-name="uni1EDF" unicode="&#x1edf;" horiz-adv-x="1333" 
d="M1155 1112h143q43 -49 43 -160q0 -57 -14.5 -104.5t-53 -81t-95.5 -33.5q-98 0 -170 29q53 -112 53 -258q0 -240 -139 -385.5t-373 -145.5q-241 0 -379.5 146t-138.5 385q0 241 140 385.5t378 144.5q186 0 315 -94q100 -72 211 -72q99 0 99 129q0 67 -19 115zM549 197
q244 0 244 307q0 305 -244 305t-244 -305q0 -307 244 -307zM610 1190h-102q0 77 51 108q25 14 36 26.5t11 35.5q0 35 -49 35q-41 0 -84 -31l-37 113q29 24 70 37.5t74 13.5q70 0 110.5 -34t40.5 -91q0 -32 -12.5 -56.5t-30.5 -41t-35.5 -31.5t-30 -36.5t-12.5 -47.5z" />
    <glyph glyph-name="uni1EE0" unicode="&#x1ee0;" horiz-adv-x="1574" 
d="M1397 1438h143q43 -49 43 -160q0 -112 -50 -165.5t-138 -53.5q-70 0 -152 31q90 -175 90 -428q0 -348 -167 -528.5t-482 -180.5q-314 0 -483.5 185.5t-169.5 529.5q0 348 170.5 542.5t482.5 194.5q258 0 422 -139q86 -72 211 -72q98 0 98 129q0 70 -18 115zM684 197
q163 0 266 117.5t103 347.5q0 241 -95 366t-274 125q-181 0 -277 -125.5t-96 -365.5q0 -465 373 -465zM891 1788l153 -55q-32 -104 -91.5 -152.5t-131.5 -48.5q-44 0 -91 23t-91 46t-80 23q-18 0 -41 -20t-39 -70l-141 76q58 180 199 180q53 0 104.5 -24.5t94 -49
t73.5 -24.5q24 0 49 23.5t33 72.5z" />
    <glyph glyph-name="uni1EE1" unicode="&#x1ee1;" horiz-adv-x="1333" 
d="M1155 1112h143q43 -49 43 -160q0 -57 -14.5 -104.5t-53 -81t-95.5 -33.5q-98 0 -170 29q53 -112 53 -258q0 -240 -139 -385.5t-373 -145.5q-241 0 -379.5 146t-138.5 385q0 241 140 385.5t378 144.5q186 0 315 -94q100 -72 211 -72q99 0 99 129q0 67 -19 115zM549 197
q244 0 244 307q0 305 -244 305t-244 -305q0 -307 244 -307zM754 1436l153 -56q-32 -104 -91.5 -152t-131.5 -48q-44 0 -91 23t-91 46t-80 23q-18 0 -41 -20t-39 -70l-141 75q59 181 198 181q53 0 105 -25t94.5 -49.5t73.5 -24.5q23 0 48.5 24t33.5 73z" />
    <glyph glyph-name="uni1EE2" unicode="&#x1ee2;" horiz-adv-x="1574" 
d="M1397 1438h143q43 -49 43 -160q0 -112 -50 -165.5t-138 -53.5q-70 0 -152 31q90 -175 90 -428q0 -348 -167 -528.5t-482 -180.5q-314 0 -483.5 185.5t-169.5 529.5q0 348 170.5 542.5t482.5 194.5q258 0 422 -139q86 -72 211 -72q98 0 98 129q0 70 -18 115zM684 197
q163 0 266 117.5t103 347.5q0 241 -95 366t-274 125q-181 0 -277 -125.5t-96 -365.5q0 -465 373 -465zM821 -422h-266v254h266v-254z" />
    <glyph glyph-name="uni1EE3" unicode="&#x1ee3;" horiz-adv-x="1333" 
d="M1155 1112h143q43 -49 43 -160q0 -57 -14.5 -104.5t-53 -81t-95.5 -33.5q-98 0 -170 29q53 -112 53 -258q0 -240 -139 -385.5t-373 -145.5q-241 0 -379.5 146t-138.5 385q0 241 140 385.5t378 144.5q186 0 315 -94q100 -72 211 -72q99 0 99 129q0 67 -19 115zM549 197
q244 0 244 307q0 305 -244 305t-244 -305q0 -307 244 -307zM696 -422h-266v254h266v-254z" />
    <glyph glyph-name="uni1EE4" unicode="&#x1ee4;" horiz-adv-x="1200" 
d="M852 453v907h291v-907q0 -245 -145 -372.5t-414 -127.5q-254 0 -395.5 121.5t-141.5 361.5v924h289v-897q0 -127 64.5 -201t179.5 -74q272 0 272 265zM743 -422h-266v254h266v-254z" />
    <glyph glyph-name="uni1EE5" unicode="&#x1ee5;" horiz-adv-x="1024" 
d="M961 0h-252v141q-102 -168 -314 -168q-151 0 -246.5 103t-95.5 268v664h266v-623q0 -188 170 -188q99 0 153 63t54 166v582h265v-1008zM672 -422h-266v254h266v-254z" />
    <glyph glyph-name="uni1EE6" unicode="&#x1ee6;" horiz-adv-x="1200" 
d="M852 453v907h291v-907q0 -245 -145 -372.5t-414 -127.5q-254 0 -395.5 121.5t-141.5 361.5v924h289v-897q0 -127 64.5 -201t179.5 -74q272 0 272 265zM643 1542h-102q0 78 51 109q25 14 36 26t11 35q0 35 -49 35q-41 0 -84 -31l-37 113q29 24 69.5 37.5t73.5 13.5
q70 0 111 -34t41 -91q0 -32 -12.5 -56.5t-30 -41t-35.5 -31.5t-30.5 -36.5t-12.5 -47.5z" />
    <glyph glyph-name="uni1EE7" unicode="&#x1ee7;" horiz-adv-x="1024" 
d="M961 0h-252v141q-102 -168 -314 -168q-151 0 -246.5 103t-95.5 268v664h266v-623q0 -188 170 -188q99 0 153 63t54 166v582h265v-1008zM559 1190h-102q0 77 51 108q25 14 36 26.5t11 35.5q0 35 -49 35q-41 0 -84 -31l-37 113q29 24 69.5 37.5t73.5 13.5q70 0 111 -34
t41 -91q0 -32 -12.5 -56.5t-30 -41t-35.5 -31.5t-30.5 -36.5t-12.5 -47.5z" />
    <glyph glyph-name="uni1EE8" unicode="&#x1ee8;" horiz-adv-x="1531" 
d="M852 453v907h291v-150q49 -16 102 -16q57 0 83 30t26 99q0 67 -19 115h144q43 -49 43 -162q0 -109 -52.5 -164t-140.5 -55q-91 0 -186 53v-657q0 -245 -144.5 -372.5t-410.5 -127.5q-258 0 -399.5 121t-141.5 362v924h289v-897q0 -130 64.5 -202.5t193.5 -72.5
q123 0 190.5 67t67.5 198zM932 1679l-457 -192l-63 112l424 248z" />
    <glyph glyph-name="uni1EE9" unicode="&#x1ee9;" horiz-adv-x="1306" 
d="M840 1327l-457 -192l-64 112l424 248zM961 0h-252v141q-101 -168 -308 -168q-158 0 -253 102.5t-95 268.5v664h266v-623q0 -188 168 -188q100 0 154.5 62.5t54.5 166.5v582h265v-131q43 -9 77 -9q61 0 84 33.5t23 93.5q0 69 -19 117h144q43 -49 43 -162
q0 -109 -51.5 -163t-139.5 -54q-77 0 -161 37v-770z" />
    <glyph glyph-name="uni1EEA" unicode="&#x1eea;" horiz-adv-x="1531" 
d="M852 453v907h291v-150q49 -16 102 -16q57 0 83 30t26 99q0 67 -19 115h144q43 -49 43 -162q0 -109 -52.5 -164t-140.5 -55q-91 0 -186 53v-657q0 -245 -144.5 -372.5t-410.5 -127.5q-258 0 -399.5 121t-141.5 362v924h289v-897q0 -130 64.5 -202.5t193.5 -72.5
q123 0 190.5 67t67.5 198zM748 1487l-457 192l96 168l424 -248z" />
    <glyph glyph-name="uni1EEB" unicode="&#x1eeb;" horiz-adv-x="1306" 
d="M651 1135l-456 192l96 168l424 -248zM961 0h-252v141q-101 -168 -308 -168q-158 0 -253 102.5t-95 268.5v664h266v-623q0 -188 168 -188q100 0 154.5 62.5t54.5 166.5v582h265v-131q43 -9 77 -9q61 0 84 33.5t23 93.5q0 69 -19 117h144q43 -49 43 -162q0 -109 -51.5 -163
t-139.5 -54q-77 0 -161 37v-770z" />
    <glyph glyph-name="uni1EEC" unicode="&#x1eec;" horiz-adv-x="1531" 
d="M852 453v907h291v-150q49 -16 102 -16q57 0 83 30t26 99q0 67 -19 115h144q43 -49 43 -162q0 -109 -52.5 -164t-140.5 -55q-91 0 -186 53v-657q0 -245 -144.5 -372.5t-410.5 -127.5q-258 0 -399.5 121t-141.5 362v924h289v-897q0 -130 64.5 -202.5t193.5 -72.5
q123 0 190.5 67t67.5 198zM668 1542h-103q0 78 51 109q26 14 37 26t11 35q0 35 -50 35q-41 0 -84 -31l-36 113q29 24 69.5 37.5t73.5 13.5q70 0 110.5 -34t40.5 -91q0 -32 -12.5 -56.5t-30 -41t-35 -31.5t-30 -36.5t-12.5 -47.5z" />
    <glyph glyph-name="uni1EED" unicode="&#x1eed;" horiz-adv-x="1306" 
d="M961 0h-252v141q-101 -168 -308 -168q-158 0 -253 102.5t-95 268.5v664h266v-623q0 -188 168 -188q100 0 154.5 62.5t54.5 166.5v582h265v-131q43 -9 77 -9q61 0 84 33.5t23 93.5q0 69 -19 117h144q43 -49 43 -162q0 -109 -51.5 -163t-139.5 -54q-77 0 -161 37v-770z
M561 1190h-102q0 77 51 108q25 14 36 26.5t11 35.5q0 35 -49 35q-41 0 -84 -31l-37 113q29 24 69.5 37.5t73.5 13.5q70 0 111 -34t41 -91q0 -32 -12.5 -56.5t-30 -41t-35.5 -31.5t-30.5 -36.5t-12.5 -47.5z" />
    <glyph glyph-name="uni1EEE" unicode="&#x1eee;" horiz-adv-x="1531" 
d="M852 453v907h291v-150q49 -16 102 -16q57 0 83 30t26 99q0 67 -19 115h144q43 -49 43 -162q0 -109 -52.5 -164t-140.5 -55q-91 0 -186 53v-657q0 -245 -144.5 -372.5t-410.5 -127.5q-258 0 -399.5 121t-141.5 362v924h289v-897q0 -130 64.5 -202.5t193.5 -72.5
q123 0 190.5 67t67.5 198zM803 1788l153 -55q-32 -104 -91.5 -152.5t-131.5 -48.5q-44 0 -91 23t-91 46t-80 23q-18 0 -41 -20t-39 -70l-141 76q58 180 199 180q53 0 104.5 -24.5t94 -49t73.5 -24.5q24 0 49 23.5t33 72.5z" />
    <glyph glyph-name="uni1EEF" unicode="&#x1eef;" horiz-adv-x="1306" 
d="M719 1436l153 -56q-32 -104 -91.5 -152t-131.5 -48q-44 0 -91 23t-91 46t-80 23q-18 0 -41 -20t-39 -70l-141 75q59 181 199 181q42 0 84 -15.5t70 -34t60 -34t58 -15.5q23 0 48.5 24t33.5 73zM961 0h-252v141q-101 -168 -308 -168q-158 0 -253 102.5t-95 268.5v664h266
v-623q0 -188 168 -188q100 0 154.5 62.5t54.5 166.5v582h265v-131q43 -9 77 -9q61 0 84 33.5t23 93.5q0 69 -19 117h144q43 -49 43 -162q0 -109 -51.5 -163t-139.5 -54q-77 0 -161 37v-770z" />
    <glyph glyph-name="uni1EF0" unicode="&#x1ef0;" horiz-adv-x="1531" 
d="M852 453v907h291v-150q49 -16 102 -16q57 0 83 30t26 99q0 67 -19 115h144q43 -49 43 -162q0 -109 -52.5 -164t-140.5 -55q-91 0 -186 53v-657q0 -245 -144.5 -372.5t-410.5 -127.5q-258 0 -399.5 121t-141.5 362v924h289v-897q0 -130 64.5 -202.5t193.5 -72.5
q123 0 190.5 67t67.5 198zM748 -422h-267v254h267v-254z" />
    <glyph glyph-name="uni1EF1" unicode="&#x1ef1;" horiz-adv-x="1306" 
d="M961 0h-252v141q-101 -168 -308 -168q-158 0 -253 102.5t-95 268.5v664h266v-623q0 -188 168 -188q100 0 154.5 62.5t54.5 166.5v582h265v-131q43 -9 77 -9q61 0 84 33.5t23 93.5q0 69 -19 117h144q43 -49 43 -162q0 -109 -51.5 -163t-139.5 -54q-77 0 -161 37v-770z
M651 -422h-266v254h266v-254z" />
    <glyph glyph-name="Ygrave" unicode="&#x1ef2;" horiz-adv-x="1232" 
d="M762 0h-285v514l-471 846h332l287 -553l264 553h328l-455 -850v-510zM768 1487l-457 192l97 168l423 -248z" />
    <glyph glyph-name="ygrave" unicode="&#x1ef3;" horiz-adv-x="1028" 
d="M694 -31v164q-27 -66 -102 -104.5t-170 -38.5q-161 0 -265 100.5t-104 263.5v654h266v-615q0 -188 170 -188q90 0 147.5 53t57.5 135v615h267v-1035q0 -139 -62.5 -242.5t-166.5 -155.5t-234 -52q-217 0 -331 111.5t-114 310.5h248q0 -91 53.5 -142t155.5 -51
q75 0 129.5 60.5t54.5 156.5zM651 1135l-456 192l96 168l424 -248z" />
    <glyph glyph-name="uni1EF6" unicode="&#x1ef6;" horiz-adv-x="1232" 
d="M762 0h-285v514l-471 846h332l287 -553l264 553h328l-455 -850v-510zM664 1542h-103q0 78 51 109q25 14 36 26t11 35q0 35 -49 35q-41 0 -84 -31l-37 113q29 24 70 37.5t74 13.5q70 0 110.5 -34t40.5 -91q0 -32 -12.5 -56.5t-30 -41t-35 -31.5t-30 -36.5t-12.5 -47.5z
" />
    <glyph glyph-name="uni1EF7" unicode="&#x1ef7;" horiz-adv-x="1028" 
d="M694 -31v164q-27 -66 -102 -104.5t-170 -38.5q-161 0 -265 100.5t-104 263.5v654h266v-615q0 -188 170 -188q90 0 147.5 53t57.5 135v615h267v-1035q0 -139 -62.5 -242.5t-166.5 -155.5t-234 -52q-217 0 -331 111.5t-114 310.5h248q0 -91 53.5 -142t155.5 -51
q75 0 129.5 60.5t54.5 156.5zM561 1190h-102q0 77 51 108q25 14 36 26.5t11 35.5q0 35 -49 35q-41 0 -84 -31l-37 113q29 24 69.5 37.5t73.5 13.5q70 0 111 -34t41 -91q0 -32 -12.5 -56.5t-30 -41t-35.5 -31.5t-30.5 -36.5t-12.5 -47.5z" />
    <glyph glyph-name="endash" unicode="&#x2013;" horiz-adv-x="892" 
d="M856 526h-829v207h829v-207z" />
    <glyph glyph-name="emdash" unicode="&#x2014;" horiz-adv-x="1263" 
d="M1229 530h-1196v201h1196v-201z" />
    <glyph glyph-name="quoteleft" unicode="&#x2018;" horiz-adv-x="395" 
d="M330 1497v-102q-80 -21 -118.5 -71.5t-39.5 -145.5h158v-277h-283v209q0 176 63 265t220 122z" />
    <glyph glyph-name="quoteright" unicode="&#x2019;" horiz-adv-x="395" 
d="M49 819v103q80 21 118.5 71.5t39.5 145.5h-158v276h283v-209q0 -176 -63 -265t-220 -122z" />
    <glyph glyph-name="quotesinglbase" unicode="&#x201a;" horiz-adv-x="417" 
d="M82 -303v96q73 19 108.5 67.5t36.5 139.5h-145v264h260v-201q0 -167 -57.5 -250.5t-202.5 -115.5z" />
    <glyph glyph-name="quotedblleft" unicode="&#x201c;" horiz-adv-x="790" 
d="M725 1497v-102q-80 -21 -118.5 -71.5t-39.5 -145.5h158v-277h-283v209q0 176 63 265t220 122zM330 1497v-102q-80 -21 -118.5 -71.5t-39.5 -145.5h158v-277h-283v209q0 176 63 265t220 122z" />
    <glyph glyph-name="quotedblright" unicode="&#x201d;" horiz-adv-x="790" 
d="M49 819v103q80 21 118.5 71.5t39.5 145.5h-158v276h283v-209q0 -176 -63 -265t-220 -122zM449 819v103q80 21 118 71.5t39 145.5h-157v276h282v-209q0 -177 -62.5 -265.5t-219.5 -121.5z" />
    <glyph glyph-name="quotedblbase" unicode="&#x201e;" horiz-adv-x="835" 
d="M500 -303v96q73 19 108.5 67.5t36.5 139.5h-145v264h260v-201q0 -167 -57.5 -250.5t-202.5 -115.5zM82 -303v96q73 19 108.5 67.5t36.5 139.5h-145v264h260v-201q0 -167 -57.5 -250.5t-202.5 -115.5z" />
    <glyph glyph-name="dagger" unicode="&#x2020;" horiz-adv-x="1091" 
d="M655 0h-209v891h-374v164h374v305h209v-305h359v-164h-359v-891z" />
    <glyph glyph-name="daggerdbl" unicode="&#x2021;" horiz-adv-x="1091" 
d="M1014 305h-359v-305h-204v305h-373v162h373v428h-373v160h373v305h204v-305h359v-160h-359v-428h359v-162z" />
    <glyph glyph-name="bullet" unicode="&#x2022;" horiz-adv-x="864" 
d="M760 702q0 -124 -96.5 -207t-235.5 -83q-143 0 -239.5 83t-96.5 207q0 127 96.5 210t239.5 83q140 0 236 -83.5t96 -209.5z" />
    <glyph glyph-name="ellipsis" unicode="&#x2026;" horiz-adv-x="1916" 
d="M1098 0h-285v276h285v-276zM1866 0h-285v276h285v-276zM332 0h-285v276h285v-276z" />
    <glyph glyph-name="perthousand" unicode="&#x2030;" horiz-adv-x="1755" 
d="M190 -41h-137l944 1442h140zM922 63q50 0 73 59t23 195q0 139 -23 198.5t-73 59.5q-49 0 -73 -59.5t-24 -196.5t24 -196.5t73 -59.5zM918 -45q-232 0 -232 367q0 360 232 360q235 0 235 -358q0 -185 -61 -277t-174 -92zM1491 63q50 0 73 59t23 195q0 139 -23 198.5
t-73 59.5q-49 0 -72.5 -59.5t-23.5 -196.5t23.5 -196.5t72.5 -59.5zM1487 -45q-232 0 -232 367q0 360 232 360q235 0 235 -358q0 -185 -61 -277t-174 -92zM274 786q50 0 73.5 59t23.5 195q0 139 -23.5 198.5t-73.5 59.5q-49 0 -72.5 -59.5t-23.5 -196.5t23.5 -196.5
t72.5 -59.5zM270 678q-231 0 -231 366q0 361 231 361q236 0 236 -358q0 -185 -61.5 -277t-174.5 -92z" />
    <glyph glyph-name="guilsinglleft" unicode="&#x2039;" horiz-adv-x="475" 
d="M319 297l-292 352l292 357l130 -140l-193 -217l193 -215z" />
    <glyph glyph-name="guilsinglright" unicode="&#x203a;" horiz-adv-x="475" 
d="M156 297l-129 137l192 215l-192 217l129 140l293 -357z" />
    <glyph glyph-name="fraction" unicode="&#x2044;" horiz-adv-x="272" 
d="M-270 -41h-138l945 1442h139z" />
    <glyph glyph-name="uni2070" unicode="&#x2070;" horiz-adv-x="563" 
d="M283 786q50 0 73 59t23 195q0 139 -23 198.5t-73 59.5q-49 0 -73 -59.5t-24 -196.5t24 -196.5t73 -59.5zM279 678q-232 0 -232 366q0 361 232 361q235 0 235 -358q0 -185 -61 -277t-174 -92z" />
    <glyph glyph-name="uni2074" unicode="&#x2074;" horiz-adv-x="548" 
d="M301 954v240l-139 -240h139zM432 702h-133v148h-264v117l248 415h149v-428h76v-104h-76v-148z" />
    <glyph glyph-name="uni2075" unicode="&#x2075;" horiz-adv-x="563" 
d="M197 969h-138l15 413h418v-112h-299l-7 -183q45 48 136 48q86 0 141 -57t55 -156q0 -110 -65 -177t-170 -67q-93 0 -158 56t-68 143h133q3 -41 28 -66t65 -25q102 0 102 129q0 54 -24 83.5t-70 29.5q-67 0 -94 -59z" />
    <glyph glyph-name="uni2076" unicode="&#x2076;" horiz-adv-x="559" 
d="M283 786q45 0 69.5 36t24.5 93q0 58 -26.5 92.5t-69.5 34.5q-45 0 -74 -34.5t-29 -89.5q0 -59 28 -95.5t77 -36.5zM496 1235h-131q-6 63 -72 63q-55 0 -83 -52.5t-34 -162.5q57 64 139 64q84 0 138.5 -61t54.5 -164q0 -105 -62 -174.5t-161 -69.5q-240 0 -240 342
q0 201 62.5 293t191.5 92q82 0 134.5 -44.5t62.5 -125.5z" />
    <glyph glyph-name="uni2077" unicode="&#x2077;" horiz-adv-x="550" 
d="M264 702h-137q12 149 73.5 295t166.5 267h-332v118h475v-102q-113 -126 -175.5 -275t-70.5 -303z" />
    <glyph glyph-name="uni2078" unicode="&#x2078;" horiz-adv-x="567" 
d="M281 788q98 0 98 113q0 48 -24.5 77.5t-73.5 29.5t-73 -28.5t-24 -78.5q0 -113 97 -113zM281 1112q40 0 62 25.5t22 66.5q0 42 -22 67t-62 25t-61 -24.5t-21 -67.5q0 -41 21 -66.5t61 -25.5zM416 1073q45 -20 72.5 -67.5t27.5 -104.5q0 -101 -59.5 -162t-173.5 -61
t-176 61t-62 156q0 122 107 172q-39 20 -57.5 61.5t-18.5 88.5q0 82 59 135t148 53q96 0 149 -51.5t53 -132.5q0 -111 -69 -148z" />
    <glyph glyph-name="uni2079" unicode="&#x2079;" horiz-adv-x="559" 
d="M274 1040q44 0 72.5 35t28.5 90q0 60 -27 95.5t-76 35.5q-45 0 -70.5 -36t-25.5 -93q0 -58 27 -92.5t71 -34.5zM57 848h133q3 -64 72 -64q54 0 81.5 52.5t33.5 162.5q-53 -63 -139 -63q-82 0 -137.5 61t-55.5 164q0 106 62.5 175t162.5 69q238 0 238 -342
q0 -201 -62 -293t-190 -92q-84 0 -136.5 44.5t-62.5 125.5z" />
    <glyph glyph-name="uni2080" unicode="&#x2080;" horiz-adv-x="563" 
d="M283 63q50 0 73 59t23 195q0 139 -23 198.5t-73 59.5q-49 0 -73 -59.5t-24 -196.5t24 -196.5t73 -59.5zM279 -45q-232 0 -232 367q0 360 232 360q235 0 235 -358q0 -185 -61 -277t-174 -92z" />
    <glyph glyph-name="uni2081" unicode="&#x2081;" horiz-adv-x="364" 
d="M307 -20h-133v469h-139v92q85 0 121.5 28t42.5 90h108v-679z" />
    <glyph glyph-name="uni2082" unicode="&#x2082;" horiz-adv-x="536" 
d="M498 -20h-463q0 102 41 175t164 162q73 53 99 86.5t26 75.5q0 88 -95 88q-47 0 -72.5 -27.5t-25.5 -93.5h-129q0 111 58.5 173.5t162.5 62.5q106 0 169 -51t63 -148q0 -76 -42.5 -131.5t-154.5 -134.5q-40 -30 -66.5 -63.5t-27.5 -59.5h293v-114z" />
    <glyph glyph-name="uni2083" unicode="&#x2083;" horiz-adv-x="550" 
d="M219 285v92q79 0 108 25t29 69q0 104 -88 104q-40 0 -65 -29.5t-25 -82.5h-123q0 98 61 158.5t158 60.5q89 0 150 -52t61 -134q0 -48 -20.5 -89t-58.5 -63q100 -43 100 -168q0 -102 -66 -161.5t-174 -59.5q-105 0 -164 60t-59 163h129q0 -112 100 -112q43 0 71 30t28 82
q0 60 -34 83.5t-118 23.5z" />
    <glyph glyph-name="uni2084" unicode="&#x2084;" horiz-adv-x="548" 
d="M301 231v240l-139 -240h139zM432 -20h-133v147h-264v117l248 415h149v-428h76v-104h-76v-147z" />
    <glyph glyph-name="uni2085" unicode="&#x2085;" horiz-adv-x="563" 
d="M197 246h-138l15 413h418v-112h-299l-7 -182q44 47 136 47q86 0 141 -57t55 -156q0 -110 -65 -177t-170 -67q-93 0 -158 56t-68 143h133q3 -41 28 -66t65 -25q102 0 102 130q0 53 -24 82.5t-70 29.5q-67 0 -94 -59z" />
    </font>
</defs>
</svg>
